<mxfile host="app.diagrams.net" modified="2023-05-06T09:17:40.519Z" agent="Mozilla/5.0 (Windows NT 10.0; Win64; x64) AppleWebKit/537.36 (KHTML, like Gecko) Chrome/112.0.0.0 Safari/537.36" etag="_Ea-3XK8Q0VCZe1CwKPG" version="21.2.9" type="github">
  <diagram name="Page-1" id="kXz1HYkjMKhbuPNQl7_9">
    <mxGraphModel dx="1434" dy="796" grid="1" gridSize="10" guides="1" tooltips="1" connect="1" arrows="1" fold="1" page="1" pageScale="1" pageWidth="850" pageHeight="1100" math="0" shadow="0">
      <root>
        <mxCell id="0" />
        <mxCell id="1" parent="0" />
        <mxCell id="84iltXqGnAdGOQgf2_BC-1" value="" style="whiteSpace=wrap;html=1;aspect=fixed;" vertex="1" parent="1">
          <mxGeometry x="380" y="370" width="80" height="80" as="geometry" />
        </mxCell>
        <mxCell id="84iltXqGnAdGOQgf2_BC-2" value="" style="shape=image;verticalLabelPosition=bottom;labelBackgroundColor=default;verticalAlign=top;aspect=fixed;imageAspect=0;image=data:image/png,iVBORw0KGgoAAAANSUhEUgAAAREAAAINCAYAAAAZaEvzAAAgAElEQVR4nOydeZhU1Zn/P7V0LV297wsNzQ5NL9BszQ6yyWoYjRgYM4qT0ZnEaMw8mUR/mjhmMnHGTEzGxKgz7jtg0EZQQaAFulmlWZq9u6H3famupWs9vz+Yc7hVLJooCtLf56mnq6tu3Xvuued9z7u/OiGE8Pl8NDc3I4TAbDYDEAwG6cM3F0KIkP+PHz/OJ598AsDUqVMZM2YMCQkJdHR0cODAAXbs2AHA9OnTGTly5Fc+3usRRqMRj8dDIBAgIiICr9dLZmYmBoMh5PnpdDp0Op36XwgR8v+Vhk4IIcrLy3nyySfJyMjAZDLh9XoJBAJf2SD6cHUgIiKCiIiIS37v8/nw+Xxf4YiuX/T29hIZGak282AwiMvlYuHChSxatChkk/+6mYhRCEFLSwuVlZUsWbIEm81GV1cXkZGRX9kg+vDVI1wSkXA6nbS1tdHT04Pf78doNBIdHU1SUhJRUVFf8SivX+j1egKBAMFgEJPJRHt7O5s2beLIkSPceOON6PX6Sz7Dr5KBABglFxswYAA333yz+uJSA+zDNwOf9Xy/6oXYh1DodDo8Hg96vZ6IiAh6e3vp6OjA6/Wi1+vV8wmXSL4OGOVAdDodwWAQj8eD1WrtW0TfcPQxkasf0j4ZCAQU8/D7/Rc8G/ksv65npodzTCQYDKLX67FYLF/LQL4KhBuLPR4Pfr8fIMQGJPV+7fHa9/I3ct7Cj5HfXwxCCIQQBAIBXC6XGof2+uH2KPmbvxTaccixCSHw+XwEg0H8fr8Si6XorNfrCQaD6pra15eNYDAYYmPx+/0IIfB6vWoM2mP9fn/IfMvv/X4/gUAAv9+P1+tV313p8V9pyHvV6/WYTCZ8Ph9Go1F9r9PpMBgMGAwG9Hr91zVMvr4rX2FczDAsCcTj8QBgMpnUQxFC0NvbSzAYJCIiAp/Pd4GxShKl0WjE6XSi0+kUEcrFK7//LBgMBjVGaW2X5zcYDH/lXV94v3Ls8r28plyYkvAiIiLUuD/P+L8oJMOShlzJkHU6HSaTSc2rZBx6vR6j0YhOp1P34PP58Hg86HQ6hBAYjUZMJtMVH3sfQnHlV8vXBC0hBgIBpUfKhavd2SQnl4sXUIxES3zac9psNgC8Xi8mk0ntFHJBf56dQRKrZChy9/2yxFLJNAE1Ljk2Ob6enh41FzqdjoiICCVGX0lIxgAXF8eFEASDQTUvcseVu698NnIOnU4ner0en89HREREnzr2FeIby0QkLkaUcvGaTKYQaUBCMgbJdOTClfD5fIrxaCUerfj5Wejt7cVqtarrSYL4spiI9jzyrxBCjdvlclFeXs62bdsoLy8nEAiwYsUKvvWtb33ha38eyPn0+/0h4rhkGlIy0kqKUlKR9yE/CwaDiqnL53Ytqi/XKr7RTERKD5KIpO5sMBjw+/2YzWa1mOXOpt2ltTulz+dDCKFiKYQQdHV1UV1dTUJCAv369VPi9ueBJA5pE7hcfMZfe+9yPNoxScZ36NAhHnroIaqrq0lOTsZoNFJbW6uY25XeybWMTetp0Ov1GAyGEC9EuPQkJUv57BwOBzExMUol/Sbb9a5GfKOZiNSf5WLT7mxGo1ExDp1Oh9frxWg0Yjab1THBYFC9D9e1dTodb7/9Nq+99hpz5szh7rvvJiUlBUCJ1JeDVuowm804nU4MBgMWi+UC1enLgJZY29vbefvtt9m2bRsrVqzg3nvvVbaIr8IeooW8njSMWiwWFRuh/Vyqm4BSZ6SKI+NX5Fx+1cFW1zu+0UxE7rrScCgXlsvlwul0Ul9fT3x8PAMGDCAyMjLEU6Ml5GAwSFNTEy6Xi5iYGOLi4nC73Rw/fpz9+/eTm5urXOQ6ne5zE6LP58NkMtHc3Mw777zDgAEDWLBgwZfCROSuLe0JWjtNTU0NH3zwAQUFBfz4xz8mPz8fr9erJJBAIPCVEKHWLqL1PDQ0NNDT00NKSgqJiYlq/IFAQKkpJpMJu92O0WjEYDBw5MgRhgwZQmxsLNAX5/RV4hvLRKRYK/VtSRTNzc1UV1fz2muv0dvby7x588jKygoxQmpF5Y6ODrZv386mTZvQ6XQsXbqUuXPnYjQa+bu/+zuGDh3K2LFjSU5Oxuv1/kXuNumBKCsr41e/+hULFixg3rx5X4qHIZyJSPj9fpqammhpaWHmzJkUFhYC5yUCt9v9lakD0tArVS6j0Yjf76eyspJ/+7d/Y86cOdx0000MHz5cMWlpDwGwWq1ERERQU1PDz3/+c3Jzc1m2bBnjx4/vk0S+QlyzTESGZGtjG/R6fYi3BM7vcD09PWzbto1169axe/du9Ho9ixcvJicnRy1QSdTBYJDW1lY+/fRTiouL2bFjB3q9nptuuons7GzgnFfD7XYzefJkcnJy8Hg8mM1mmpqaKC8vZ9y4cSQlJXH48GFqa2uJjo4mIyODwYMH43K5iIyM5OTJkzQ3N1NcXExdXR1ut5vNmzdjMpkYNGgQ2dnZIbv1kSNHqK+vx2KxEBkZyZAhQ4iPj8fr9SoX59mzZ2loaKCgoAC/3095eTkAI0eOJCIigv3797N69Wo6OzvxeDzs3buXQCBATk4OMTExWK1WXC4Xx48fp729HbfbTVFRESkpKZSVlREZGUlmZiZJSUnqGcjnsWPHDjo6OpQEMXToUCVBSFWypqYGu93OsWPHiIqKYsiQIQwaNAg4r3LJEPsnn3yS9evXs2LFCpYuXUpGRoayTQFKYoqKisJgMPD8889TWlrK4sWLWbZsGUOHDlWqpfyNw+EgKirqaw/Q+mtw1Y5VCCE2bNggVqxYIYQQIhgMimsBPp9PCCGE3+8XPp9Pjdvv94cc197eLlavXi1uvvlmMWjQIDF16lTxk5/8RBQXF4v6+nohhBCBQECdr76+Xrz22mti6dKlYvDgwWLMmDHi5z//uVi/fr1obGwUQgjh8XhEeXm5mDFjhrj77rvFqVOn1Oe/+MUvxNKlS8Wzzz4rHn74YbFgwQKRnp4usrOzxd/93d+JyspK4fV6hcvlEk888YRIT08Xer1eGAwGkZCQICwWi0hMTBRlZWXC7/eLQCAgKioqxDPPPCPmzZsnsrKyxIgRI0RmZqa4//77RVlZmbrX1tZW8c///M9i7Nix4uWXXxZ33HGHSE9PFwUFBeLVV18V//Ef/yESExNFTEyMAERERIRITk4W8+bNE7t37xZCCFFZWSkefvhhMW7cOJGRkSEyMjLEqlWrxC9/+UsxY8YMcf/994vW1lY1X0IIsXbtWrFy5UoxePBgkZKSItLT08WsWbPEmjVrhNvtVsdt3bpV3HvvvWLkyJFiyJAhYuDAgaKoqEj84Q9/EL29vUIIIdxut+jt7RX79u0Tv/zlL0Vubq5ITEwUN910k9i0aZPwer1CCCEcDoc6r8vlEs3NzeI3v/mNyMvLE7GxsWL58uXi2WefFS0tLcLj8YSsC7/fL4LB4FW/1gOBgBDiHE263W7xm9/8Rjz++ONf86guxDUriWhdf/K91jJ/4sQJtm3bxrZt29izZw9Wq5Vvf/vbzJ8/n7y8POLi4kKiOKurqykpKWHjxo3s2rWLmJgYli9fzty5c5k4cSJmsxmdTqd2tp07d/LJJ58wcOBAYmJigHPSyd69e9m5cydHjx5Fr9czbNgwbrrpJkpKSnjppZeIjo7mX//1X4mOjiY7O5vJkyezY8cOnE4nCxcuJDExkWAwSFxcHDqdjubmZh599FE2b97MjTfeyD/+4z9iMBjYsmULr732GpWVlbz55ptERkbi8/nYv38/hw4d4plnnqGrq4upU6fSv39/YmNjSU5OZvHixaxfv57+/fsze/ZsAoEAhYWF5OTkcPbsWZ544glef/11MjIyuOGGG/B4POzbt4/i4mLsdjsjRoxQEkggEOD999/nF7/4BS0tLUycOJGUlBQcDgfbt2+npKSEiRMn0q9fP1avXs3DDz9MXFwc06dPJz8/n6amJl544QUeeeQRsrKyWLBggfKm5eXlkZeXR25uLu+88w4bN25k//79LFmyhJUrVzJlyhQVKOf3+0lJSeHuu++mqKiIV155hTVr1rB582b27dvHbbfdxtSpU4Hz7vs+fIkQ4tqURC4Gn88nfD6f2LRpk7jjjjvEgAEDxPjx48WDDz4oSkpKhMvlUtxdoru7W7z33nti6dKlIj09XUydOlX87Gc/E7t27VLHeDwe4fF4Qn73ox/9SERHR4tHHnlEOJ1O4ff7RW1trZg/f74AxKBBg8STTz4pqqqqhBBCPPbYY8JsNosZM2aI5uZmIcS5naa4uFikpqaKnJwcUVdXJ3w+n/B6vcLn8wm/3y9+9KMfibS0NPGLX/xCtLe3C5/PJ+x2u3j66acFIAYPHqx254MHD4qRI0cKi8UicnJyxBtvvCFcLpdoa2tTO/Enn3wi8vPzxYQJE0R1dbW6nsfjEb/+9a+F0WgUkydPFqWlpcLj8YjOzk7x4osvitGjR4vU1FTx1FNPqTnYvXu3mDlzpoiKihKPPPKIaGpqEk6nU9TW1ori4mJRWloqAoGAOHDggJg8ebIYP368WLdunQgEAqK7u1ucPXtWLFu2TOh0OvHCCy9c8Gzk8+nu7hZvvvmmmDt3rrDZbGLmzJniT3/6U8hxvb29wuPxiEAgIOrr68Ubb7wh7rrrLpGSkiJGjhwpHn/8cREMBtVz7JNEvjxcs5KI0LjxZOizyWSis7OTN998kxdffJG8vDx+9rOfKWOlzIaUEkVUVBQtLS2sWbOGjRs3kpuby7333sutt96qYkpcLhfR0dEEAgEl6TgcDlpbWzGZTKSmpmI2mwkGg1RWVlJfX09cXBx33303K1asIDk5GThn4IyMjCQqKkqF3fv9fk6dOkVLSwtTpkwhMzOTYDCoYjX27t3Ls88+S0pKCoWFhZw4cYLu7m4OHjzIO++8Q2JiIrfccgsRERF4PB6OHj1KbW0tVquVBx98kJtvvpmIiAhlKHY6nTQ0NNDY2EhRURFpaWkYjUa8Xi979uxhw4YNREVFcd999zFp0iT8fj9xcXHMnTuXt956i4aGBhITE1WAWHFxMdu3b+fWW2/lnnvuITU1lWAwSEZGBsnJyZhMJoLBIM899xxlZWXcddddxMfHU1paSn19PXv27GH79u0MGTKEwsJCFQQHqHFHR0ej0+mYP38+NpuN6upqtm3bRkxMDKtWrcLn82G1WjEajcqAnpGRwdKlS0lOTubo0aPs27ePjz76iDvvvFN5b/rw5eGaZSJa1cJsNuN2u4FzFvsxY8aQl5dHS0sLb731FmazmUmTJhEfH3+B58Fms5Gbm0tWVhY1NTVs27aN9PR0pfLIwjDaXJqGhgbOnj1LTEwMeXl5SgQ/duwYNTU1zJkzh1WrVmGz2ZTK5PV6cTgcypMD5+IdKioqiIiIYNy4cdjtdmJiYhRTWr16NX6/H6fTyU9/+lOCwSCxsbHY7XaysrJ46KGHWLp0KUIIXC4XdXV1eL1eJk+ezMqVK+nq6iI6OpqIiAhcLhfBYJDm5mY6OjooLCzEYDAoxlhRUUF5eTk33HCDUhUkOjo6qK2tJSMjg1GjRmE0GmlubqakpASr1cott9xCeno6drtdeUykMbOmpobNmzcjhGD79u3s378fnU5HT08PMTExzJ8/n2XLlpGfn68MsFLd6OzsJDIykjNnzrBhwwZKSkqw2+3ccsstzJw5E71er+reSDVFzun27dvZsGEDTU1NzJkzhyVLlhAVFaWKbn3ZwX3XM65ZJgLn80GkFAJgsVi48847GTFiBC+99BLr169ny5Yt/M3f/A3f//73ycvLUxZ6p9NJYmIi9913H7m5uTz77LP8+c9/Zs2aNdx1110sX76c0aNHEwwGQ5jP8ePHqampITs7m8TERBXXUV1djd/vp7CwEKvVqnJx2traOHLkCD6fjwkTJmAwGJQ35/Tp03i9XqZNm4bNZlPE0N3dzUcffYTNZmPp0qUMHz5c6f8TJkxg4MCBDB8+HDjvxq2trUWn0zFnzhwCgYDyWgghiIyMpKenh0OHDhEVFUVOTo7ymPT29nL06FHsdjvDhw8nIyNDMUy3281HH33EsWPHmD9/vpqHiooKzpw5w7Bhw8jJyQFQtiG/368Y/JEjR6ipqWHy5MnMnTtX3d/w4cPJyspi0KBBJCUlAedd6z09Pej1eioqKtizZw9vvPEGlZWVzJgxg//3//4fixcvJiMjQ82jvNaxY8coLi7mo48+4uTJkwwaNIjvf//7zJs3j6FDh6qxm0ymvjiSLxHXLBPRGsi0+StSFZg9eza5ubksXLiQV199lZdffpnS0lLuu+8+Fi1ahMlkUvkWfr+fOXPmMHr0aN59911ee+01/vSnP7Fjxw5WrVrFvHnzyMzMVAbF6upqGhsbmT17NjabTcUtlJeXYzKZKCgoUPk2brebjo4O6urqsFqtpKWlqViSPXv20N7eTkpKCgMGDFCfO51OYmNj6e3tJSIigu9973tMmDABp9OJzWZTDEgmEJpMJtra2jhx4gSxsbEsXLgwJDdFGp6bmpqor68nPT2d7OxsFYBWX1+P2+1Gr9djs9lCmHNjYyM7duwgEAgwYcIEoqOjAZSLOCEhIcTF3tvbq1zsBoOBhoYGAIYNG8YPfvADEhMTQwLapPva4/EQERGBw+HgwIEDFBcXs2HDBhwOB6NHj+aee+5hzpw5ZGRkKCnC5XKh1+s5deoUa9euZceOHZw8eZK8vDweeOABli5dypAhQ/D7/X2SxxXENctEtBZ2bTCV3G28Xi+pqaksW7aMgoICNmzYwPPPP8/DDz9MSUkJ9913H2PHjiUQCCi9Oj09nVWrVjF37lzefvttXnzxRX72s5/xySef8OCDDzJ06FA8Ho8qap2dna107OPHj9PR0cHgwYNJS0sjMjISr9eL2WymubmZU6dOMXbsWJKSklS2aVNTE01NTSQmJoZ4mGw2G52dndhsNlpaWtizZw8FBQVYLBb8fj89PT2cOXOGgQMHEggEcDqduN1uTp48SUpKCgkJCcB5CcXj8RAMBnG73VRWVpKUlERsbKzajSMjI7Hb7SpeRjKeiooKnnrqKXbv3g1ARkYGaWlpKqLXarXS2NhIXV0dw4YNU1JBZ2cnOp2O2NhYYmNjsVgsnDp1CofDQVJSUsi9ORwOBg0ahE6no7e3l1//+tds2rSJhoYGZs6cybJly5g4cSKpqakq+1qqlsFgkP/+7//m7bffxu12M3jwYP793/9dMRvxf8FsBoNBRRPDhTVJ+/DFcM0ykc+ClskMGTKEe++9l7Fjx7J27VqOHj2qaodo81Vk6Hd2djY//elPGTVqFOvXr6elpYUjR44wdOhQgsEgp0+fxmAw0L9/f+Li4gA4duwYdXV1FBQUEBcXFyIpHT58GLfbTWFhIQkJCbhcLqxWK0II3G43DQ0NvPLKKwghmDhxItOmTSM+Pp7x48dz4sQJXnnlFTweD5mZmbS1tVFZWcmRI0d45JFHmDZtGgCnT5+murqa2bNnk56ejtPpRAhBVFQUZrMZn89HeXk5NTU13HDDDWRlZSlCTEhIYPTo0axZs4a3336b6Oho/H4/u3fvZteuXTQ2NpKWlkZ6erpS3fLz88nOzqakpIQ//vGP1NXV4ff7qaiooLKykn/6p39i9uzZjB49mv79+7Nz504ee+wxJkyYQEJCAlVVVezevZuhQ4fyyCOPYLPZKCkp4fDhw2RlZfH444+TmZlJv379iIyMVEFrcF7tOXXqFKdPn2b48OEsWrSISZMm0b9//z4G8RXjG8tE3G63skvIHJWZM2cyePBgqqqqyMzMDAlP14arS4Pj4sWLmThxolIBAE6ePEl3dzfZ2dkMHjwYOKcyVFVVYTQaGTVqFDExMYqBOJ1OKisrSUxMpLCwUKlQwWCQcePGsWzZMkpKSnj55Zfxer1K1we44447cLvdbN26ld/85jdKlYiKimLAgAHKluB2u2lrayM1NZWxY8fi9/ux2WwhYeURERHU1dUpZiS9H8FgELPZzNKlSzl06BCbNm3i6aefRq/Xk5eXx3e/+13KysrQ6/XKVhIIBBgxYgQrVqygvb2dDz74gN27d2M0GrHZbAwcOFAlwg0bNoy7776bF154gY0bN/Lxxx+TmJiojKbjx49X9zto0CB+9KMfMWbMGKKjo0Nyl2S9E2nEdjqdpKSkcPvtt5OUlKTsMkBIYmWf7ePK4xvLRLSFdaT3wmKxkJWVRVZWlvpO2h0MBgMREREh2aQAycnJJCUlqcJBiYmJfP/738fj8VBQUKC8GzNnziQpKYnRo0erOiGBQACLxcKiRYsYPHgwM2fOVD1EfD4fmZmZ3HfffUyfPl0t/FmzZil1YtKkScTFxbFo0SLa2tpUSYKsrCyGDx/OyJEjFYGNHz+exx57jBkzZoQkADocDsxmM11dXRw+fJiEhAQGDBhwQfZsTk4Ojz76KDfccAOdnZ1YrVby8/MpLCykvLwcu93O4MGD1fgBVqxYwYgRIzh+/LhSmZKTk8nPzyc3N1eN4Xvf+x4TJ05k//799PT0YDKZSEhIIDs7WxG/1+tl8ODBDBgwADhfKlGOEc4XWRJCYLVasdlsysYE52wkRqMxxP4RLpX0SSlfPnRCCLFx40ZeffVVXnvttW9UGrVMiJOLTBKMjBGB0LR9Sciy3ohsHiQL3QDKtiAlip6eHqKjo0PmTZsNrC22q/XKaAvuhmfsyjgSs9msmJ+UksLrZcg0eZmxLPV/v9+PyWRSx3/88cfcfvvtJCYm8j//8z9MnDhREWQgEFCS08Wev1Y1k7lIDocDq9UaUq9Fe59ybNIuBIQYUsX/5ShJqU9GBMN5KVJ7j3Jc8iUZiiyhIIsYaeuUXAzX0trW5nN5PB7++Mc/4vf7+clPfvJ1Dy0E31hJRJs2DuerjpnNZsxms/peS8DabF9tfREpAUhxWnpIdDqdWuwul0vFd8iKaZKIpStVW59EGlclgbndbuUt0TIJGQch2wdoE948Ho9iZnC+zoYsuNTR0cG2bduoq6tj8+bNdHd3s3z5coYNG6ZKD0oprLe3VzFQSaCyOJC2mLLJZMLj8agAPG1xajk+bS1aWTdFy6wlU5AMRdqk5LitVusFNXK1RlHpBTKbzUrFCy+aHd4lTnuOPny5+MYyEUkM0g2qFXEl85BuRrn4tFXOtPVFgAukFclc5ELVuovlNXQ6nfKowIWFkyUDkRKT1hjs8XgwGAyKCLXqWXj+h5YhSMbm9Xqprq7mvffeY/fu3fh8Pm6++WZuv/124uPj1ZxcrOiPVPHk/ch7k4xX61qX9hY5d+L/qovZbDZ1Xm1d1PB7kdfQSm3h0p/2PuW9hksd2gxsOZY+m8hXg28sE5FitXaxSSKQyWNaV580vgIhi1DuxhIyElObYi5VH+2CldeQYwgflzauQory8jMtQQFKJZDXkcFS2jKO8r2UoCIiIkhJSWHu3Lnk5+eTmprKtGnT6N+/vyJu7X3L60pJSEoC2ojQcEasZWRa6UOqitpxSbVSqmoSch61CZXh9iz5jLTnkwxFzrlUq2RIfjj6pJArh28sE9EygvDPwt9rI16BkIUPFy+NqC1vqBWd5fvw4s7h19WK8uHXDS9qJIkqvOdIOGEIIVR5wWAwSHp6OsuXLw85Vkph8n/t9cPnR96TnB/t/+E7/MWquV2sOFO4FBIeBPZ5DaGXKvwUfv4+5nHl8Y1lIlcaX+bi/DJFbm019C8Kqa5JlUR7z9r3WrVOftdHvNcP+pjIFcaljHtXWle/mJTylyK8L4zExaI/L8dULjaePnxz0MdErjC0ov+lCOlKENjlmMbnYShamwuEFlUOb4oV/rvwuq59+Gajj4l8BbgSzOOzGJNWWtAeJ6WGz2IkWsPzxY6/XPe6LzLuPlx76GMifyU+iwgvpbaEi/3hn/0l178cM9Ayjb/mGuEGz3DpQ15benGkYfVSBuXwcX7e+evD1Y8+JvJX4rOIQPv9xbwa4Z+FE/vnVTmupATgdrtV6L50lWtzWOT1wzsFymjZL8rI+nBtoI+JXCGEMwv5PpxJXIk0g3BmdTGG9Fm9cTo6Oujq6lL5QvHx8SEJcOHnkCUKurq6cDgcDBs2LEQdCjfA9gWBfXPw+bosXaeQgVHa0G4JGZwlw8V9Ph8Oh0MFREmCkzu33MlloJkMCdfmgvj9fnW8TqdTofU6nQ63263eSyNnd3e3+t/r9Ybs+DJ/Rr4ApX7IaF1tPorb7aa3t1cR9wcffMA//MM/8MADD/Dhhx8qKUSOSTsXMvHtueee4/vf/z4PPfQQGzduxO12ExERoYLb5PVl5OrF7q0vyvTaQ58kchmE6/YyCvXAgQMcOnQIOF9Q+KabbiImJiakYI7JZMJiseDz+diwYQONjY2qUXVubi5TpkxRDEceL6MwPR6PCgSTFc18Pl9Islx8fLwiUG1EqwwLl5Bh9YA6twzbl5CRqUIIHA4He/bsYcuWLRgMBlUiUpsLo2UOst7H/v37+fDDDwkGg+Tm5jJhwgRiY2MVM5V2FlnxTc6fvE/JHD9vB8E+XB3oYyKXgTYUW6Kzs5N3332Xxx9/XBGQLOu3cuVKldkK54li27Zt/OpXv+L48eMqx2XevHmMHDlS1QTp7e0lMjJSMRSZzCftC3C+tACc7+Tm8XhU8SGt4VNKJlJqkBGnOp1OMRwZIh4eRav9KyUOKeXIXCQp0chjtUFuUjKSyYmyIplkoDK/Rwtt8lwfri30sfzPgIx5kIvc4/Go1pTBYJDu7m5aW1t56aWXqKmpUaoCnM/U3bhxIxUVFXR1deFyuejo6KC8vFy5YbWeFslEdDqdkmrkDi5VkGAwqPJTbDbbBcQqw9Tl/1arVYXCaxPYzGZzSHEij8ejGI7NZgvJOJbjkrk78uX3+0OkCnndqKgorFYrDodDuYtljo/xn6QAACAASURBVM7F1BWpJvXh2kOfJHIJaGs5wPmd2Gq1KgJPSkrCbDZjt9vZs2cPBw8eJCcnB71er+qMHDx4kA8//BCHw8GAAQPo6upS3ex9Pp/K1rVarbjdbrq6umhsbFTtHgKBALGxsQwYMEDVXg0Ggxw9ehSHw0FqaiqFhYUhBZkdDgc7duwgOjqa+Ph4Ro0ahc/nw+1209raSltbm2IoUVFRpKamqnYawWAQh8OBx+NRNqHIyEjcbjdnz56ltbUVn8/H4MGDVSlCOUeyvgeg7Bxmsxm9Xo/H46Gnp4fW1lZaW1tVUej09HRSU1MVI/wm1bO5XtDHRC4ByUDkgpYSiayqJcsFDh06lF27dqmG4dOmTaNfv36qzkVpaSlnzpwhKiqKMWPGsG3bNlW3o7u7m4SEBMxmMx6Phy1btrB161YOHDhAY2MjUVFR6HQ6srOzWbJkCcuWLSM+Pp5Dhw7x85//nM7OTjIyMnj55ZeJj49XdWK3b9/Ogw8+SFRUFEuXLmXUqFGcPn2at956i08//ZSOjg7sdjvBYJD4+HjGjh3LkiVLmDVrlrJfSDXFarVy4sQJ/uu//ouSkhIaGxuJiIigoKCAW2+9lTlz5igGIFU5adfxer2qXmtpaSnr1q3jwIEDOBwOABITE5k6dSoLFixg4sSJACqTuM8ucu2gj4lcBtrQb6kmaD02Op2OoqIi6uvraWlpoaysjKNHj9KvXz8A6uvrWb9+PS6XiylTppCfn8+uXbtwOp1KlZAGzTVr1vDcc8+xc+dO1XkuGAwqKefo0aPU1dXxk5/8BCEE7e3tHDp0iNOnT7N582aWL19OIBCgu7ubV199lUOHDmGz2Vi0aJEyBv/Xf/0XDocDi8VCbGwsTqeTo0ePsnv3blpbW0lOTqagoOCCKmNvvfUWkZGR9Pb2EggEcLvdHDhwgJaWFpKTk8nLy1MlEaRkIrvyWSwWPvzwQ5599lnWr1+PEILk5GRcLhfl5eXs27ePgwcP8m//9m+MGDHiotnAfbi60ffELgNtvoi2Lom2FkdeXh6nTp1i//79nDx5koqKCqZMmYLNZqOiooJjx46FFImOjIykqakpJCy9vr6eV199lZKSEiIiIli2bBnTpk0jISGBrVu38tZbb3HkyBF++9vfcuutt5KTk8PUqVM5dOgQOp2O1atX8+1vf1vZNvbv348QgtTUVPLz89HpzhU2TkpK4rbbbqOwsJD4+Hjq6+spLi6mpKSEHTt2MH/+fIYNG6Y62MkqZYFAgHHjxrFgwQIaGxt5/fXXaWxsZMOGDUyaNIkRI0Yow66UYqSKZrfbeeuttyguLiYlJYVbb72VoqIifD4f69ato7i4mHXr1rF48WKysrKIjo6+oDxiH65u9DGRy0BbilAaF+UOK0sBms1mFixYwLvvvktLSwslJSXcdNNNDBw4kI0bN1JXV4fNZmPOnDl0dHSohkuyyI8Qgq1bt7J3714AZs6cyYMPPsjYsWMJBoOMGTOG9vZ21q9fT09PD2vXruWBBx5g+vTpvPzyy6qfb3t7O8nJyarFg16vp6ioSKkJc+bMIS8vD6vVql52u51jx46xc+dO7HY7ra2tWK1Wenp68Hq9yiA6a9YsHnroIaZOnYrdbsfn8/H000/j8/koLS3l9ttvV65aaViW6uDJkyf5+OOP0ev1DB06lClTpjB+/HgiIiJob29n+/btOBwO1qxZw8qVK4ELQ+77cGG6xNVkN+pjIpeA9MZo65rC+QpdsolSMBikqKiI3Nxctm7dysGDBzl27Bh+v58tW7YAMHbsWLKzs7Hb7cpjYrFY6O7uJhgM8umnn9Ld3Q3AxIkTlSHUaDQyfPhwCgsL+eCDD+jt7aWiooJAIMDMmTMZOHAghw8fpqmpia1bt7Jw4ULef/99XC4X8fHxZGRkKBdyUlIShw4dYuPGjZw+fZqWlhbVslJ6XtxuN36/n6ioqBCb0KRJk5g0aZKquJafn09SUhL19fXU19fT1dVFv379cLvdynbkdruxWCzs2LFDtcU8fvw4TzzxhKr21t3djd1uV/1q5Lz3qTTXFvqe1l8IGSchGYnH4yEtLY2ioiJ27dpFQ0MDhw4d4siRIxw/fhyDwcDs2bNJSEhQLSZl0WYZa1FZWal23/j4eCXKy3gR2dHOYDDgdDoxmUxER0czY8YMDh8+jBCCPXv2MHv2bE6cOEEgECAmJobFixcD52Jb/ud//oc//elP1NbWEgwGSUlJQafTqQjS6OhoZYeR15LqkbxfWUhZ2j1kYJu2Qr42KtZoNHLmzBl1Lz6fT3lopAs5MzMTi8VCYmKiCorrM6peW+hjIpeANmtVEooWsn2lPG7evHmsXbuW48ePs27dOuVGTUpKYubMmcTExKg+u36/X/UMlkZISYR1dXVKwpGqQXt7u5IWUlJSVJLbwoULefrpp+nu7qakpIQhQ4ao3rd5eXlMmTIFn8+H0+nkjTfeoKqqiuTkZJYsWcKMGTOw2Wy8//77vPDCC/T29uLz+VRLUWmzkcWc4XzQncViUS5gGa0KKHeulCZ6e3tDevWOHj2av//7v1cuY3mcxWJhwIABWCwWJan1MZJrB31M5DIIT30HQmwjERERamcuLCxURta9e/eqnXjChAmqU15MTIwiOJPJpELPp0yZwvvvv4/P5+PYsWOcPn2aESNGoNPpqKys5NNPP8Xn82EwGCgqKiIQCGCz2RgzZgwDBw6kurqa+vp6XnzxRVpaWoiKimL69OkqarWzs5OTJ08SGRmp6q7OmzePnp4e9u7dq2wker0eq9WKy+VSGbw6nY7y8nIOHjxIQUEBnZ2d7Nu3T81RZmamYjpWq1W17IRzUbhTpkzh6aefBiA2NpacnBzGjh2rft/b28vhw4cZM2aMMuL2FTS6ttDHRD4D4ZmnXq9X9WKRkoUM4x47dixbt26lra1NNb1eunQp8fHxuN1uXC6XqhwvA7P0ej2LFi3iqaeeoqqqii1btvCv//qvLFy4ECEEJSUlvP/++wCMGTOGWbNmqdD3+Ph45s2bxx//+Efa29ux2+04nU6ysrJYsmSJUosMBgP9+vXjxIkTNDU1sXPnTtra2ti/fz9r1qxRiXIymVB2AJQtSDdt2oTVauWmm26itbWVN954g5aWFkwmE5MmTWLgwIEqwE5Gr7pcLkwmE1OmTGHYsGHs2bOHjz/+GL/fz4IFC0hISMDj8XDixAk2b97MAw88wIoVK/rC369B9DGRy0DbzErGQWibS2kbNRkMBqZMmcLatWux2+14vV6GDh1KUVGR6mEjk9CkDUEymuzsbG6//Xbee+89Dhw4wNq1a9m2bRvBYJD29nYsFgtTpkxh5cqVZGRkqL4zZrOZefPm8cwzz+D1epUKNGrUKPr37w+cS96LiYlh5cqV/Od//idtbW38x3/8B5GRkbhcLqU6uN1uZdyNjY1VzDIpKYmkpCQ+/PBDiouLVVe+iIgIFi9ezKxZs9Q8aOdCfhYTE8Ntt92GXq+nrKyMjRs3cuzYMbxeL36/X81Vb29vSJZznzpz7aCPiVwG4TU5IiIiiIuLIyMjg5EjRzJ8+HCSk5MVUY8bN07ZIXQ6HbfccgsJCQnKCJmZmcmYMWPo7OxkwIABDBgwQBHOj3/8Y7Kzs3nvvfdoaWnB4/HQ29vLkCFDmDx5Mvn5+YoYZdCb2Wxm2rRpLFmyhJaWFmW7Wb58uQpht9ls2Gw2li9fTmNjI/v371cBc4MGDSI5OZmqqioV8yKbTw0ePJjc3FxmzpzJjBkz2L59O7t27VL3mpeXx6pVqygsLFS5OEOHDmXChAl4PB6GDh2qpIrvfe97xMXFMXLkSE6dOoXD4VDtQfPy8igoKGDRokUqEK7PO3NtQSeEEB9++CGvvPIKL7/8shJnr/cHqdXNtTuj0+mktbWV6upq0tLSSEtLIyYmRkkWjY2N1NXVEQwG6d+/PykpKSoLt729nZqaGnp6esjMzCQ+Pl4V+4FzfX2bm5tpbW1VGbaRkZHEx8eTkJCgwuDhfDMpr9dLfX09NTU1+Hw+UlNTycjIUOfVNrXq7OykubmZjo4OjEYj2dnZmM1m6uvr8Xq9arzBYJCqqirsdjuRkZFkZWXh9/upqqqiu7ubqKgoMjMzSUtLC2l/2djYSHV1NQaDQQXW2Ww29Ho9LpeLtrY2WltbcTgcKhgtNjaWuLg4oqKiQiJl+3B+DcrEy6eeegqHw8FDDz2kjrka5suo7XkqMzjDu7ldj9CK0zJzVhoek5OTycrKCokXkdJGv379yMjICDmHtJ/Ex8cTGxsLhDZ78nq9Kp0/OjqawYMHKzdqeNV16UGRXhGj0Uj//v0ZMGBAiPoFqAhSaQhOTU0lOTlZGUzlGOLi4oDzQV56vZ5hw4ape5fnHD16NIDqZCfdsVKaysjIIC4uDpvNdsHitlqtZGZmkp6ersattTeF43pff9pNTNriZNfBq61wkzG8E5y21WQfziG86bfNZlNJZnq9XhGfJHq5ALQ1PeRvZUar7Her7bYnjwt3KWtLBoSPJ7zsoLavrbZSmDbMXtunWNuyU9p95HsZUSvvQ0pUWvuQdh6kgVmuI22TbWkHuthcaaucXaxR1vUILf3JjG85p1cTAwEwer1eVdgmvNfq9QxJdFpClDt4eECUtlCxNgM1vEyi9niTyRRSEEiL8F7B2rKH2mtpyyVKt6qsPibD67XXkISr7Q2jbWyuZYiSAciqaeHzoq1hEv6dVIcv5aqVTFZ7P+G43tefTqdT3jKTyYTValUawtXmBjeaTCal0/f29obU/ryeEf6QpPgvdwJJvOHvtQxG+51UebTeGXmMdrcOj0eR32t3IEl8chc3GAxKSpBRtDI7+FKQao78jYyOlf9LKUNbalFKJBERERfUWZXRpvI77Xnl/WilrvAueuFzcTURydcF6QUUQuB0OvH5fBf0Gr4aYBRC4HK5OHz4MC+//DIdHR1ERUWFLJDrEXKHlos9vCKXlDqMRqMiOBkSr2UqZrM5JBtW/lb+XqvGSKINl4IktJ9FRESoyFXJ4LRxLDabLUTq0BK0lCTktaREItUUqU5p7TLhthmpskhil7+RKpBkcPLYcBuT1hanVWXkdWU8zfUKp9NJbGyseqYGg4F9+/YxadKkq85madQ+PECVyLved4Jw9652juT/kkBlzogkRq39wu12q+Mlc7BYLCpGJJzYwiUZ+dL+L99rmY+8hjSMd3Z2hqgzWoYg651K6UiqVvJe5DnDyxnKe5C/0xpWgQt0dnl9bQ6OvF8Z8q9lcFrCuN4zeWVCpIz/0el0dHd3K4nkarJZGuHcrpuTk8Odd96pdtHrnYloA8Mk8WltI5KI5HwBIbsyhNo2pPoh4zvkubTSRrjKor1uOGORKkd4iriEVL20Klf4tbSlDrSJdHC+JYbWvS0Xszy3ljloxyu/l9COQTIVqRqFVzHTMsrrGdIw7/P5sNlsKvEyISHhqmIg8H9MRFp+pZikFbEvhc960Nqd8vOe66u0w3zW+LWeCAjt4ibVE0lwkuFIMVz7W22LBzhXr/RiCX2AUinkdXw+X0hrBsncfT4fJpMJj8eDyWRSyXzyeG2h6EsZLsO9PeGbRrj0Jc+n/U77Plzt0p5PVrjXBsnJIs9aJivHLxmUlqFor3c9RLRKSVDbadBkMtHU1KS+hy/eLvXLwF/N0v6SwV6OYMPtDH8p4/lr8Vm//6zrayurSzuAVm2B814YCbm7h9tXLjYercQgIeN4JKOQRjaLxRLiXfs8cQRfxiZxMQlHQkoa0ugrz6f1MITvqNo4lcuN83oy+l/uXq+WeQhh51/moC7l6/+yxFWtveBir887vku9Pg9ktKbcSaWKoCViaRiT19R6RS4H2aNFWxRJa7fS2hi0tgbpFrzS0KpZWu+KfElmJ+dBa0eRkoR0S8sC09JGJM8Foc3Dw6WS6wXhUt6lPvu6cFFJ5MtmJn/JubUL8i8571/6/Wfhs64vxXKtpKB9wNJWIqUOKapLAgi3ZYSPV9pTpFrg9XovqLAmz6O1WUi34JVeWOGErHXZQqh7WztW7Zhl9rBkLFoVKHxOLqZWXq/Q2tPCP/86oJcX/7IHII1pl5MMLvb5tWJUk2pKuGoiJQKtPcFsNisCCXfPXep+ZUSpZFLynHa7XdX3kLDb7ezcuZPa2lqAr9w9fzHjbbg7W2snkkQgGR6cU2XKy8spLS2lqanpkvNyvTKPi7n7rxZcIBd+3sF9ljqhFbXD3Xjy+3AXn/azL3r9zzO+y70+C8FgkPr6ejo6OkLE7PAdua2tjebm5hCiuNR8aF/SZiCT16T948033+SBBx6gtLRUne/s2bM8+uijvPTSS3R3dytG9UVenwVtN76LSSFGo5H29vaQcG15X4Byi7tcLvW7X/7ylzz00EPU1NRcEKNyJTa6awGXuue/VgW/EvirlcvPuwgvRbxfFF+UCL7o7w8cOMBTTz3Fpk2bVCyI1ishhKCnp4fXX3+d119/nZaWFuC8+/ezIKOH4fxCOnjwIM888wzHjx9n0KBBITaTEydOsHbtWjo6Oj7X+b8MJqydK60a6na72bVrF//7v/+rCkvL+BLp2ZLeGvk72eP42LFjqkWoPJ88//XIRMJxNc7BFbNQyQUe7v6T+KKGTe35L/b6rPN/0etv3bqV3//+93zwwQd0d3crI6EU5XU6HU1NTbzyyiu89NJL1NXVAeeIQrrQL/ey2WzKGGm1Wunq6uL111/n008/5YEHHmDBggX4fD68Xi9paWmMGzeOuro67Ha7amH5Re7vs5jIpc7n8XhwuVz89re/5Re/+AU7d+5UUpX0vng8HlUBzWq14nQ6OXnyJMFgkAkTJpCWlnaBsTZ8bH24enBZm4hWtw5/L4TgzJkzHDlyhK6uLtWLRYZiS3cmnI9DkIlo4RmuWk+E9F7IBs/yHDrd+QbX0mCnJVjtb6QoLCUeWYRHVtCC0GAqGa8ghAgJ+dbOiXYcwWCQ48eP43K5GDlypOq3AqExFPv376empobY2FjVukGeS6fThRC7nDPt7+XnAHv37uXZZ59l6NCh/MM//AOAUneMRiODBg3C6/VSVVWlQtqlqiDnQd5DuN1Gm2ynfQ7aY7XGT2nklb/xeDzqOIvFgk6nIyUlhZycHPLy8i5I0ouKilJSlnRVf/LJJ0RHR5OUlER8fLy6//Dwe/n5Nx3aNS6Z9sXc4lcDLimJhKsdF8ubeP3117nzzjvZunWrCnaSCXyyaE5TUxO9vb2qxqhOdy470Ww209PToypc2e122tvb6e3tpbu7Wy0YuRvLACshzrkxW1tb6ezsVGH6stYpnGcW0tAohFAxFhaLBafTSWdnp2qsLWs0SNdpb28vHR0dOJ3OkDwW6ap1OBx0dXURFRVFWlpaSP0MLfPZv38/bW1t5OfnEx0drebEbrergj+yLWVLS4sq1gOo+quyydOf//xnuru7+eEPf6haSEjDq9VqJTExEb/fr2w0BoNB2VF6enro7u5W2dqyQJFM1tOWM/R4PLS3tytGIsPo/X6/iqD0er20tLSoZyR78Mpzx8XF8U//9E8899xzTJ06VbXflEyhq6sLv9+vnrNer2f79u10d3czfvz4L7qm+/AV45JsTQhxQaCUVu+vrKxky5Yt1NTUqKI2fr9f7YImk4mzZ8/y6quvMm3aNDIzMykrK+Pw4cPY7Xby8/NZuXIlNpuN8vJy1qxZg91uJz09neHDhzN9+nQsFktItirAsWPH2LVrF/v27VP9V/Lz85k8eTKZmZkANDQ0UFxcjMvl4gc/+IGq/wHnclneeecdqqqqmD17NkVFRYrxNTc3U1ZWxtatW/H7/URHRzN8+HDmzJnDwIED1e5cUVFBbW0tWVlZDBgwALPZrKQaOL9Tnjp1imAwqHrMyl3kpZdewmazccstt1BWVkZZWRk9PT0kJCQwZcoUZs6cGRJFeuDAAdavX09aWhrLly8PcZlKIoyOjkYIgd1uV8/CaDRy6tQpVq9eTXR0NMuWLSMhIYGNGzdSXl6uGmnL8RqNRioqKnjzzTfJy8tj7ty5xMTEqAruW7ZsYefOnXR1daHXnytcNHnyZNVZTzLQyspK1q9fz8SJE0OkUICqqiree+89zpw5g9/vZ+TIkcyYMUP1ohk/fvxVl+reh8vjkkxEG58gcyq0Gap2u53Tp09TVFTEkCFDVJczQO3aO3fuVD1mk5KSqK6uxu/309zczJo1a5Q0snHjRlWQ+LXXXiMhIYH//M//ZOrUqUoN8Pl8vP322zzzzDNUV1fTr18/AoEA1dXVGI1G7rjjDu655x6SkpJwOp387//+LwaDgfnz5zN69GiVr1FbW8tzzz1HbW0tY8eOVQT08ccf89xzz1FZWanUk56eHjZs2MDx48e59957ycrKAs4xkaqqKsaMGUNqaipwPk5CqgcdHR00NzcTGxvLoEGDVIxIW1sbL774IhkZGdTX1/PRRx+pe6+vr2fLli0kJSVRUFCgdvaNGzfS3NzM3XffTXR0tKqUJmNJZA8YrQgssXXrVh599FHVwjI6Oprt27fz/PPP4/P5mDx5MoD6fXFxMb/73e+4//77WbFiBXBOolq7di2rV6/G5/Opbnd//vOfKSws5Cc/+QlTpkxRNUSKi4v59a9/zQ9/+EPy8vKIj48nEAioOS4rKyM5ORmAzZs3s3nzZioqKoiLi6Nfv35XXZZqHy6PyypY0gIvd1BtclZbWxsul4vBgweTmZkZoqtpPQYtLS2cOXOGgoIClixZwvTp0/nwww956qmnePLJJ3E6nQwfPpz777+ffv368eijj7J161Y2bNjAjTfeqKSfzZs38/DDD9PQ0MCKFSu47bbbEEKwa9cu/vSnP/HSSy8xevRo/uZv/obk5GRiYmI4evSoKmAsCWvv3r3s3buXqVOnqh3/008/5YknnqC6upqVK1dy4403kpiYyKZNm3jsscdYvXo1kyZNIjs7Gzgn6bS3t9O/f3+io6ND7lsykYMHD3LmzBlSU1MZOHAgNpsNgCNHjtDU1MTBgwepra1lwoQJ/O3f/i0Oh4N///d/p6SkhLfffpuRI0ei1+upq6tj27ZtWK1Wbr755hCjpnzv9/uVeiGlR9k8KjY2lpkzZzJixAgyMjKwWCzYbDZ6eno4ffo0cN4ucfToUdasWUN0dDQ5OTkAHD16lN/97ne88847jBkzhlWrVpGXl8fp06f5/e9/z4YNGxg6dCi5ubnYbDYiIiLYvXu3KkYtx1NRUcHvf/97SktLWbBgAbfddhtWq5VNmzaxZs0aenp6mDhxImlpaV9wSffhq8YlmYjT6cRms2E2m3E4HJSVlVFRUYHFYsHv91NWVobX6+XEiRO8+OKLwDlpYezYsYwZMwafz8eBAwfo6Ohg1KhR/PjHP2b+/PnExMTgcDh47rnnOHz4MMuWLeMHP/iBaq0wZcoU9uzZQ1NTExaLBa/XS11dHY899hiVlZU8/vjj3H333URFReHz+RgzZgwNDQ384Q9/oKysjG9961sAjB8/nrKyMpWwpNfrcTgcvPvuu+j1eubMmUNUVBT19fW8/PLL7N+/n1WrVvHTn/4Uo9FIdXU1TqdTeT9kbVSXy0VLSws6nY4hQ4Yod6Q2uEyv13Ps2DE6OzspKCgIKS5TWlpKT08PcXFxihlKVamqqorDhw9TW1uL2+0mJiaGqqoqVRR6yJAhSl3UGqHlb41Go1ItZfnF+fPnU1hYSGxsLCkpKQghGDJkCLGxsfh8PhU1CrBz504OHjzI7bffzre//W1cLhcbN25k3bp15Ofn85vf/Ib8/HwMBgOFhYXodDqOHz/O3r17aWtrIz4+HpfLRWNjI7GxsaofTTAY5N1332Xz5s18+9vf5pe//KXaeEaNGsWxY8doaGhg5MiRqhOf1s3bh6sbl2Qi2ipXdXV1bNiwgY0bN2IymXC5XKoZ9enTp3nqqafo7OwkNjaWH//4x+Tn5+N0OmlrayM2NpZ77rmHW265BZ1Oh91uV3aOUaNG8cADDzB16lTg3I7Y3d2N2+1mxIgRuN1urFYrJSUllJWVMW3aNO666y5FlLJgcXJysvIK6PV6EhISSE9Px+/3c+DAAb773e8ihKCsrIwdO3YwefJk7rrrLgBOnDhBaWkpbrebiooKHn74Ydrb21WQWFZWFt/5znfIz88HzgV2VVdXk5iYqJiItEto63rU1NQQCAQoKChQ4fF6vZ5PP/0Ul8vFkiVLuOOOO0hPT8dutxMVFUX//v3VHMjs3RMnTuB0OikqKlJSj/SSSDtVW1sbBw8eJCEhQXXbk56buLg44uLiVJ6PwWBgwIABWK1WOjo6qK2tZdiwYZw4cYL333+fpKQk5s+fT0REBMePH2f9+vV4vV7uuusuJkyYoNaHx+NhwIABpKSkKA+NXq+nurqa5uZmhg0bRmJiIhaLhdraWt555x2MRiO33nqrYiBer5f09HRiY2Mxm81Mnz5dGb/71JlrB5dkItrGTP3792fevHlkZ2eTkJBAe3s7zzzzDFarlRtvvJGRI0eqXVEaRA8dOkRTUxOjRo1i4cKFqpl1TEwM5eXluFwupk6dSlFRkUqf7+3t5fTp0+j1eubOnav6wq5btw6j0cjMmTOJi4tTLsXIyEicTid1dXWYzWZln+jt7VUL+ODBgwSDQTo7O9m8eTN2u52lS5eSlJSEw+Ggrq6O8vJy0tPTCQaDfPLJJxgMBrKzsxk1ahTjxo1jzpw5WK1W/H4/bW1tHD9+nLi4ONLS0kIMgNJVbDKZqK+vx+/3M3ToUBX3EAgEqK+vJyEhgVtvvZWEhATV4Mnv93P48GHcbjdFRUVYLBY6Ozs5c+YMXq+XqVOnquMANWdCCJqamjh58iSjR49m0KBBKk9HVgiXPXKla1b2zmloaODUqVMMGzaMffv2sXXrViZP16hw6QAAIABJREFUnszs2bOVC//QoUPk5uYyZcoUHA4HkZGR6HQ6zGYzVVVVNDU1kZubqwj/6NGjdHZ2Mm7cOJKSkggGg+zevZvKykomTZrEhAkTlOrrcDgAOHnyJN3d3YwZM0Y9v6uxDGAfLo7L2kR6e3vVTrtgwQJmzZqlRNi33nqL9PR07rrrLrKzs1XMg9T9y8rK6OzsZNGiRURERCjpwePxUFNTg9vtZu7cuapnCUBzczMNDQ1ERUXRr18/VSe0trYWv99PUVGROl4S09mzZ9m0aRNCnOtpC+d26oEDB6r6C0IIdu/ezbvvvsv48eP5zne+A5xLoT916hQ+n4/bbruNv/3bv8XtdhMXF4fRaFR9YWSMgsFgoKGhAYfDQVZWFlFRUcreIl2lFouF7du3s3//frKyshg5cqSyxxw5coS6ujoSExOZOHGici339PRgMBjYuHEjRqNRNZEyGo0cPXoUgBEjRoSUQpSuaIDTp0+j0+nIy8sLydMxmUxKAjEajcrLEh8fz6BBgyguLqa1tZXW1lZefPFF4uLiuPPOO5VdoqWlBbvdTm5uLtnZ2SFeoWAwyIcffkh3dzfDhg0jLi4OnU7HkSNH6OjoYODAgar40smTJxVD1cYbRUVFsXbtWk6fPk2/fv1IT09Hp9OFeAWvh5iQax2XZSKS8LW7msVi4ezZszQ0NDB27FiSk5NVkyVJbF6vl4MHD2K32+nXrx/R0dFKd29tbVUEFh8frxaa1+vlzJkztLa2EhERoRomSTXBYrHQ3t6udjFpOHz77bdpbGzklltuITMzE4/HQ0xMDElJSQwZMoT29nYOHjzI008/jdPp5Ic//CFxcXEEg0G6urqUSpSUlERubq4iEG2quowzkRmnUnx3Op3KixMREaHc2qtXr+bEiRPcc889jBo1Srl/Dx48qER4rbE3OjqaP/7xj1RUVDBjxgwGDhyo3JxSTZAlBrTFeiwWCz09Pbz33ntYLBZmzZpFbGxsSKCfZEaSmej15/rfSInu5MmTCCHYt28f3/nOd5g/fz6ASsuXm4jD4SAxMVEZdLds2UJpaSmZmZlMmDBB2YyOHDmCXq8nMzOTqKgoFYsibTSJiYnAOVd7VVUVzz//PB0dHSxevFhJMxert9KHqxeXjRORIrCssCQNh6WlpdTU1JCcnKxiMMJTwxsaGoiLiyMnJ0dJFHr9uQbYLS0tpKenk5ycHBKjcPToUdra2li4cKEyIPp8PoYPH86RI0d45513yM3NJSsri9raWtatW8eTTz7J0KFDufPOO8nKylKLPz09nbS0NE6fPs2vfvUrNm/ezA9/+EO+9a1vKUKwWCykpaXh8/lYv349BQUFKm7iyJEjbNmyhcmTJ3PDDTcA53bFYcOGMWLECEpKSnjhhRew2WzKMFpeXs4zzzzDG2+8weTJk7n99tuJi4tT6sWpU6dobW0lEAjw7rvvMmPGDKxWK6dOneKJJ57A5/Pxne98h1GjRqnfeDweLBZLSB8ZaRORTGDTpk1kZGRQWFiIEEK5a9955x1qa2uZNWsWo0ePVvU9TCYTo0aNwmaz8f777xMZGUlOTg5///d/T2xsrCpzEBsbi8lkYtu2bbz33nssXrxY5cU8/vjjtLa28o//+I9MmTIFs9mM1+ulurqazMxMRowYoYonScZx6NAhjhw5QmZmJqWlpTz//PPs27cPi8VCbm4uTqeT6OjoC9zUfbi6cVkmAudDpbWl+yIjI1m4cCFFRUWqXJ/8jdfrpaamhurqapKSkkhNTVXiqfTmdHZ2MnXqVGXDkOHmJ06cwOv1Mn36dLWgdDod3/3ud6msrGTjxo3U19eTlZVFQ0MDVVVVDBkyhH/5l39h6tSpIW0HZei1y+XivffeY+bMmdx///0qdN5oNBIVFcW0adOYNm0apaWl/OAHPyAnJwez2UxdXR1nz57FarUya9YsFUg2atQoVq1aRUtLC8XFxZSXlzN48GB1bz09PcycOZMHH3yQsWPHhpRCrKurQwhBamoqjz32GBs2bCAhIYEPPvgAo9HIQw89xM0336xsF7JJdngPF/kc9Ho9mzZtwul0smTJEoYNG6ZsMocPH+YPf/gDR48eJSoqisLCQrXDW61W0tPTMZlM/5+9M4+Pujr3/3uyzCSZ7PseSAgBAqHsCIKCrIq4VBS1irsWK621danVtldbq71e21qX2lZQqYoXELQuiCAoBNnClgSSQBYSkpB9mcyWZL6/P3Kfw5kxINJetb+b5/XilTD5znc533Oe86yfDwcPHiQrK4snn3ySsWPH4nK5lLIZM2YMV155JW+88QaPPvqoymwVFRXhcrm44YYb+P73v09cXBxOp5PDhw/T0NBASkoKKSkpygWcNWsW06dPZ9u2bfzgBz8gMTGRiooK4uLiyMvL49NPP2XYsGEqIzOA8fvvJadVIrLrCUmRzoy3aNEi5s+fT3Z2NvBFLM+Ojg4mT55MUlKSopSEU7gac+bMYc6cOWrSyELLzs7miiuuYMaMGV6YnBdddBEmk4nVq1dTV1dHW1sb0dHRXHTRRcydO5fx48cTFBREd3c3Ho+HwMBAAgMDmTNnDo2NjURHR3PXXXeRlJSkMj7QF5/Jzc3l4Ycf5h//+AfFxcWKrT49PZ0rrriC2bNn43K5vGplFi5cSHx8PBs2bGDfvn00Nzer3f38889n/vz55OTkePXhNDY2cvToUaKiovjZz37Gvn372LNnD+3t7cyYMYMbb7yR0aNHK0hFKYcXYm4pWZcMkKS+ly9fTnh4OIsWLSI4OFj1JAGMGjWK9PR0dV6JqQgw9/z583G5XEybNo3Zs2d7KSeJYdx3331kZ2ezZcsWWltbCQsL47zzzmPu3LlMnTqV9PR0Zd3Y7XZmz55Neno6MTExuN1uLBYLubm5PPTQQ6xcuZKTJ0/idDq58MILufbaayksLCQpKYlJkyapeTLgyvx7ickwDOPDDz9k5cqVrFy5UhUw6SKf6dih4jb41kcAtLe309TUhNlsJjk5WcUXzGYzDQ0NtLa2KlfIYrGo89fU1NDe3k5OTo7qdJUF7O/vz/HjxwHU5IyKiiI0NPQL/R+y4Juamjhx4gRhYWFkZmb2y28qwcaGhgYcDgcBAQE4HA6sVivp6elezy89POJmdHV10dbWppRjYGCgqrAV60riEbt37+a6667DZDKxY8cOrFYrTU1NKkiqW2yyiFpaWnjggQd4/fXXWb9+PbNnzwZOVcc+/PDDPPHEEyxdupRf//rXhIeHK/yR4OBgampq6OnpIS0tzWtsRNFUVFTgcrkYMmSIVzZENhA9LtPS0kJ7ezt+fn7ExsYSFhamcGYFFlL6jXp7e0lNTfUClQZobGyks7MTk8lERkaGquz1eDyKgFzHY5V7+b8qOjKey+Xi+eefp6enh/vvv/+bvjUvOWNgVe/ghD4lIRieegcp4BUAjIiIICIi4gsANADh4eHEx8erz+Wnv78/iYmJpKamqqyDZBTk3HFxccqKgL7CLwl46jijegBRFrWeNnQ4HF4NaiaTibi4ODXZxVrp6upS5r8cJyjlAQEBREdHK3/f6XSqCW+z2VRTmnzv8OHD2Gw2Jk6ciMfjUQpUlKXT6VTnFeUTHBzMmDFjePXVV6mrq1PPLbGQVatWMW7cOBUs1svhTSYTaWlpyoIR5SfS3d3N0KFDVcxLrq13R8v3AgICSEpKIikpSX1fGvJkovf29hIZGUl0dLRSPmKhiNKKi4tT5e7iqsXHx9PT06MygXrqekD+PeSMeCI68ZEseL3tXX56PH0UjIGBgUoBiDluGH0o5LLjy4KXjll1I36nCKaDgoLUhBbqQFmYPT09CotCMkKyE0qPj+y2/v7+OBwOenp6VORfak90hSGdvNJtLEFdq9VKaGioF7aFKCghWZbP9dRkSEiIVxZF4gg2m43p06erqlKJz7jdbvXMPT096rxBQUGq7qOhoUF10NpsNl544QXq6upYvHgxQ4YMAfqyaMJPIh25Mv7ybkTpSuZNYkg6Rw6cosYQxSPnE5dR/mY2m73Ir9rb29W8aGtrA/Cih5D37ufnp1w1gQeQruGzBW4akG+HBMCZEdj17ImIHmTVTX04RV9gMplUVkaUhR4s07ljZSeTOIjefi/NWJJq1Ckf9fvSsSakwEoyMPp96tCBgKomlQIqOVZXAvrYiMsmi1P+5oshKotVFs+gQYOYN28eEydOVGOkUz3IefSOV4/HQ0pKCkuXLqWrq0vVyAiMwQ033MB1112nMjgST5H7l3uV8fd1l+Q4eccyrr7v1nfT8J0z+vsNDw9Xf4+MjPSaF77vXZSWznfke52vKmfjCvXnsg/Iucu3AuFEbyb7pq7f32e6Yvqy4/v7viwSi8XCxRdfzIQJExgxYsRZm+oBAQGMHDmSW2+9VTHDA8THx/Pwww9jGIYKXEta1jfV/s/I6Z6zv5iZ/vOfPf+A/HvJN65Evo0KpL+/fdV7lGCyWDeDBw8mMzPT63xnEoFgCAgIYOzYsSpG4XK5sFqtqsvXbrcTEhKiApi6lXYm6e9ZzmYX1z/XFe3pznM21//fevenSxIMyL9WvhYGvDN939cd0n3yM8mXTYZzvb9zsTr6Ez3orKeeJf7xZSJmvwSdJXYhSkmUhh4/EVfwq8Dona0y0d2X0ymP052vP+lvgX+dG0l/9z9gGZ2b/K9ZImf7QvqzRP4drJKzEQk2SnCyv8rer3JfOmG4nDM8PFzV78i96VmY08npLKv+XJP+YmanW4TftoWoP6fvM33b7vXfVb5xdwbOzaX5V06Ar3Kus1UgkjKVnxLo1NOpZ5L+aDXEKhFXSQLIOon42cpXsRi+TImI8vim3l9/cjrlof/f1/odUCznJt8KJQLfPuvjTBPqq0w2PT1uMplUE9+XiWSHfBHj5Dx6LYVvZuhcLB7fXfrLnul03/82LcIzxUR8lcy36b7/3eRbo0S+jeI7uc6UCveVgIAA1Yeip4W/ygL3VQrS0axPfikGk2P/VdmZ02Ws9JjV6YKqZ4qZnOn8X7cMKI9/jfxTXLw6q/uZCoR0DAnfY3UkdzlW3y10s16qHOVvuvgucN9zyk+hfTjdLiUFbsAXrq0vZr2qU6wN3wUkrocUap1pnMU96W/cxH3R2/vl/sxms4ImkPsVLh1A9QLJ+fSx18dX7k2KvwSmUOo3pF5EytZNJpOitZB6E1Fw8p7kd13x6P+Xe9XvSb933/eqv3/feaOPmW98TX82UbTyrvR7+lcwM/5flHO2RPQyaskc6ItI52rVMwp6BaT0xHR3d6sF5xsr0Pt19L/p19ELomQS+tJdAF9wDfSsiSgGfTfX3Q6dbKm7u1tVmAKKK1cv7hJXRKpSxf2Q+5ZiNBHfknT5jpSQ9xcs1S0QKeyTZ/N1dfRnEOtFHxsd2lH4bkSJHD16lC1btjBo0CCmT59Od3c3J06cID8/n8zMTMaNG6fGRhSOjvsCp/qdpO9IxlyuL53L8pm0OujPLeeSLt/+MlGCGStjoG9KulUXEBBAV1cX+/fvp7y8nPHjx5OVlaXO+6+st/n/Xc5ZicjLdTgcXmhaMqn7CxzqC1GfENLroSsAmZD6cXJ++Y5+ThEJXgJeQU09mOl0OgkKCup3YerK0PeZZFf29/envb2dzs5ORcxktVoVkVZqaqpSnJKWlR1PFr5cW0cek+tJa4BcWxadkF/pDIKyaOV55VwBAQEKLEl4cXTlKApDHzddZIw7Ozt55ZVXWLt2Lddddx3Tpk3DbDZz5MgRXnzxRYYPH056ejpxcXFem4rUuci5dWtDEN30TUXaFPQx09+3bwZKxk2Os9lsBAUFKchFgZHwnR9yPsEHfvbZZyktLeXhhx9m+PDh/Y7FgJxZvhRP5HSis9br5qNOa6n3YugLR/pD5P9yjG5t6AtYp3mURaxTDPq6MmJNSD+IHC8SFBSkKjzhlMmvK0OZ9LLb6WXwAmL88ssvc/z4ceUmeDwexZ0iJFTStKYvAl25iQWmK1HpG5JnkO8J0r7090jDHZwiANdrUGTn91U28nyyOHULpLe3F7fbrapjt27dyssvv8yQIUOYO3euGrOcnBza29vZu3cv7e3tqnJWdn5dkfv5+SlLSVdmcm2TyeSF7i7vTNwMXxdQMFN0WlaTycSWLVv4xz/+wZgxY7jqqquwWCxeikfOJXOoq6uLnTt3AqimUHnnA4rk7OWcR0piC2JFSEenbpKK2Swv2ePxKMtF39V1v11MWcMwFG2jmPPyN+kk1t0mX6Y1OadMQL0pTa4jIiXluuLS+0jkGfSGtG3btvHqq69y5MgR9XlYWBhNTU289NJL/PSnP+XPf/4z9fX1qhlRF+Es9lV+upkvNJOysGW8dfdRfgrdJaAoS3V6UD1G0tnZ6RVj0Repv7+/UiDHjx/n9ddfx263c9tttzF+/HigbxEPHjyYlJQUhYsrzyFuiVgEeqOi3W5XWLxyLbfb7cURrLuiOpqefEc2FNkU7Ha7+t6rr77KH/7wB44dO4bVavVq4tRjKOLmtLW10dbWxvjx4xVI9IAC+epyzu5MSEiI4imZM2eO4hiRnUFcBsDLB5ZFGBwcjGH08erqboveuKYrBTjVLSy/+zaZ6YpIj0GIiJkscRCHw6EKt3RrRXdz5PpOp1MtVjGF3W433/ve9/j+97+vqkePHj3Ku+++y4svvsjzzz9PQEAAd955J3Fxcco10SkvfPFcZXcNDAxUHL8SNxLLQ19k8lxy/9KlLCIQCLoyFQtItxJF6QpEQk9PDx999BEbN25kxowZXHDBBTgcDmUBCP5qS0sLVVVV2O12rFarotOU96tbi7qlJ+9J3p1vY6Xu+smxEpQPCgpS5f6hoaHKYjv//POJi4tj1qxZ6lh9ExARxXrkyBHa2toYNGiQFwzBgHw1OWcl4nK5WL58OR9//DFJSUlkZmbS09NHrB0cHKw6VMvKyoiMjCQuLo7W1lacTidut5uwsDAiIiLUhG9tbaW1tZWgoCASEhK8diFZwLL4enp6qK6uVgsqLCyM0NBQrw7RhoYGOjs7GTx4sNodZdE0NDTgdDoJDw9X4DrQtxiFUNxut+PxeIiPj8dqtXq5CZ2dndTX1xMbG0tubq5CKTcMg8TERL7zne/gdrv5wx/+wFtvvcXChQuJi4tTlpEs+qamJpVh8Xg8hIeHe3X0Qh8vTlRUFPHx8cr9EGvu+PHjBAcHk5CQoM5psVhwOBw0Njaq5zOZTNTW1uJ0OsnMzMThcNDZ2al2/ejoaCwWixcwUXNzM++88w7d3d1cdtllCjhblJW/v7/inBEsFVEaYoXU1dWRlpamQLaFa7mnp4+z2c/PD4vFosjXQ0NDiY2NpbOzU3UD22w2urq6VEA2ICCA+Ph4QkJCvBZ9QEAAM2bM4JprrlEtALpCaG1tpa2tDbPZTEREBO3t7ZSXl2OxWMjIyABOKTUdvGpAvlzOWYns37+f48ePq8kvVkFISIhaCJ9//jmrVq1iypQppKen88Ybb1BfX4+fnx9ZWVlce+21ZGdn8/HHH7N69WpOnjxJUlISKSkp3HvvvYqWURaww+Fgy5YtbNy4kRMnTqjdaMKECcyZM4cRI0bQ09NHKfnMM88QGhrKHXfcoTh0XS4X7e3tvPHGGxw+fJiFCxcqdPOOjg5KS0vZsmULn376qXKXxo8fz9y5cxk+fDhhYWHY7XYOHTrEkSNHSE5OJjs7+wvpQqvVyoUXXsiqVatoa2tTysJk6uvoraqq4sMPP2TPnj3U19cTGBhIfHw8M2bMYNasWURHRwNw7NgxnnrqKQYPHsxtt91GTEyMAj9+8803+eijj5gxYwZLliwB+iyKxsZGXnnlFY4ePcrixYu54IILqK2t5aWXXsIwDC655BKKi4tZv369ghqYPn26Il2HPgvpk08+YefOnYwfP54pU6Z4le/rAVO3261cLbEEy8vLefbZZ7FarfzoRz8iJSWFlStXsnfvXm666SYFfC1xmS1btrBu3Tpyc3O58cYbiYiIwOPxUFVVxfvvv09+fr5KJ0uGaO7cuV7Wa1FREc8++yzjxo3j5ptv9gq47t+/nw0bNrB//35CQkLIzMxkxIgRCppREOz6y8oNyJfLaZWINHjp6FUSV5Du0fLycsaOHcuECROUaS5IZBaLhR07drB27Vp2795NV1cX4eHheDwempqaWLNmjQLZ2bx5M1arlcjISFauXElYWBhxcXHceeedCvrQZDLx1FNPKUb5nJwc4uLiOHToEGvWrGH//v08/vjjpKWl0dLSwsaNG2lpaeHqq69WSsRkMlFeXs7zzz9Pd3c3N998M3a7nYiICD766CP+9Kc/0d7eTmJiIiEhITQ0NPD8889TXFzMAw88wHe+8x1CQkIoLy/n+PHjLFiwQO2ocCrY3Nvby5AhQ0hMTKSoqAiPx4PNZiM8PJyNGzfy17/+lc8++4yEhARSUlJoaWnh7bffZvPmzdhsNq699lpCQkJoaWlh1apVfOc73+F73/ueGveOjg5+8YtfUFNTQ0tLC0uWLMHlcql7e/rppwkJCVHfaW1t5YUXXsBk6kOxP3HiBNAXeH3nnXfYvn07FouFK664AuijUP30009paGjgwgsvJD09/QvBTQGWCgoKUhmqkJAQXC4XmzZtYu3atYSFhfH973+fwMBAiouL+fvf/87UqVOZMmWKokj18/Nj5cqVvP322/z0pz9VCmTz5s08/fTT7Nq1i+TkZAYNGoTNZuOZZ55hy5YtNDU1cdttt6m5WVxczIoVKwgLCyM4OFi5t1u2bOFXv/oVx44dU/ShBQUFdHd309LSwvjx48nLyxsoPPsn5LQRJPFB/f39FZqZvDAxWTs6Ohg2bJiKgVgsFlUzYbfbqa2tpbGxkfz8fBISEnjwwQd57733uP322wkKCmLVqlW88cYbTJ48mf/8z//kueeeY/HixdjtdrZu3eqV5v3d737Hr3/9a3p6enjiiSdYt24dL7zwAj//+c/Jzc1lzZo1fPDBB/j7+xMXF6fQxsvKytRO6XQ62bp1K9XV1UyfPp1Ro0YRERHBunXreOKJJ2hvb+cnP/kJK1euZPXq1fzsZz8jNDSUTz75hCNHjgCnoAntdjtRUVHKaoBTxVQS15DAaW9vL+Hh4Rw9epTnnnuOdevWccEFF/DEE0+wcuVKnnvuOf7jP/6DsrIyfv/731NeXk5PTw+JiYkEBgZSU1PjhSO7fv16ampqMJvN1NTU4Ha7CQkJweFwsGnTJpqampg8ebIKFjY1NeF2u2lqaqKsrIz58+ezYsUKnnnmGa688koOHz7M7t27sdvtQB9ZWElJCYMHD1bo95KlEpdKjuvo6CAqKgqn06mslREjRrBs2TIeffRRUlNTcbvdZGVlERgYSGlpKS6XC5fLRXBwMAcPHqSgoEABgAMUFBTw9NNPs3HjRhYtWsTLL7/MSy+9xOOPP84dd9xBYWEhb731FjU1NZhMJlpaWti7dy9RUVEMGTJEuVYlJSX84he/oKioiHvvvZe//vWvLF++nMcee4yEhAQ6OzuJj48nOTn5nAsuB+RLaDQlu2Kz2Vi9ejV79uxRAbCCggJaW1vZtm0bjz32mMqoXHjhhSxYsADDMKioqMDpdDJjxgxlloeHhzN+/HjCwsKorq7mtttu45FHHiE1NRXoY3qT68qLraqq4tVXXyU0NJQHH3yQyy+/XMVSLr/8co4dO8ajjz5KRUUF0JcKzcvLY9u2bVRXVyvfuLW1lU8++YSQkBDmzZtHaGgo9fX1rFy5koqKCn70ox9x9dVX093dTX5+Plu3bqW+vp4hQ4YwePBgoM9l6OjoAGDEiBGKt0asL5mIBw4coK6ujuTkZGJjY5UL8uGHHzJt2jR+97vfER8fr+AFb7jhBp577jlaWlpwOBwqCG02m2ltbaWrqwuPp48X+ZVXXiEpKYnW1lZaWlqUm9HQ0MDmzZuJjIzktttuIzQ0lPb2dkpKSmhrayMpKYnbbruNpUuXEhAQQGtrKykpKSpIKq7SoUOHKCgo4LzzzmPEiBHAqbS57NhCZRoTE8OgQYMU/1BAQAAzZ85U3MGyGeXl5WGxWCguLvYKdG7dupWysjIvoq93332XDz/8kOuuu45f/vKXxMbGKpzXmJgYXnrpJUpKSqivr1expp07dxIQEKAoS1taWli+fDn79+/nlltuYdmyZYpga8aMGezcuZN9+/aRkpLyhboiPSkwIF8uZ4yJSGyjrq6O3bt38+677ypLpL6+npCQEMWGJzgZEydOxGQy0d7eTmlpKQkJCYrkW9J5tbW1uFwuhg0bxn333UdqaipdXV1KYXR3d5Obm6tSre+88w6HDx/m8ssv5+qrr1Y7vdRLCIWjZDHCwsJITk7GbrdTVFSkCpl27drFtm3bmDFjBhdffDE9PT3s2bOHwsJCenp62L59O7fffju1tbV0dXXR3NzM5MmTufXWWxk1ahROp5OysjIOHDigXBEZJz2jY7PZOHToEM3NzUyYMIHU1FTq6up4//33cbvdPPDAA6SmpnpxCguwtcfj8SotT0tLo6SkRBGhf/TRRxw8eJCnnnqKFStW0NDQoFKnn3/+OTt37mT27NlMnjxZ3UtJSQkAU6dO5c4771SxhJMnT1JVVUVkZCSDBw9WOKxVVVW0t7eTnZ1NfHy8qiPRS/p37txJTU2NCkxLoFPeiSxYsSaFuLuyspKmpiYyMjI4evQob7/9NlFRUdxyyy24XC7Ky8tZt24dkZGR3H333SQmJqpx8fPzU/G36OhoQkJCFG5rSUkJERERCvipo6ODDz74gLS0NGbPnq3uT+puDKMPgFswbPUapQEF8tXktEpEMgAAqamp3HnnnVx66aWEhobS1NTEr371KwzD4KGHHiIuLo7u7m6io6PJzMzE4/GoIqQxY8YwfPhwlQKEvsBbc3OUjXWRAAAgAElEQVQzP/zhD8nIyMBms6liowMHDuDn58fkyZNVK/3777+Pn58feXl5dHV1qRqAsLAwTp48ybZt2wgMDGTkyJEqPRodHY3VauXw4cOqPuXNN9/E7XYrZjqXy0VFRQWVlZVkZGQQHh7OyZMnCQ0NZfz48QwaNIjzzjtPoYj19vbS0dFBfX09MTExxMTEqOCu3W7HMAysVit1dXUUFhYSHBysduRdu3ZRXV1NbGws6enpKn4kNQ8yXiNHjlQMeFFRUYwaNYqioiK6urqw2+289tprDBkyhCuvvJJPPvmEkpISjhw5Qnp6Om+++SaGYXDrrbeqhSCWRUJCApdddhkWi4WmpiZiY2NxOp2UlpYSFhZGWFiYevdVVVUEBgaSlZWlGOlEQctCq6iooK6ujrFjxyoEd4mhCeWqpHWhb2HGxcVRWlpKXV0dGRkZrF+/nj179nDnnXeSmppKQECAIifPy8sjMzNT1QRJnVF+fj4Wi0URqpvNZioqKmhpaWHChAmMHj1aPfORI0eYOXMmubm5SsnbbDbq6+vJz88nMTGRSZMmqc1yIC5ybnJaJaKTVpnNZkaNGkVeXh4An3/+OWazmcTERGbOnKkmEZzqjzl48KDazaxWK1arFcMwaG5upqysDEDxqIgCqa6uVoTXw4cPVy7ViRMn8Pf35/zzzyc8PFxRDAQFBXHo0CE2b96sCJCE6iEpKYnY2Fi1g7/zzju8//77XHPNNVx44YWqAKupqQmXy8UVV1yh3DKpqJXn6u7uVlw0x44do76+nvPPP5/s7GxViSk1EEKOvWHDBqZOncrll1+OxWKhtLQUh8NBdnY2UVFRXhmO7u5uPv74Y0JDQ5kxYwaRkZEq05WYmIjH08fPsn79evLz8/mv//ovwsPDVW1KWVkZDQ0NrF+/nmuvvZZZs2Yp18Nms1FVVYXVauWiiy4CIDY2lu7ubqqqqqisrGTq1KmkpaVhGAZ2u53GxkasViuxsbFeMAN6s+GBAwdobW1l5MiRxMfHf6EMXZ8Pfn5+xMTEkJycTEFBAYGBgRQWFvLXv/6VjIwMRd8pHDc9PX3kYUIsLiRedrud5cuX4/F4GD16tLJ2Dh06BKCsKZvNptLMMTExKvsCfVbjjh07KC4uZtq0aaSmpnp1Qksa/myR4QbkDEpEB8CR/4s2Ly0tpbi4mAsuuMCLfEqIi4R3tqOjg7y8PKxWqzIl/f39OXjwIHFxcYooSgKxu3btwm63K+IjuaZM+rKyMi666CIcDgehoaGUlZXx3//939hsNlWLAWC1WklKSiIyMpLm5mbWr1/Pn/70J9LS0rjzzjsJDQ1V1zaZTEREROB2u1W2QbJBJ06cwGw2e/WFHDp0iM7OTkaMGEF4eLhXlWVtbS0rV67khRdeIDY2luuuu47Ro0cDqAY9l8ulWPkkIP3ZZ5+xfPlygoKCmDlzpqo07e3tJTY2Fo/Hw549e9i3bx+jRo1i0aJFWCwWUlJSsFgsfP755xw7doy4uDhuvvlmtQA6OzuprKzEZrORmZlJbGysqrUIDAxUMauhQ4cqEnFJpQYHB3s19ekp3iNHjrBjxw4iIyOZOnWqokOVniLJRIWFhaky9+joaLKzswkICODAgQPk5+dTW1vLgw8+yPDhw1U8Rs7jdDo5duwYycnJisJjw4YNbNiwgfT0dBYtWoS/vz9tbW3s3LmTsLAwVRMEKOoSyQDKZ7t27eKpp56iq6uLxMREVeci9TQD1apfXU6rRGRX0KsrJUNTVlZGQEAAUVFR6u9ut1u5K62trZSVlREfH09mZqYXj0xxcTENDQ2q7kI4WETxtLe3M3PmTK/iKmGYX758OVFRUUycOJFNmzaxevVqVq9ezcSJE7n33nuJiIhQFkpycjJZWVkcPnyY//qv/6KwsJDHHnuM8847T01Wi8VCTEwMXV1d/OMf/2DKlCkMGzYMwzAoLCxk+/btTJgwgSVLluBwOHA4HDQ1NeHn54fVaqW+vh6z2UxTUxMHDx5k7dq1bNu2jaioKJYuXcrVV18N9C3AvLw8IiMj2bdvH6+++irf/e53sVgsfPzxx7z77rt0dXVx9913q2pLqSpNTU2lp6eHrVu3cuDAAf7zP/+T1NRU7HY76enpdHR08I9//IPq6moefPBBZs2aBaCsguLiYmpra5k3b56qU+nu7ubkyZOUl5cDEBUVpYq7dCIpPTagV8Xu3buXiooKcnNzycrKUse0tbXxxz/+kcLCQr73ve8xf/58L8qOIUOGEBQUxEsvvcShQ4eYN28eN954oyoks1gsREdHExERwbZt23j77bc577zzsFqtvP3226xcuZLY2FiWLFnC1KlTgb7Yh5CCZ2dnExgYSEBAgLqvvXv3snnzZrKzs9m8eTNr1qxRRXoZGRlepPIydwZK37+anJZ3RgifZCGLVSKugnDmyq4tjXJ+fn4cP36c1tZWhgwZQlRUlFcjnLgmI0aMUOxxsssdOXKE4OBg5s+fr3zggIAA7rnnHrq6uti0aROPPvoomZmZtLW1cfToUebOncuDDz5Ibm4ugLrnwMBAcnJyWLt2LSUlJdx8883cdNNNwKmy5+DgYGbOnMkNN9zAunXruPfee1UqsqKigsjISMaOHUtHRwfh4eEUFRVRUVGBYRi8/fbb5OfnqyxHfX09TqeTadOmcdVVV7Fw4UIiIyPVmAwbNow77riDF154gZdffpmNGzeq75pMJu666y6WLl2KxWKho6NDuXiyoxcWFjJx4kQWL16sqndjY2MJCgqivLychQsXsnTpUq+GNLvdTmlpKdHR0Zx33nleXcI2m43Dhw+TlpbG0KFDgb6NIjQ0FH9/f0XFKTEbcWuamprYvn07DQ0N/OxnP1PjDlBZWclrr71GeXk5l156qYqNSEYvKSmJ+Ph4du7cybhx47j//vsVQ6EokqysLO69916ef/55nnrqKTIyMrBarYrHeNmyZUo5d3d3K9clLi6O6dOnq3mTnp7OkiVLWL16Nf/xH/9BeHg4XV1dpKSkMHv2bA4dOqQ2DCmPDwoKGqhWPQc5o+MntQHS9+LxeAgLC2PWrFlceOGFDBs2TPn0esWmn58fixcvVlkSOIXlkJiYyMUXX8zFF19MZGSkV+R93rx5xMfHM3HiROWfms1mJkyYwL333suECROorKyksbGRoUOHcvPNNzNv3jwGDRqk+mCEsc7f35+pU6fyk5/8hLi4OCZPnkxUVBRwqpAOIDMzk3vuuYfRo0dTWFhIZ2cnhmGoKtu5c+cqMOSoqCgWLlxIbm6uyiY5nU6SkpK49NJLycrKYsSIEap4CVA+flhYGLfccgsZGRns2bOHmpoaAgMDSU1NZeLEiYwdO1Zle8LDw1VJd0ZGBnfffTf+/v5kZWWpY0wmE3l5eTz00EMYhsHYsWOJj49X4yw1JRdccAFxcXGMHz/eC0/DZDIxd+5cZsyYoXZ1iQVI1qOtrc0LEMlisbBt2za2bt3KlClTGDt2rIqBuFwuoqKiWLJkCZ2dnYwePVrF1WRXF0VaX1/PhRdeSG5urvq+lMBbLBauvfZaUlJSKCgooLa2VlUAT506lYkTJ6pYiMlkIjw8nNtvv10VmUkmafDgwdx3330MHTqUwsJCAgMDOf/885kyZQoNDQ1s3bqVUaNGeXUUD8i5ickwDOODDz5g5cqV/P3vf/9C05TeVSmZCDjVACfpU70YzWazqdb0yMhIFfcQS6axsVH1PwjwjdlsVoTPgwYN8mpKk+i5dPUKnaPee9Nfbr+lpUUpOL3VW4Jnenu+y+VSxVaiECULJF20gq/hdDpVpap8R2I80vglC1LH+pBrtbS0qOeRFLXcgwAeCeSAuFD+/v5ERkYSEhKizuV2uxUhtvQb6SJl/i6Xi8TERK9gYU9PD83NzQQEBChrwOVy4XA4+OlPf8q6det49tlnWbx4sbpeV1cX99xzD2+++SY///nPueuuuxTLnWweHR0dKs4kwV15lx6Ph7a2Nux2O4MGDVJjLe9IGvskK2e32xVuSlBQkHKX9XnY0dFBZ2enGkfZ7CTALwFW2QxDQ0Pp6OhQdTN6r5Kewv42ZGlkPUnj5r8dobcsJH0w9Ui9LyYGnFrIoaGhio9Wvie/S6ZG3YDW/6ATPrtcLhVglPsRl0q6W+FU67koEN2fFaZ56c6V3V3v/pXPxdLQj5P70tvjpUJVr4fQr6l3HusdtDoIj5xDXECJgehNcDKZg4ODVdk+nMI5kXGVOgq9C1kf99PhZAQGBqrsh9yDxWLBbDaTlZVFV1cXx48f98JdWb16NR9//DHTp09n4cKFirxb3k1AQIByUeFUHE2ex2w2qyCsXFd/r/IdmVdhYWFqM/N4POq9yOYjgEs6daecV08ty/llUwoPD//Cd/R5Jvc1IGcnp40e6RNSfteRyWQx6mag3jUpL1+fSNKHo+NkygLTF7Uwx8nOIC9fsgomk4nOzk51Tb2lXAcfkt9lQkgaT+5Zdkez2exlxQg0oMSD9MCbuF96ClxK3PVr613HvhCHOjatuB76s8rOrAMj6dgjslPLdWR8dYAo34WgA0Tp96A/s4zVsGHDSE1N5fjx45w8eRLoi3e8+eabBAYGcsstt6g4ig6eJOfVMVt0haajtYmFIseJ6C6JDiIk1bt2u12Nj9y3L/as4Nv4PrvAQ+jjL+/X990NyNnLaS0R/QX7AsLokIWiZPSJBKc6IX0tBplYMlF8cUHEjNcXr35ePcYAp4CffS0MHVhIzuPbpalPXlmoYv3oHasSfPPFpZBz68pTB1yWc+mTUp7P97nkmP4gG3VF4+uy6OOrW246jILsxvpxvniz+ljm5eVx6623EhERoYrNurq6GD16NAsXLuT8889XKXLf+5EFL/cs55X7160mCXDLuOqtAwIFqVtqUjujix6TEzwb/T354oPI+Ov3J2Pcn/U9IF8uXxpY1Relbkrr8IZyrJ6h0RG3AKVAAC8TWRSTfh0926O/UElRSm2KTEiZDHomydc8FZHr6EpNvtsfY70oIl1xSom/vpv2B2gkcY/+Cpf0GI6vcpax1WMEvu+lP+zQ/ioufRe5LxCQPvaiPDMzM7nxxhvp7e0lKioKl8tFcnIyd911F8nJyeq5JXsj1xfXT84lomc8fP+uU2qIpagrZnFF9PP5ggfpsSdRxvoxgoQvcSx9/vmOk/5OB+Ts5IxKRPcx9R1UUqj97fLywvsL8smkk3JvPZ4i59UtE1/logdE9apC3VKAUzieslB08Gf5u07+JPetZy7ETJadSY4VZK3+FqyvQgG+gMQmu7GkovXslzyLXFvgA2XcfM1/fXHqi0JH9NLLvaXITneBfF1KgVUUbFi596ioKKKiopSikGvrxWtyDvmbjJHvohRXTJS4XhejWyoyNvqm4u/vr1wj340H8LJARIH7KgzZhPS5or+7AUvkq8kZlUh/Zr/+//4G+3QvwDfd15+29w146r+fqRTZ92++u54vnGB/u6XvtfTj9M9kEfoWJOkxJH2R9nd+UWy6JSTZDX0RwqkYgX493drTr+nrrolF4/F4CA0N/ULgFU5lvvRArv48gFL6+rXEwtMDwaI49GNkzPTr6spfntt3zMU1gVNWha97JJubHpTVFfCZoA77c5V9x2ZAzk4GGgTOUWTBiPSnxM4koozEgtLdJd1t1Ce7ng6XlgDdbZPv+yoxX8UkmSU49yDimXbrs9nJxaIRS8nXHdM3Bl/LS3c9dOtFZKBY7OuVAbX7T4jOyCa1CRKcPBuRhaIvZInNyGLx8/NTmSjZsX2zTvr1fN0CgRuQTBCg3LH+FIgeXDzTvzN952zE123wzcjIs4B3vEJ++sbofAOlA/L1yYAS+SdEj+no5d1nM5l1d0FPD4sl4XQ6cblcuN1uVQIvqUk9EyYFar7nFl9fzxQJEPXpFrpvEPtcFMrZih6/kjqd/sZGT9Xqn/kqU4m9DKRnv34ZUCLnKFK3cbpM0peJPuH12IieshSwI8HykGxOc3OzVzxEb4LUu4rhVNxBjvV4PKqO4+sWsSB8A9r9pcFFxG3sL4gsvS66G6QroAH5emQgJnKOIl3J4O1WnC4tezrRg4T64tfZ7fQCqcDAQGJiYtS1+0tvy/laW1u9Kkg9Ho+qs+hvx+4v4/S/LaIsRVHoaXU9yyeZOemRcjgcistHz3wNZFa+fhlQIv+ECB6JTpMBX4z49yd6XwR4V5BWVFSwf/9+PvvsM06ePEleXh7f//738fPzUzUqeqZCAqcSpKyqquL1118nJiaGK664guDgYNrb2/nggw8AuPjii1VjpK8y+bp6R+RZ5L6ltkcPrPqSxhuGwaZNmzh8+DDDhw9nwYIFXgHugRqPb0YGRvwcpbm5mcrKSqqqqujq6gJQDYJnI2JJyPFSRNfR0cGKFSv48Y9/zPr169m1axdvvfUW5eXlmEwm1XckO7Be5Obn50dbWxubN2/ml7/8JZ9++ind3d2q1+iVV17hscceUzgicHplobseZ/p3LiLf6+joUIwALpfrC0Vl4oaJNDY28tZbb/Hwww+za9cuZZ34KiDf7w3I/658qRLpb7LofrYe9Ycv9mTAKQY7Ed/shWQPfK/j6797PJ4vcNr6Hq8H4uR8+jl8e1xOd+++E1Hf7UwmE7t372bZsmX8/e9/V9y20sAm960XNInofSW9vb1elJeGYbB582b+8pe/4HQ6+e1vf8trr73Gb37zG5KTk1VXrywe6e+Re/d4PJSWlvLcc8+Rnp7Ogw8+SEJCAm63m+joaC6++GLa2tqora0F+vhlJP4iz6X/0yEe5Bnkd5PJpIjMAdUtK8+rP7OgjOkE3YZhsGXLFh566CFefPFFWlpagFOBVGHJk88kk1VcXIzZbFbgTfp3ZBwGsjRfr5xWiciCkpcuE0avFrXb7WoHkZZ4/buyYHQGO/DO48tuqne+AorYyGKxKLNXSq0leyFxAD3IKJWKepOWb5+ILGC5hmCqikvS1dWlUq9Sm6EvNID8/Hx27txJS0uLV72DuCnSA6LHSXTwa8nsCH4r9C2cgwcPUldXxw9+8APmz5/P5MmTmTt3LjExMYrZb8+ePXR1dWGxWLyUUGtrKytWrGDv3r1cf/31pKen4+/fR60ZFBREVFQUNpuNwsJCent7FcOgZHPkWfX6FVGGemm5vB95l8L6J+9Y4jKSApf3LxzLkg7fv38/7733HlVVVcTExOB0OhVurMlkUu9dqottNhvNzc0kJCQwePDgL1Si6vN1QL4+Oa3z7tsXo/ejyMLYsGEDBQUFLFq0iOzsbK/vibVisViw2WxKAejdpL4VqiaTSU0Mf39/hRsh6Un5rpSNi8iEFf9aL5XWLRz9GURp6X0UokisVqsqE5fdX4iqZec/fvw4drudpKQk1VYuXb4C2izVmKJYZMGLMpH4ht7du337dkXkFBoaqnBZuru7ee+993j44YdZtmwZU6dOVYtfnrG8vJwNGzYwfPhwbr/9dsU4KNcJDw/H39+f5uZmxUgorfd6mb8+PjJmonDl+UQkZSybil6Nq5OL641x4oJcddVVpKamMnr0aJW21rFnZI5AH17snj17aGlpYcSIEYqnSBTc6XqHBuR/X84I1Aynov6+HazV1dW8/fbbrF27ljFjxiheGdkJAgICCA4OZt++fSQnJ5OQkEB1dTVNTU309vaSkpKi+FbcbjfV1dWKZDozM1Ohf4vI7hQQEEBTU5PiugkODiYlJYWYmBivyV5RUYHdbicvL8+rdd5kMikGu5ycHIU5KsqnsrKS5uZmbDYbCQkJhIaGKvwPKb9uaGigrq6O+Ph4Ro0a5ZVy1Meuu7tbUUueOHFCnTc9PZ3IyEhV/+FwOCgsLKS2tpaqqiqgT0k5HA5iY2Px8+uDnPzkk08wm83YbDbKyspoa2tj+PDhhIaG0tLSwhtvvEF5eTmPPvqoV++LZHwkNtLS0oLT6VSWiGH0MQXabDaGDRumYBvLy8tJTk5WFo0okI6ODurq6vD37yP11rE5LBYLFRUVdHR00NPTQ1RUFJGRkURHR6tuYMEeiYiIYP78+WRkZHi5VdDHiVNfX4/D4SA8PJysrCyKi4vx8/MjIyNDKXSZm/Ju5T4GlMnXJ2dkwNNFb46T3ayqqorU1FQFmiO7iex+Bw4c4MEHH+Sqq64iKiqKt956i97eXhoaGkhPT+f+++8nMzOTVatWsW7dOmw2G4bRB024ZMkSRo4cSW9vr+KZra2t5cMPP+TDDz+kpaVFTaTMzEwWLVrEnDlz8PPz49ixY/z85z/HarXy29/+1gu4p66ujldeeYX8/HzuvvtuFixYgMVioaGhgf379/Paa6/R1taGx+Ohvb2doUOHcu211zJx4kSVHj148CBVVVVeZNB6JsFk6oNNDAkJobS0lDVr1rB9+3Y6OjqUaT59+nRuueUWUlJSqKqq4o9//CP79u3jxIkTmEwmHnroIUJCQli0aBEul4sPPviATz/9FMMw2LZtGzfddBNRUVH88pe/ZPz48dTW1rJ+/XrS09MVB69uZemuqN6L0tvbyyeffMLzzz+P2Wzm/vvvZ8yYMWzevJmXX36ZOXPmcPvtt3sp9W3btvHnP/+ZxMRE7r//foKCguju7qayspJVq1axc+dObDab2lDmzJnDNddcw9ChQwkJCcHf35/jx4+rmM3DDz9MXFycwnX97LPP+POf/0xTUxM9PT2EhIRw6aWXsn37djweD/PmzVNWmN6Ho1vKA5QPX5+c0RKR2Ibe/CTS1dXFsWPHuOiii8jJyVEvTtwYs9nM1q1b2b59u2JZEy6YmpoaVq9eTWhoqKJAHDx4MJMmTeLNN98kPz+f2NhYhg4dSm9vH0NcTU0Njz32GO+99x4hISGMGzcOi8XC4cOHWbFihdo1R44cid1uZ+/evdhsNm677TZiYmKUGb1//36WL1+u2NKCgoJwOBysWLGCFStWEB4erugxi4qKWLduHcePH1dI8dCXghXuGcH7BLx20+DgYEpKSnjssccoLS0lMTFR4YOuWLGCgoIC/Pz8eOihhxSxk8Rj5syZQ1ZWFiaTieTkZDo6OrBYLArJfM6cOTidTsLDw4mNjcXhcLB161bKy8tZvHixQofT059CieHv709oaKhX0LmkpIS9e/eSmZmpXJrW1la2bt1KaGgoV111lXpOh8NBfn4+77zzDrfddhtRUVGYzWby8/N58cUX2bZtG4mJiYpEauPGjTz77LNUVVXxm9/8RtFsVFZW8t///d8sXLhQbTxms5n333+fX//61xQVFTF58mQyMzPZvXs3zz33HBUVFXg8HsWfI3EaXyiFgcDq1ytntER0bd7e3k5DQ4MKlElwT/hsJfCZmJhIREQELpeLvXv3EhgYSGNjI+PHj+f+++8nJiaGbdu2cffddys2t+uvv54rrriCxMREHA4Hq1atYs+ePdjtdiIjI+nu7uZ3v/sdL730ErNnz+ahhx5i9OjRBAQEsG/fPh555BF27NjBJ598osiUpk2bxrp166isrOT8888H+hZSfn4+TU1NLFy4kLFjx+J0Olm5ciUvvvgigwYN4ve//z25ubn4+/vzwQcfUFxcTElJCY2NjSrrUl1dTXt7O+np6co60RvoJD7w5JNPsmHDBu677z5uvPFGEhIS6OrqIiQkRBFNO51OUlJSeOCBBzCbzRw/fpyrr76aefPmERERgdVqxeFw0Nrayo4dOxgyZAi//e1vVZ9OTEwM9fX1bNq0iYiICC677DLF7qd3W0tsSmhAJKsWEhLCBRdcoKAWs7Ky6O3tJTc3l4yMDDo6OlSwG6C4uJh9+/YRExPDd7/7XaKjoykqKuLJJ5/kww8/5K677uKuu+5i0KBB9PT08N5773HPPfewceNG7rnnHkXLuWXLFgC+853vEBkZib+/PydPnuSZZ55hx44dPPLII1x//fXk5OSwZcsWVq5cSWlpKWlpacTExHjF0nzrQwZcma9XTqtEdPO8tLSUtWvXsmHDBjo7O0lISKC8vJyOjg42b96s/POwsDCWLVvGRRddpHYzu93O4sWL+eUvf0lmZib+/v6Ul5cTExODw+Fg0aJFPPLII2o3SU9Pp729XWUUPB4PBQUFrF69mrS0NB599FEmTZoE9AVxp02bxuzZs/n8888V76740F1dXSrG4HQ6OXz4sLJyrr/+emw2G42NjXz00UccP36cO++8U12vvLyc1157jZqaGubOnUtKSopy14qLi/H392fo0KEqXiLBZ8kUvf7666xevZphw4YxduxYWltbKS0tZefOnbz11luEh4czefJkgoKC8PPzIzY2lgMHDuBwOBg1ahRJSUnKLRI8kdbWVnJycrBarV5t/s3NzezZs8eLi1bcGAlotre3K2UfFxenSLEAhg8fTk5OjlcwPTIykqioKI4fP05dXR1DhgwhICCAnTt38tlnn7Fw4ULy8vJwuVy8//777N69m+9+97s88MADCoQZ4IYbbuCJJ56grq6O/fv3K9bArVu3Eh0dTXR0NB0dHURFRfGnP/2JzZs3s2DBAn74wx8SExNDb28v06dPp6mpiZdffpmMjAwvhaFDKIA3xsqAfD1yRktEXojOFieBzbq6OoWwLV2mOnZFYWEh1dXV5OTk8KMf/YisrCxFRSmkzjNnzuSuu+7CbrcTEBCA2Wxmz549eDweJk6cqKybNWvWUFtby4033siECRNUJkGyL+KTCzer7NC9vb2UlZXhcrkwmUxs27aNnTt3cs011zBt2jTsdjvFxcXk5+cTEhLCunXreP/999UuHhQUxPXXX8/ixYvJyckB+tjfqqursVqtirlNoPykvd3lcvHpp5/S2dlJc3Mzjz/+uMpU1NfXEx8fz2WXXcbVV1+tsk319fXs3buXESNGEBsbq84pFs6mTZvw9/dn9uzZuFwur4zOiRMnOHnyJOPGjWPw4Lt0by0AACAASURBVMGANyi1sMBt27aNiIgIhg8fDuCVtZL/S31IREQEcXFxlJSUUFlZyQUXXEBtbS3vvfceFouFSy65hOTkZJqamtiwYQMOh4Mrr7ySjIwMlaqVbJlYPYMGDVJKtqKiAn9/f0aOHKmC62+++SbBwcHcdNNNXjzHbrebmpoazGYz48aNU13I/d37gAL5+uVL0d4BMjIyWLJkCVdeeSVWq5Wamhp+/OMfExUVxf33309OTo7qaUhLS6Onp4fDhw/T1dVFXl4ecXFx+Pn1obTLwna73cyaNYuYmBiVPRAKBLPZzMSJE5Ulsn//fiwWC2PGjPFKAXs8Hurq6tiwYQNhYWFMmTJFccqEhIQQExNDUVGRyhi8/vrrpKSksGTJEqBvFysrK6OxsZGJEycyY8YMtfjCwsKYNGkSOTk5ChW9t7eXw4cP09bWRnp6umqcE3wPWfCVlZWUl5fj5+fHxRdfTGxsLK2traSmpjJ06FCysrJITExUfS3+/v6K0nL06NFYrVYsFouqqWhtbVXjIlwv3d3d9PT04HK5OHnyJB6PR1F7CvSimPl+fn5UV1dTWlrqxXanK0uJLUjNi4yf3W6nubkZgI8//piioiJmzJjB9OnTMQyDEydO0NjYSEJCAunp6ZhMJi8SqA8++ACbzUZKSgo5OTmEhYVRWlpKZ2cnGRkZjBgxQgXDa2pqSElJUdaUn18f/UhQUBAbNmzAZDIxb948L2LxAfnm5awwVv38/BQXDKAm1eDBgxk/frxXk5dIQUEBTU1N5OTkEBUVpbpc29vbOXToEC6XizFjxig3xuPxUFJSQkVFBRaLhSFDhqhdpbKykqCgIDIyMoA+ukaJ8hcVFbF9+3aGDh2qArzCfhcWFkZbWxsdHR28/vrr7N27l5/+9KeqxsIwDGpra/F4PCxYsIAf//jH2Gw2PB6PShkD6rPw8HAaGxuprq5mwYIFxMbGqm5eqW+wWCw0NjbidrtJSEjg5ptvZsSIEbS3txMcHKxqN6R+RILQu3btorOzk9zcXAVCDX0W4dGjRzlx4gRWq5Vhw4YpJSGWWn19PT09PWRlZSkF09vbi81mU5QWJSUllJeXM3/+fMaPH+9V+wKnkMRk8UdGRirLwe12U1FRwd/+9jdMJhM33HADKSkpiqfG6XSSnJxMamqqghuQWpm1a9fS3NzMJZdcojiZ9+zZQ1tbGxMmTFAKTfh8YmJiSE1NVffn8Xj4y1/+QkFBAcHBwSQnJw/EPL5lctqKVT3/LpO+u7sbp9PJp59+ysGDBxVrvNPpVItJKhmrqqrweDzk5OR4ZTDa29vVjiMcJNKIduDAAZqamhg+fLjXThMaGkp7ezslJSU4HA4iIyMJDAwkPz+fZ555BpfLxXe/+12SkpKU9ZKVlUVsbCxOp5MXX3yRv/3tb0yZMkWlP6WqVArgTpw4QXd3N9HR0Uo5fPbZZxw7dozQ0FA12U+ePInD4WDkyJGqpiIwMFAVcgm4cU9PD52dnbS1tREUFERCQgIhISE0NTVRVFREbW2tFy7IgQMHCAgIULEQURA9PT0UFxdz8uRJkpKSFMeOzWZTVoNYFFJ3Ig1tUrfS1NTErl27gL5AplzDZDJx7NgxNm7cSEVFhaoFEkU8fPhwQkJCOHToEH/4wx84ePAg1157LdOnT1dWi8AunjhxgvLycvz9/bFarbS1tbF69WrWrFlDdHQ0ixcvVoWDBw4cIDg4mFGjRuF2u5UVZ7FYaG5uprm5meDgYOx2Oxs2bOCpp56ioaGBtLQ0LBbLgBXyLZMzujO+EhgYiNPpVNy0WVlZyiLQv1dbW8uxY8cICwtTQTZpGKuurub48eNMmjSJ8PBw5coEBgZSXFyMzWZj+vTpXi3ul1xyCUVFRfzxj3/EZrORnZ1NZWUlH330EYWFhVx//fXceuutXpiafn5+5OTksGfPHh577DHi4uL4wQ9+wLBhw4BTAMUjRowgLS2NVatWYTKZmDhxImazmYKCAgoKCrj88stZunQp0BdglsV++PBh1q5dC5yi5YyJiWHSpEkMGzaMUaNGqcxRfn4+2dnZuFwuPvvsM2pqavjjH/+oYgVOp5PCwkISExMZNGiQeg6pyZGMT11dHb///e8xmUyMGjWKmTNnquewWq1e3C6iJA2jj5z8gw8+IDs7m/nz5+PxeAgKCqKyspInnnhC9QHddNNNXvgdaWlpxMfHs27dOgBmzpypakZk4SclJTFy5EjWrVvHL37xC/bv309MTAw7d+5k3bp1WK1W7r33XqZOnariGGJ1jRkzRpG9x8XFkZubS0FBAU8//TSzZs1i9+7drF69Ws2FyZMnk5KSgs1m8yJAG5BvVs4qOyO7ojQ3jRo1ip/85CeMGzdOHW+z2QgODiYwMJDq6mr8/PwYM2aMV3myYRi0t7cTGhrK2LFjFdWiFEW5XC7i4+OZNGkSYWFhCmDnjjvuoL29nTVr1vD666+r4GVkZCT33nuv4m51Op0qEOzv78+YMWP46KOPCAkJ4ZZbbmHevHlevr+fnx9Tpkzh5ptv5vXXX2fNmjVs2rRJ9ZBkZmYSFham3Ae73Y7dbicoKIgdO3Yot0yUwYUXXkhiYiLZ2dnceOONdHR0UFRUxMsvv6zMc4vFwpQpUwgJCcHhcBAaGkpNTQ2VlZUMGTKE9PR0LxBmf39/Ro8ezbx589i7dy8vvvgiISEh/OpXvwJOVcfqwENimfj796HF79ixg7KyMm6++WamTZumFnNdXR1Hjx71KtyTeh8p0xdCc+EElk1BFnZUVBRLly5VTYkvvfSSck8zMzNZsmQJixcvVl3GLS0t9PT0kJ6ezogRI5S1lJKSwh133MFTTz3FZ599xubNm1VF6+jRo/nVr36lxkavcxmQb15Oq0T0lyRVlpJBmTNnDrNmzcJqtXr1WMjvERER3HDDDURHR5Oenu7lGqWmpnL33XczdepU5SLIzjtt2jQSExOVcpLCtbS0NB544AFmzJhBRUWFKifPzs7m/PPPJzQ01AuXwuVyqUDrfffdR3x8PDNnzlTmvt6hm5aWxt133815553nVa6dnJzMlClTyMrKUgo0JiaGW265hYsvvhg/Pz+vRj2Hw0Fubi7p6ekEBQVx0UUXERkZSWFhoUp1R0VFkZyczLhx40hKSlIxpl27dtHd3U1WVpYiixIXT1zCZcuWUVxcrDpyc3NzgT4LLioqCqfT6ZUlk5hLcXExmzZtIjk5mQULFgCnMjfp6encfvvtdHV1MXPmzC/QgMTFxXHNNdcwfvx48vLymD59uhcZugR+Z8+eTWpqKrt371bxmYSEBCZOnMigQYNU9iwoKAiz2cwNN9yA2WwmOztb9f6YzWauv/56EhISKCsrIzAwkMjISC677DIVY5JxH5BvmRiGYbz//vvGddddZxiGYXg8HkPE4/EY3d3dhsfj8fq8t7dX/ezp6TEcDofR09NjGIZhuN1uo7e313C5XEZ7e7thGIZht9vV8c3NzYbD4VDnc7lchmEYRldXl9HW1mYYhmF0d3erzw3DMDo6OtTvJ0+eNJxOpzp3d3e30dPTY/T29hrd3d1e9+52uw2bzaa+7/F4DKfTqb4n9+l2uw232220tbUZjY2NhmEYhtPp/MI5e3p6jO7ubqO1tdXo7Ow0Ojs7ja6uLqO9vd3o7Ow0enp61Fg5nU6jp6fHcDqdRmdnp9HW1qY+6+3tNdxut2EYhtHS0mIsWrTICA8PN37xi1+osZQxlrEzDMNoamoyOjs71Wdut9vweDzGu+++awQEBBiPPPKI1/HNzc3G448/bgQEBBg//OEP1Rh4PB7D5XIZHo/HsNvtRkdHh7qe71ja7XY1JnLP+vuRcZLPGxsbDZfLZXR1dRm+4nA4jK6uLsPhcKh/+nVEampqDLvdrq7nOzfkGXz//f8mMq4ej8dwOBzG008/bTz55JPf8F19Ub7UEtHjHfKZHtH3PUZcILPZrHYsnXNGirNE5BidHtE3cKZnK4SgWqwjX6oA/R6lqU5E7xKWa+hxFD0ArLfs6+eHvkKsLxP9+zq9pWSFCgoKKCoq4tixY2zYsEFZCjoHsed/eF2M/7EOJAtmGIZyAd1uN9nZ2ZhMJvbu3UtwcLDC7SgvL+fll19myJAhLF26VFl2OieLDiWgP6M8d3BwsDpGp/80/sc91bFc/f391T3qSG++YyLjINcxDEOlpD0eD4mJiV7QkHIP+vseyNB8e2QgzP0NyTvvvMNf//pXOjs7ycrKYunSpYwfPx6Px4Pdblcdt74LUVcuAhMgID1tbW2UlpaSlZVFU1MTf/nLX3A4HDz44IMMHTqUrq4uL7a9b1J08CNdBhDb//1kQIl8QzJz5kyCg4OJiopi9OjR5OXlqb/pmQd9kcnur1uJktn4yU9+wpEjR1QfimEYLFiwgHHjxnHJJZd4ndeXy/Z/Q87GUujvmAEL499PvlKK99sk3/b7+zKZOnUqkyZNUpkGu92uArW6+6O7Zzq6mg4DaLVamT59Ouedd55yPcLDw7n00ksVaJCcx+1294sI9lXlnx3/M33/3/3d/l+TAUvkG5KgoCB6enpUyli3PnRrwzC8AXbkd+lJkXoNk8lEcHCwSs2HhIQoCEWJ/zgcDi9EuAEZkH+FfPPO8f9hkYpTnZBaB77uLzagxxGkpkMHbhZcVEApEMGFkTJ3HQ93QAbkn5UBJfINiUBJSl2LEHRLvc3pAo9ipTgcDi8Xxc/PT2HLyvl0oGU4VR+jZ8IGZED+WRlQIt+Q6Iz3eg+Nbn2IAtHjI5KdkepXSYHCqeKv8PBwL+tG0uEivpQdAzIg/4z8U0rEME7RO4I3/4fO5yIT3/e7Umbd39/kHPrk18/j+53+vq//lFJ2OEUi7Xu8iDQTyrH6M/bHIaM/v++9Szm5XF/qNPTz9FeLo7s08rvemCeiE1iZTCZFpCUi3b66RaMj3QNeyGW+BNo6l4/0+fiOmXQj+/L5+HIJ6bEe/TO9k7u/84rImMlnvtkqfdx8r6m/U33c+jvHgHw1OWclIotCL+aS3+12u8r365ww8jKlc1PMeelWFZ4RnZpBFqB8Ln0l/S0kfUL4Li5f3hTBAPElPtLjDHAqbqEfo7PWuVwudQ7dnRCXQ4i75G8yHvo9y33J9XWRZ9bH2M/Pj/b2dmpra73aDfz8/LxcFYmRSA+NiNPp9MruBAUFKQUovU92u125XG63m4aGBi+QIZPJpHB4xZKSdyPvR9wyAdv2fVZRPOK2+ZJ76xaaTogltBS6ghaFJWMlXD5yvYCAANra2mhubj5rlsIBOTs5ZyUiKGaiKGTCQd/i0nli5GW73W4FyAuo7IIcJ5NOJpuY+r4LSSaMrnj0VKh8T98h3W6317HyXX1iG/8DZSDWkdyfKEwd6U0mtMlk+kLNhZwzJCREWQLCSaMz28tC1JWdDpCtKxpZLD09PdTU1PDUU0+xfPlyOjo6FHKZnF8WsV4lC6dcKFHc+nOYzWYcDgd///vf+d3vfkdRUZF6jq1bt/Lkk0+yf/9+VYOiN/zJWOmBYYfDoeI2cj19gYsyFCtRnkHGw+VyeVkVei+RFNnJmEmns7xbYSPUpaSkhMcff5y//e1vXmx9A/LPyz+V4pUJ7kuqrLO6i8jLlkWkk1zJ30V805t6GbyumHzL43XLR5+4Uu6uN7bJ92XSSZm8KARfF0PfHSUTUlJSosCG7HY7vb29REZGkpKSosq4ZfcWntzW1lbFRieBVFlcvuDY+hiIcuzu7qa4uJjf/OY3zJgxg6VLl3qx78m9dnZ2qnYBUSqG0cciFxYWpo4T9LDQ0FAOHjzI448/jsVi4ZprrlELsaCggD/96U/ExcUxYcKEL9yjKFm9MS84OPgLrpGIYLjIePaHDyLjL/cum48O0VlfX8/gwYMVYp6U2suY6sq0uLiYZ599lgsuuIBly5b1e18Dcm5yzkrE0Dpz9V1PdiihARCLRBSILFpxL/QWdF2h6C6FTkUhi112a1EUskuJshJuWl+MEVnYeh+GvqAAr3vRF7l+v9u2beMPf/iDgi0Ulr/AwECys7O55ZZbFLGVBD6XL1/Ohx9+yOTJk1m2bBnR0dHqfLpForPHiTsgbpbJZKKsrAyA7OxswsLCFKqa0+lUcIf/j70vj66qOtt/7jwlN/McMhMSEhJkHsOQMKuoHygi1krtpL+qpWJdtrXY2n5Vq1+rtVqtWEQFmQeLoEKYKVMgEEhIQhKGJCS5yZ3n4fz+iO9m30sAUSpBzrMWC7j3nnP22efsZ7/zSwQSCASgUChY0yg+J4XvwGcwGLBkyRK0t7fjqaeewm233cbmLTk5GTKZDDU1NWhtbWWNsUhS49Vaek6hXelIDaLjaCz85sG/L0QYvJRK71dHRwcWLFgAs9mMZ555BuPGjWPn4AtYk8rmcrlw7tw5eL1eRvBXsqmJuDZ8bXVGIpHAZrOhsbGRNZnm63TwOjZVNKeFSgWEecMsVQij3Rm4dNHzuxYVMebdoLz0o1AoglQGp9MZ1J+XCI12UCIbugc+foOXcOje9+3bh3//+9+w2WxIT0/HkCFDkJ+fD7PZjGXLluH3v/89DAYDIxCv14u6ujocOnQIZrMZWq02aNxKpTKopWZo/2BanD6fDw0NDQgLC8OoUaOYzYO3hxABWiwW+P1+WCwWLF68GMuWLYPFYmEuYV612rx5M1atWoUJEybgoYceYgWSPR4PcnNzkZmZyeqp0lho91er1czuQoWzSQoINSATefOqK68y0vl4SYVXy7xeLxwOBw4ePIimpiZm6OXVS5LaaD7tdjtqamqg0+mCyFHE9cHXlkQ8Hg/Ky8uxd+9e3HvvvSgsLGTqQiiR0IvucrlY9ilJEPzuT8fzhNPTbkQFfnhyofPw7TJ5lYY3kIaej1eBADCJhpdW+J3Qbrcz+8DcuXMxd+5cxMbGwm63Y9OmTXjhhRfw+eefo6GhAZmZmawn8cMPP4xhw4Zh5MiRzG7EX4PUEb4spdvtZu7cQKC7K191dTW8Xi8yMjKYpMEeqFwOu90OjUaD8PBwls37z3/+E9HR0Rg6dCiSkpLYc/D7/Thz5gzWrFkDQRAwa9YsxMfHM3KXyWTQ6/XQ6XRobW0NqvpPIKmPr2NChOD1emG1WhEWFhZkrwqVJHuKieFVOJJOqM7qc889B71ej1GjRgG4SJz8M6Y2qx6PB6dOnUJ4eDiKi4u/3gsv4rL42iTS0dGBdevWYd26dRg6dCgGDx7Mwri1Wi2kUilaWlpgMpkQHx+PyMhI1kPXbrcjPT0dSUlJCAsLg9VqRW1tLbq6uhAVFYWkpCRER0cHNdEmknA4HGhubsb58+cBdJcJSEpKQlxcHJRKJROj9+zZg7i4OHYN3nPU3t6OpqYmZGdnM1Ed6F60VNqRktRSU1OZCAyA1U41Go2Ii4tDUVERayOqVqsxYMAAdv8Wi4URWWtrK3Q6HUpLSxEXFxdkLHY6nTh79iyampqgVCqRkZGBuLi4oLmKjo6G1+tFW1sbjh49ioyMDCQnJ6OhoQEdHR0wmUxIT09HTk4OwsLC4PV6YTabUVdXh4MHD6K6uhqZmZmora2F0WgMKmx0+PBh7Nu3D7fddhvGjx8fREpAdx5OVFQUDAYDkxjILtTS0oK2tjbExMQgMzMTNpsNtbW1kMlk6Nu3L1QqFVNNfD4fTp8+jc7OTuTm5kKj0TCJzOl0oq2tDS0tLTAajYiKimLlGanyPalPJpMJubm5yM/PR3h4OCNaAOjq6kJjYyOMRiN0Oh3S09PR0dGB1tZWpKSkoKCgIKjlhohvDjmAHncB3o1KD5keVCAQQHt7O44dO4bU1FTW60Qul7NO9mq1GjU1NVi0aBFmz56NPn36YOXKlThy5AiUSiVSUlLwxz/+EdnZ2XjllVewZ88emM1mCIKAYcOGYeHChYiPj0dERASUSiW8Xi/Onj2LzZs34+OPP8b58+cRFhYGu92OoUOH4oEHHsC0adMgCALq6+vx8ssvw2w244MPPkBkZCQbk9FoxEsvvYQDBw6wPsFANyn+5z//wYoVK1BZWQmdTgeXy4X09HTMnz8fZWVl0Gg07L6am5uRkpLCyj+SHaCurg5WqxXJycmsm5xMJsPevXvx17/+Ff369cOf//xnqNVqVi39448/xsqVK1FdXY2wsDCkp6fj/vvvx5o1a+D1evH+++8z6YgMisXFxdi6dSt2796No0ePwuFwICsrC9///vcxb948CIKA/fv3449//CNOnz4Nr9eLjo4OLFy4EFqtFtOmTcNLL70Es9mMLVu2wGKxYPLkyUhKSrpEMgMQ1FKVIJPJ8M4772DlypWYP38+HnjgAcTExODXv/41AOCVV15BVlYWk6J8Ph9eeOEFHD58GO+99x4GDRoEv9+Pzs5ObNmyBUuXLoXRaERnZye0Wi2Ki4sxZcoUzJ07l9k5HA4HXn75Zezbtw8///nPcd999zE1qbW1Fa+//jo2bNgAi8WCxMREDBgwAHFxcayRelRUFNtoRFwfXFYSIeMk6eu8uiAI3T1jrVYrxowZg9zcXPYdAOaZOHLkCOrq6vDaa68hIiICubm5uPPOO7Fr1y5s3boVf/vb39DW1ga73Y7U1FQkJCRg+/btWL58ORISEvD8888ztaKxsREvv/wyVqxYgQEDBmDcuHEQBAE1NTXYsGEDGhsbkZaWhsLCQni9Xpw5cwbt7e04f/48kpOToVar4XK5UF9fz7rpUatHq9WKN998E4sXL0ZKSgpmzJgBmUyGc+fOYdu2baww9YgRIwB0N17q7OxEnz594PF4YLfb0draim3btmHJkiXM8EclEAOBAM6fP4+jR48iJyeH1aMNBAJ488038eqrr0Kj0WDmzJmQSCTYvn07fv/736O5uRkjRoxgMRher5f14Dl37hyWLl2K8PBwDB48GAaDAZs2bQIATJs2DTExMYiLi0NhYSFOnjwJjUaDkSNHsg5yZIw8fvw4du/ejYyMDAwcOBAAgmI1gO4K/eQWpaxgio9pampCXV0dq3Lvdrtx4cIFNDU1ob6+nrX5ALor2m/YsAFarRaxsbFQKBQ4f/483njjDfz9739HVFQUSktLoVAocOrUKaxcuRI1NTVISkrC5MmTIQgCXC4XduzYgfr6evj9fib5njlzBj/72c+wd+9eFBYWYuzYsbBaraiursaGDRtgNpsxa9YssVL8fwGXnVHy05MY39HRAbPZzAx4+/btg8FggEQiQX19PbOBxMXFITExkVUTNxqNUCgUKCkpwdy5c9G/f3989tlnePzxx7F27VokJibisccew7Rp0xAXF4eXXnoJL7/8Murr65kqY7Va8e6772LlypUYNmwY61wvlUpRXV2N//3f/8WmTZvw+eefo7CwkDXlbmxsZAFZQPdioF68M2fOxJAhQ+D3+/Hxxx9j1apVGD16NCvgo1KpsGrVKnz++eeorq6G1Wplc9He3o7Ozk5UVVXhd7/7HSu6fPbsWWg0GjzxxBOYN28e875Q/16bzYbhw4cjJSUFgiBg+fLleOuttxAfH49FixZhzJgx0Gq1qKiowDPPPIPGxkbk5ORAr9ezGJvjx4/D4/HA6XRi7NixeOCBB1BcXIzKykocOnQIjY2NzFM1aNAgyOVyVFRUwG6348EHH8To0aMRFxfHpI3jx4/j1KlTeOCBBzBgwAAAYL1wSLpqbW1FV1cXK5QEgNm1/ud//gfDhg3DXXfdBZ1OB6PRiJSUFBw5cgRdXV1BXrYvvvgCFosFCxYsQGJiIrxeL95++2289tprGDp0KJ588kkMGTIESqUSJpMJDz30EPbv349PP/0UZWVlLMisqakJaWlpGDlyJLRaLWw2GxYvXoyNGzdixowZ+MUvfoHRo0ezTeCll15izc94Q76I64PLziTFCNBu/+677+LTTz+Fw+Fgao3RaMTWrVtx/PhxVo3riSeewH333Yeuri7U1tYCAO6++2784he/YJ3NUlNTIZfLYbPZ8NOf/hQPPfQQq/xOruGYmBi4XC5otVrU19fj/fffh0KhwJ/+9CcMHjyY6bUDBw5EWVkZtmzZgsrKSgDdlcP79++PVatWoa6ujunjBoMBa9asQXJyMu677z4W67Fx40bW2MlisWD79u2ora3Fv//9b3i9XowfP56pLVarFUePHgUAZoCsqanBqVOnoFQq8cgjj+DHP/4xUlNT2W5uMBhQUVHB2kYC3aS8fPlytLS04I033sDs2bOZwXfMmDGsxwwRgcPhgEqlwuHDhxEIBDB8+HAsWLCAtaIg6QboTrAjg61E0t3CIy4uDiNGjGD2G6CbVOvr61lF+ejo6CD7E7mVm5ub0d7ejuHDh7PfkCv17rvvZoF0Pp8PERERrNEZkYhEIkFzczPWr1+PhIQE1knx2LFjWL16NQRBwK9+9StMmjSJteCMj49HSUkJDh48iNraWuaurayshNFoxMCBA1nfovr6erz22mtISUnBM888wxq4p6SkYOLEiVi5ciVaWlqQlZV1SXySiG+OK7aMoBdAq9UiOTkZubm5TJ/cvXs3YmJiUFxczETt8PBwxMTEQCaTobOzE+3t7SgoKMD3vvc91l5TKpXixIkTsNvtmDp1KubNm4eoqCgA3dJPZWUl1Go1cnJy2Mu8YsUKXLhwAXPnzkVRURH8fj8jOYVCAaPRCJlMhvT0dBadGhsbC7/fj6NHjzKD79atW1FdXY37778fZWVlsNvtqKurw7Fjx2C327FmzRqsWbOGteGUy+WYP38+7r33Xibqd3R0oKWlBUlJSfjJT36CsrIynD17Fm+99RY2b96MlpYWNodECkajEXV1dUhOTkZ8fDw8Hg+OHDmCQ4cOITMzE/feey/rvRv4ssfMiRMnoFarUVBQwOw5XV1dOHr0KNLS0jBnzhz07dsXAJjE5na7kZWVxarhu91u1NTUoLOz8bpyEgAAIABJREFUE/n5+azdg8PhgFKpxLlz51BZWYnU1FRkZWUxtYnmnf5ubm6G1WpFSkoKYmNjWfAeeXj4ZloSiQQFBQVQKpU4ffo07HY7wsPDsXz5clRVVbF3we/347PPPkN9fT0eeeQRjBw5knmmpFIpHA4Hi/NJSkpi1zt06BDkcjkyMzOZh66yshImkwkzZsxgKifQbb9xOBxoaWmBSqVCSkoKgIveNxHXB1ds6E0xE2lpaXjwwQdx9913Izw8HE1NTfj5z38OmUyGX/3qV2zB08L2+/2oqqrChQsXMGrUKOTk5LAFJZfLcfr0aVgsFtx9992s3QOFk5tMJgDdlb9IDfniiy+g0WgwderUoEbWFAPw+eefw+12Y/z48cxdmJycDI1Gg5aWFsjlcly4cAFvv/02kpOT8eMf/5jFShw/fhznz5/HzJkzMWHCBLhcLuh0OqSkpCAtLQ05OTnMVepyuXDixAmcO3eOuUtzc3ORm5sLr9eLAwcOYMeOHWhqamL9eyUSCbq6uuB2uzF27FjWe/jcuXMwGo248847WXFlksR27twJk8mEpKQk9OvXj4WyHz9+HH6/H4WFhZg+fTojTKVSyQyu8+bNYw2yHQ4H62xHkhFtCkC3J6O6uhoJCQmMHICL2cAUREfqamZmJpsLAj07eo4+nw+pqakIDw9Ha2srHA4HzGYz3nnnHSQmJuKRRx5BZGQk89R4PB6MHz+eJQ9SKL5UKsXRo0fhdDrRt29fFh9y9OhRSKVSZGVlQSKRoLOzE6tXr4ZCoUBaWlpQn163243y8nKcOHECM2fOZEFyIoFcX1y1oTfps7GxsYiNjQXQbSDr7OxEYWEhcnNzERkZybw3lKV69OhReL1e5vIke0JnZydOnToFqVSKvn37skA0h8OBI0eO4Pz581Cr1ayCOXCxExzp+vSSuVwu1upy0KBByMvLY7tMbGwsIiMjWdvO9evX4+zZs/jJT37CdspAIACTyQSlUonx48fjscceY5mtVGmMAs0oeKmxsREdHR0YOHAgYmNjWch4SUkJioqK8O9//xtVVVUYPnw4FAoFfD4fU/fy8/NZsiE1/E5NTYXRaGSk09XVhffeew9dXV3Iz89n4fFerxc7d+5kXQUpHkSn0zGJQyKRMIlJqVTCYrHg9OnTUCgUGDRoUFCuE8WIkDRBle5DEwCPHz+OqqoqZGZmBjVUJ7sJJehRAJlMJkNqaiprylVXV4fdu3czGwevfrnd7qA0CN7zs3nzZhw7dgy5ubmYMmUKi0FpaWlBeHg4hgwZAqDbAWAymRAWFsY8L0C3tHHq1Cns2LEDOp0OI0aMYPfckzdSxNfHZSNWaacmlYZeQKfTicbGRpw+fRppaWnswYeW3Tt69ChcLhcGDhzIQp79fj9MJhNqamqQnZ3N6l4EAgFotVo0NjbCZDIhJyeHRaTabDbo9Xo4HA7U1NQEBSYdOXIEL774IiwWC+655x7mDVGpVOjbty/69OmDzs5OLFu2DK+99hoGDx6MH/3oR6w0oc1mg1arhdfrRWVlJWw2G1QqFXQ6Hex2O44fP84MvED3Amtvb4fL5UJOTg7rDevz+aDT6Zi9gYyogtDd2uHEiRNM1dDr9ayfrkqlQkNDA4sBaWhowJtvvolly5Yxw6hKpYLT6UQgEMCePXvg9XpZfIdOp4MgdDclP3XqFOLj4xEXF8eiQK1WK9ra2lgoPkmCVAhJEASEh4dDpVIFhclTnVcAqKqqQkNDA7KystC/f39G5m63G9u3b8eBAwfYxkEbTlhYGCIjI9HQ0IDPPvsML730Evr3789sXyqVCpGRkXA4HJDJZKx9KkUQV1RU4I033kB7ezsmTpzIAsRaWlrQ1NQEnU6HsWPHMg9RYmIijEYji8vxer04dOgQFi9ejDVr1iA8PBxpaWlB4fYirh8ukUTI4ETWeT7ykHYDag6dl5fHdibqBC+Xy5mortPpkJiYGNQ75cyZM3A6nRg4cCAzBFKwUG1tLRwOB0aPHs2StzQaDUpLS7Fr1y4sXboUEokEqampsFgs+Ne//oVz587h0Ucfxfe//30AF+0QSqUSRUVFOHDgAF555RUolUo88cQTzLgrCAL0ej3y8/ORmZmJTz75BCqVCkOHDgXQbaz74osv8L3vfQ+PPfYYAoEAWltbUVVVxe6d7EOUh5Gfnw+ZTIbm5maYTCZERUXB4/Hg8OHD0Ov1SEpKYvOYm5sLmUyGTZs24cUXX0R0dDQ+/fRTnD17lkV33nbbbWxuOjo6cPLkSej1euTm5sLj8TCV0263Y+vWrSyAj2wLFLZuMpmwYsUK1h+5tLQUCQkJrAVoREQEs2fwXfDOnTuHnTt3wuv1si53QLeU+sUXX+BXv/oVsrKy8MILL6CgoIBJAfHx8UhPT8e5c+fw5z//GREREXj66aeRk5PD1C+3243S0lLs2LEDr776KoxGI4YPH466ujps3LgRhw8fxve//3088cQTjMSPHj0Km82Gfv36sT40Op2O9Vdev3494uLi4HK5sGXLFlRUVCAzMxNqtZrZ6shw3NslEYrE5pNGifzpe6B3qGZyIDhLlXZ5PvwaAMuDUKlUuOOOO9C/f3+MGTOG5aOo1Wom2p47dw6tra0YMGAAe6np/B0dHTAYDMjMzAx6KQHgwoULCAQCKC0tRXR0NNs57r33XphMJixfvhwvv/wy2yXz8vLwy1/+ErNmzWJGM5psn8/HmkwplUrMnz8fkydPhlQqZQlrADBu3Dg8+OCDWLZsGT744AN8+OGH8Hg8LAIzISGBzcf58+fR3t7OjMz8fJFHqU+fPmhtbWWuRIPBAADsfolQp06dijlz5uD999/Hyy+/jEAggKKiIsyaNQvl5eXYvn07Bg4cGKQGBgIBJCUloaSkhM2B1+tFV1cXHA4HCgoKmGfE5XKhT58+mDFjBmpqarB48WKsXbsW9913H0pLS5ka4XA44HQ6mRpDz1MqlaKhoQH79+9HcXExxo0bx8bi8Xhw8uRJXLhwAfHx8UyNIVsKqXfbtm2DIAh47LHHMHHixCBVSKvVYvr06TAYDPjwww/x97//Ha+//jqioqIQGRmJRYsWYc6cOcjNzWVlG06fPg2/348JEyYwG5Ver8d9992H+vp6bNy4Ec8++yyUSiXGjRuHRYsWYdOmTXC73UhPT2cG6m+jZcY3Ba0JPr+KzyPrTWARq3x0KnBplXESE2UyGSZPnsz63YbqmDKZDImJiXjmmWeQmJiI1NTUoAbThYWFLI1dp9MFZVPeddddyMjIYBZ2mrScnBw8++yzGDduHOrr69nLOGzYMAwaNAjAxVwJMkJGREQwHVwqlWLKlCnQarXw+/3QaDTMiJeamooFCxZg2LBhOH36NDPwElFkZGSwe+vTpw9++MMfIiYmhnlBADCVr6ysjI2B1IOoqCj89Kc/RUxMDPLy8pjkotfrsXDhQpSWlqK5uRlSqRTTpk1DZ2cnPvzwQyQnJ6Nfv37weDws+/T5559nYeS06OVyOfr3748//OEPrBG62+1mC/6ee+5Bnz590NTUBLVajSFDhiA5ORkAWJV5CimnOVcoFOjs7MTKlStRV1eHe++9l8WQAGA2JI1Gg/T0dBaxzJdLmDBhAuu1PGvWLKYKazQaVgM2OTkZjzzyCG677TacOXMGXq+XuYiLi4uZAZi8TRMmTEB4eDjKysrYu+b3+5Gfn4/nnnsOkyZNQldXFwuyKygoQFFREQuTp3e8txMID94u2GttOYIgCJs3bxbmzZsnCEJwL17qV0uf+bkerdR7l74LcH1u+c/9fj87h9frDepty/dr5fuy0v8FQbikryudl3rwOp1OwWKxBPVy7ek+BEFgPXcJHo+HfedyuQSHw8HO63a72f0Gvuxdy993aE/Y0F7EPOhe6H4EQRBqamqEmpqaS8a0YMECAYDwwAMPsPugc4fOm9vtZv2BQ+Hz+VivXn7cNB632y0cPnxYGDVqlDBgwABh9+7dbOw+n0/YunWrkJOTI4wdO1Y4cuRIj/fCzzX1GQ59L6xWKxsr/4z4e6axer3eoL7LnZ2dQdfgr03HOxwOwWQyBfUDJhgMBsHj8QgOh4PNO40ncJl+vr3lj5/rd03z/pe//EX4wx/+EDT+3gA5EFynU+DUGmp0xMcNUDo6cDHzlnRzOpdUKmW7IVnx6bzkwuOrUVFvWIFLuaedlNL06Vp0XfpeJpMFGXUp45PEa8repWpYtHuR+5p+z4vaZFPhi9oIX5YtkEqlsFqtQT1sydVK46B5opgLmge6f5fLhfXr12P37t0oKipCVlYW87C8++67GDhwIObPn8/sJ5QBzVeDp6xWACxhzefzwe12s8hSPsmM0u1J0pLL5UhLS0NRURE2bNiA9vZ29vvq6mq88sorMBqNeOaZZzBw4ED2jlBMENlOSAIkdZYPRqSdk4pF0zhIKuUzicmIT7/zeDysbzNdL7RmDXCxV7DAee4oe5e6AfLzEBYWdrV9tVdCEISgP70JlyTg8ZZrvrYHhUCTa5R+x6fK89mwtKDohgWu6A+BRGk6npK06N/UfImuGQh096BVKBQsYpXOSXk+VJdE+FIs5+NTyNjI3wMlhwHd5OR0OpkYTS86lQ0gcgoPD2flIIUvbTCUC8OTMV8TA0BQ/IJUKkVNTQ327NmD8PBwWK1WaLVajBs3DvPmzcPEiROD7ovmk+IgyOgtl8tZzgqRH/+8iDBDywXSZ9nZ2QgLC4PJZGJzcuTIEZw8eRJ33nknGwc9R76BN81raIAaEY3wpeEzEAjAZrNBp9MFbSL0b54gqM0FjZfC/ak+DG1aTqcTbrcbSqWSPWeZTMaOo02Cnj89F77eSG9G6HqkMfM2y94CZjmlQdGkU51K/mXk61ryhZaJHUMfEF/9nIx9fEo9LXgAsNlsQcWBADC7Ah1P1+IlByGk4hl9RuPtKVeCN6zxuxrQTWyUB0TjIQKUyWSw2WxQq9VBx9O9AwgiMABscfPSWkREBH70ox9hyJAhOHPmDAsbj4+Px6hRo1hQFBEUH7tBC4qkEwoKo+dC16XPyMLf0znCw8MxefJk6PV6losEAFlZWXjqqadQWlqKjIyMS3bA0HKIdH5a6DQP5EInaYyv48KXbKRnQpsPLRJ6hiTZ8vdF0g4dT94lAOw9M5lM7B3i68fwx/VW0DtHkhttBr3RJiIHwKzfLpeLLSoiEZPJFFRshg8QoodMoiRw8QWll0Qmk7EkPCpe43a7mTGSdhMKa7bZbOxcVMaOVCI6v0qlgs1mYy8GkYvdbmcLWqFQwGKxMEMelQfU6XSsiDCvFvFSj91uh0KhgMPhCCIi2mUpGpTGyQfCkepit9uh1+uZeE0RnVarle3OI0eOxKhRo9j3dE8Wi4WpYEC3CN7e3s7CvKkUI13LbDZDr9eziml8tX0K5iPph6Q4kjry8/NRVFQEh8MBo9EIACgqKsLgwYMBdOfXkMpB74NUKmVRskRoEsnFqu5A9yKg39PxSqUSVquVkapSqWQqMxl3iagpnoOOI2Lo7Oxk7xztzHSvRNg6nQ4Gg4FJeGSwpefqdDp7vXGVng/Nidvt7rEbQG+AnBZoW1sbNmzYEJSmLuLGg1cHQ8PNFQoFk5icTicrRsQHkpGUQLYYr9cLvV5/iQQmoneBpGupVAqNRoO2tjbU19ejf//+AC7fYvVGQE5hypMnT0ZHRwfrMdLbmfq7jquJ3iThREZGwmg0srgJMmJarVbYbLaguqckLVBlehG9F1STx+FwMNWxoKCARSv3JkiEL9/Qrq4uGAwGREVFBRU0FnFjwMdt9ATSl8k+RXEW+fn5TNwn2wPp1bxHpbcbFm91+L7szUwmALLDqVQqaLXaIEMx4YZJIpRAFh4eDp1OF2SwFHHj8FVfCFJfPvroIwiCgLKyMkYwwEWDMl94mTwXInovQp8/2dzI9tObasTKyW9ONSLIoxLqEhTx7aKnnYa3j9DLpNPp8Nlnn+HEiRPQ6XTYvXs3SkpKmEGYDHRUq4R3x4roveC9UwCC2pXynr7eADmAINcrH8wk4sahpyQxPj6A6oK0trZizZo1uOeeeyCRSPDxxx8jLy8P8fHxzCtDrnSyifS2OAMRl4JigAjk6ga6851Cs+ZvJIKyeMkNCEAUd28weqp7wcdryGQyWK1WbNiwAREREbjnnntgtVqxb98+bNiwAQ8++CDrvsf34rkZMlhFXARFSvPxVxSh21sgBy4G8PAqTG8a5K0IIpDLLXi/34+TJ09ix44deO6551j4//z587Fo0SIMGTIEeXl5LJaEdjayh4jPt3eDlzhpfVLAGRnIewvkAHrUkcXd6sYg9OXgI4Yp8CoQCKCrqwvvv/8+SkpKWD0NpVKJnJwcTJ48GYsXL8aiRYugVqvh9XoZmfBRxyJ6L3p6PnxqSW+ya/WekYgIAoU4kx2DEsmoZsfKlSuh0+nwve99D1arFcBFO8rkyZMRFhaG1atXA+hOH7DZbCwvRYSI6wmRRHopyLtCBAJclEoqKipQWVmJ22+/HVqtlkknQDeRpKenY+LEiThw4ACqq6vh9/tZNCsVRRIh4npBJJFeDAptB7o9aFTeYO3atSgqKsK4ceNgMBiCMlfJ8DpixAgMHjwY7733HjtfaOEpESKuB0QS6aWw2+0sVJ3qgADAunXrYDabMWPGDABgPXv4jFiK+ZkwYQK8Xi/Ky8uZRNMby+uJuLkhkkgvB2WeKhQKVFdX48MPP8Tdd9+NjIwMllHN12Hha2skJiZixowZ+Oijj9DY2AgAYgyQiOsOkUR6KSiYiGwdXV1d2LJlC/r27ctqjKpUKtjtdpYyTqB4n4iICOTn5yM9PR3r1q1jFfR7k2VfxM0P8W3qpaByhlRFbf/+/aisrMTTTz8NAEFNtqjGCh1DLTQBIDExEXfccQdOnTqFXbt2sVKOIkRcL4gkcgPBF/AhSYL+prJ/AFBTU4NPPvkEDzzwAPR6PbN5AMF9ZamGLBX6oe8LCwtRVlaG1atXBxWIonICFIMiqjkivg5EErlBCC03SSoGv6ADgQCsVit27drFernwdV5Ci2sTyMjqdDpZFbJBgwYhMTERixcvZrYTKpBNWb9kLxHJRMS1QCSRGwjyuFDNUqBbAqHSkVKpFI2NjThw4AAeeOCBS8o0UEYub+OgTE+gO8eCiKFv376YMmUKamtrcejQIVYS0+PxsLB4AIxMRIj4qhBJ5AaBr1PLV88nCF923HvvvfdQUlKCwsJC5u6lKFY+LoQqzdP/qT6ry+ViNpCioiIMGzYMK1euZI3MyfMTasgVIeKrQiSRGwQ+wpS3X5CEIJfL8dlnn8Fms2Hu3LmMFKguCBUy5ivs80l7fBtGjUbDGrSTZ2fbtm2ssDGpMHwFdxEivipEErnB4NuWUoamUqnEwYMHcejQIfz4xz+GXC4P8rjw3pXQdg70b+qxQ8ZZqimSnp6OMWPG4MCBAzh58iSAi6UWKb5EDEYTcS0QSeQGgdQXkkj4DNuWlhYsX74cAwYMwJAhQxhpkBuXivjyRlh+4dO/iUDIwEp/hg8fjri4OOzduxcWi4V5e3rqMCdCxNUgv/pPRPy3QO0cqHwh0B2hunv3buzZswejRo3Ctm3bmBvX4/FAr9fDZDKx5uT0HVW+IkmEWls6nU7m+rVarVCpVIiMjIRGo8HKlSuRnZ2N0tLSoCpaval+p4jeD5FEbhBCjamkSkgkEnR0dGDUqFE4ePAgc8GS4ZTsH36/H1qtljXlUiqV+OKLL5CdnY3s7GzWe4ZXdXhbicfjQV5eHgwGQxBJKRSKIEIRIeJqYC0jRHy7oGnvqfL6qVOnWNYur/bwNUZcLhe0Wi1zD5vNZnzwwQcoKirC2LFjGRFcrsmRRqOB1WpFbGwsUlNTgwy9IkRcC8Qt5waB3LX8YqfGU/369Qv6bag0QZ/xC/7ChQuIjo5GamoqBg4c2GO1eDoOCCYLn88X1KrU6/WKKo2IrwyRRG4gSH2hJlTUDpOMnKEqDN8RXiqVsjYCVDaPAseA4LabPPHQ8R6Ph51PJpOJNhERXxsiidxA8G5ZXiIJDWfnw+Lpc77tA/9/Mtb2VOiZ/zdJHRStSt/1FPgmQsSVIL4tNxChrlgCH/YeGtZObTGpbQRJM2Q/USqVLNYjNIqVV4sIJNGQm5hPBhQh4qtAlERuIHjJgCQIkkgu1x+G987wSXMU7Uq4WgV/8gbxEbOAWLRIxLVDJJEbhJ7UBpJIepIYeJB0QlIG2U3IOMs37A41yBKoXitJMcDFhlmiOiPiWiCSyA1C6ELl/3+lplW8kZRaYxL5xMbGIikpKYigQjvo8f8PjQcRs3dFfB2IW85NClJhCEqlEhMnTkRaWproXRHxrUIMNrtJQVIFSR0OhwNarZY1Z7/cYxXbRYi43hAlkZsUvFoDXFSHelufVhHffYgkcpOCPDG8SlNVVQWz2SxKGyK+VYgkcpMiVNrweDwoLy9HQ0ODWJ1MxLcKkURuUpD6wjevamhoQHNzs1gPRMS3CpFEbnJQDREKHOMT6USI+DYgxoncZCA1hmI6iEBI+hBrgYj4tiFKIjcpQpP0KHL1atGuIkRcb4gkIkKEiG8EkURuUoSGtYfWHBEh4tuCSCIiRIj4RhBJ5CaFaBMR0VsgkogIESK+EUQSuUkh2kRE9BaIJHKTQhAEViYR6E68KykpQUZGBvseuHJtkhuB0JafBD5U/1aIuP0uqZ1iKYCbDKGVyvgCRBcuXIBer4dWqw3qUdPTcTcKvWUcNxrfpXkQSeQmAz0uKoFInetUKhWrMeLxeFix595KInzhaCo2TbVdb4UKa73leVwPiDHSNyl4+4dSqWSFnkN7yPRWXK6QtM/nu2yRahG9E6JN5CYF3+qBijSfPXsWBoPhpii0zFeUp1KP1PJCJJCbC73/bRNxWfj9frYYzWYzduzYgerq6hs8qq8Gak1BJCjWQLl5IZLITQpBEKDRaII62Z08eRIGg+EGj+yrw2azMQlELpczQvR4PDd4ZCKuBb1feRZxRXi9XgCASqW6qXb1iooKXLhwAX369MGAAQMAXL4joIjeDVESuckQGvchl8uhUCjg9Xovab1Jhkq+yTeBdnu+928oqA3n1WC329nvidSAS9ta0PgDgQA2btyI3/zmN9i2bRvsdjvz0tBv6Hz8uQh8i1C32x30W/qbPqd75cdFTb5Cr9FTfAqvMgLdpE1GbB50Pn5e6fw9jd3tdjNPWk/HhI6JzsGnO/QWx6pIIt9RkKpgMBjwl7/8BR988EFQ1zylUsleZJ4seELg+wDzCxboXqR0jE6nY7+XyWRwu91BbTqpfCMtQJlMhs7OTlRUVMBut0On010ydrqmy+UCENzek8gyEAgw17bH42Fub5fLBZVKBbfbDa/XC6VSCYVCwe6db/jFE4pcLmfH0GfU79jlcsHv90OhUDCCpvsKBALsfHK5nF3D6/Wy+aN78ng8kEqlUKvVcLlcUCqVUCqVQY3F/H4/IxYymtP982TYWyCSyHcUGo0GgiBg586d+OUvf4n/+7//w5kzZ5gkw+9kvEuY+vLSIiUQSdAxKpUKUqmUkYnT6WTHKRSKoMprZPOgRQoAWq0WABAVFQW/3w+n08muFxYWxsalVqvZGGhBOp3OIMklEAhArVaz/9Mxoe5uPq6GGpfTMbTjKxQKRhS8ZEKN0gHA4XCwcxFpAIDL5WJkQH2VaZw0DqPRiF27dsHpdAaVsfR6vUHqHH1HNXR7up/eApFEvqMgqSAyMhKzZ8/G9OnTWVAX0L3DqdVqpu7QwuIXusPhYOfj1SbgolhNC06n08HtdrM4DxLbSQKha2o0GgDdJCSRSOB0OlnjLSrzSOchyYN2ZjqPRqNhfYSJpCgFgHZwr9fLAu4AMNIAwNzIJOUoFAq2OAOBABwOB5OiSHqicQAXCZCXHOi+Q/sa029IUtm0aRN+97vfoaqqipENSUskvYSqoHR+oHcG4vU+WhNxXeDz+aBQKDBmzBjk5uZCrVYjPj4ewEXbhcvlQkREBIBu9cRkMkGv17OXOSwsDIIgwGg0QhAEaLXaIPWHLwptNBqh1Wohl8sRCARgsVgAAOHh4Zc0D/f5fMwOQtG1ABiZ0A7e1taG8PBwCILApBMCSSVWqxVKpZKpBwqFAmazGTKZDAqFAi6Xi8Wf2Gw2eDweREdHQyaTQaVSMQmLYm5IorHb7cweEh4ezsbo8XjYPZtMJshkMoSHhwPoXvAulwsejwd6vZ6N1ev1QiaTwel0Yvfu3dizZw/OnDmDvLw8eDwedjzQTTYOhwMSiQR2ux1qtZpJh70VIol8R6FQKBgxLF++HHq9Ho8++iiA7sW6adMmnD9/HhMnToTZbMZnn30Gg8EArVaLsrIyTJo0CX6/H2vXrkVFRQUsFgsiIiIwa9Ys3HbbbUG2kgMHDmDVqlWYO3cuYmJisHbtWjQ1NcFisaBfv364/fbb0b9/f2bopR1YpVJBr9ezNqCkhpw6dQobNmxAS0sLE/HHjh2LkSNHIjk5GV6vFwqFAs3NzVixYgXUajVmz56NFStWoL6+Hj6fDxkZGZg2bRry8/NRU1ODffv2oaamBh6PB3l5eSgpKUF+fj6AbgIlaaS5uRk7d+7E/v372eLPz89HaWkpcnNzIZfLYbPZIJPJsGrVKtjtdkyaNAlNTU3Yu3cv2tvbER0djWHDhmHChAmIiIiAQqHAjh07sHbtWhw6dAh+vx9LlizB9u3b4fP5MGvWLJSUlECpVOLYsWPYunUr2tra4HQ6kZCQgNGjR2PMmDGQyWSXqGG9ASKJfMfR2NiIF198EXl5eYxEzGYzdu7ciY0bN2LPnj2w2Ww4fvw4BEFAR0cHdu7cidOnT6OrqwtffPEFWlpaYLVaYTAYcPz4cTz55JMoKSmBXC6HVCpFdXU1PvroIxgMBqhUKuzZswcX0Ip1AAAgAElEQVROpxMdHR3w+/3Yu3cvHn/8cZSUlFxi0HS5XHC73Wzn/vTTT/Haa6+hpqYGERER8Hg8MBgM2L17N0aMGIGFCxciPT0dQLex8q233oLZbEZNTQ127tyJpqYmeDweuN1uHDx4ENOnT8f+/fuxadMmmEwm2Gw26HQ6/OQnP8Gjjz6K1NRU+Hw+qFQq1NXV4dVXX8WWLVug0+nYGDdt2oStW7fipz/9KUpLSxEWFoYLFy5g7dq1OHLkCHbt2gW73Y7q6mrY7XZ4vV588sknePrppzF79mxoNBocPXoU69evh8Vigcfjwe7du1FRUQFBEJCfn4+JEyeirq4Ov/nNb3D48GFoNBpmgD148CBSU1ORlZXFVLjeBJFEvqNwOp1MNJdKpcwW4fP5oNFoIJPJcPbsWdjtdkycOBHPPfcc0tLS8N5772HdunX4/e9/D5lMhqlTp+Lxxx+HTCbD3/72N2zZsgX9+vXD8OHD4Xa7odPpoFQqIZVKsXbtWvTr1w+zZ8/G6NGjYTab8frrr2PDhg2IiYlBfn4+kpOT4XK52LiAi3p+Q0MD3nnnHezatQsLFy5EaWkpYmNjcerUKbz77rv4+9//jtzcXPzoRz+CVCpFeHg4AoEAurq6sGbNGsyZMweTJ09GXV0d3nnnHaxatQq7du1CUlIS7r33XkyZMgW7d+/GqlWrsHTpUowaNQp9+vSBTqdDV1cX3n77baxYsQKlpaWYP38+UlNTYbfb8frrr2PdunWIiopCXl4eUlJSEBYWBoVCgdbWVmzfvh1lZWV44YUXEBcXh/Xr1+ODDz7A22+/jVGjRiEnJwd33nknBg0ahDfeeAMbNmzAwoULMXr0aHi9XuTm5kIqlWLNmjXYsGED5syZg4ULF0Kn06GiogIbN25kXi/egNxrIIi4qRAIBNgfj8cj+Hw+QRAEwWQyCQsWLBDWrFkjBAIB9vmuXbuE5ORkYfTo0ewcra2twi9+8QtBIpEIc+bMEY4fP86+Ky8vF/Lz8wUAwtNPPy2cPn1aEARBcLvdwvr164XExERh+vTpQlNTExvPv/71LyEpKUkYNGiQ8Mknnwgej0cIBAKCIAjC3r17hZSUFCEuLk7YtWuXYDQaBUEQhAULFgharVZ48cUXBYvFIgiCICxdulRQKBTCww8/LHi9XsFgMAgOh0MwGo3C5s2bhaSkJCE9PV0QBEHweDxCTU2NMGzYMEGtVgv/+Mc/hJaWFvbdm2++KQAQsrOzhcWLFwtGo1Hw+/2Cw+EQnnjiCUEqlQrPP/+84PF4BEEQhJ07dwqFhYXC0KFDhaqqKiEQCAjt7e2CIAjC/v37haKiIqFPnz7C9u3bBUEQhK6uLmHmzJmCQqEQFixYIJw8eZLdc0NDg1BYWChERkYKmzdvZtcQBEF49tlnBQDCvn372Gd+v1/wer3CY489JkilUuHxxx8XjEaj4HQ62fOyWCzs/IFAQPD7/YLP5xN8Pp/g9/vZd/T9twlRErlJQTEPMpkMHo+HeTMUCgUzYPr9fuaCDQQC8Hg8zH1InpeCggIUFhay8/bt2xf5+fno7OzEgAEDkJWVBaDbo5GWlobY2Fi4XC7mkiWROxAIYMSIERg9ejTT3SUSCQYNGoTExEQcPXoU58+fR3FxMYsjIS+IVquFx+PB/v37EQgEcOzYMfzpT3+CzWaDXC6HTCZDc3MzrFYrq5VCqpRUKkV8fDzmzZvHvCYKhQL9+vWDRqPBwIEDcffddyMyMhKCIEClUiE+Ph4KhYLZZwKBAGpra9HR0YGoqCgsWbIE4eHhzFBrs9lgMplw7tw5dHZ2MvctzcGMGTOYfcXn8yEzMxMxMTE4d+4cWlpamMFY4NzqZrMZFosFCoWCqS6jRo3Cli1bsHLlSmg0GgwdOhQFBQXIy8tjxlayhwi9SKURSeQmBR8/IHxZ5YyPa/D5fMwDIZfLWVAT0G1YpbwbMmaSsVAul0Oj0UCv1yMxMRFAdwAaxXkolUoWRMWXaCTXKu/tsNls0Ov1CA8Ph9/vR3NzM4vDII8DEZ5MJsOxY8eYy3Pz5s3MO6FUKmEymZCVlcVIjMofOBwO5jlyOp3w+/0ICwtDZGQknE4nnE4nVCoVrFYri1+JioqC2+2G0WhkhNDc3Iy2tjYIgoDy8nJm+KX7SUpKQnR0NBISEtgi1mq1UCgUQcF25CIn74rZbGa/4yN4zWYz9Ho9I3elUok5c+bAarVi5cqVWLZsGVavXo38/HzMnj0b99xzD3u2dE+9BSKJfAdAu3JcXByUSiVbGPSCut1uJpFQMBgZEykOglyobW1tcLvdQcFfJL1QzAPp5wSKtyBicjgcjHBIWtLr9cydTAtMKpXC6XSyqFWVSgWZTIZx48Zh7ty5sFgsUKlUUCqVsFgszDPDx2k4HA4olUpm6wkdE8WQkBuVFnh0dDQjUIp0VSqVGDx4MBYuXIiIiAgWpWq32xEVFQUA6N+/P4sXcTqdbH5pLBTvQtflyRYAI2AyJBOxuFwuyOVyzJ8/H6Wlpdi7dy/Ky8tRXl6OI0eOQCKRYPbs2VCpVNBoNL0qP0okkZsUJNaSiqLValFSUoI+ffoEVT8DusPSSZwOBAJMIiFSoHgPPqiL1CM6hyAILFKUwsjdbjdUKhULPa+oqEBTUxMKCwsZYe3evRuVlZXQ6XTo168fW7hSqRRhYWFMlAeAMWPGYOfOnXC5XBg0aBAjIeHLgDIKbQcuhudrNBq2EOmapC4B3UFtfFYwxah0dXWxcHWpVIri4mIkJyejra0Nffr0QWZmJnw+H1OniGyJeClaVa1Ws/gZniwiIiIgk8lYEJ5SqWTnkkqlsNlscLlcUKvVzGPV2tqKpKQkpKWlITs7G2VlZfjd736Hd955B1u2bMF9993H3Nu9CSKJ3MTgQ9N1Oh1GjhzJFilFbFLAFR+q7XQ6WfCTTCaDUqlkZEQ7JO14pGoQMZEaIZFIoFKpWLSrXq9HeXk5fv3rX+Phhx9GQUEB2tra8MYbb8BsNmPGjBnIzc0NSiiz2WxsnAAwc+ZMLF26FMuXL0dSUhImTZqEpKQkOBwO2Gw2bNu2DRkZGZg+fTqioqLYguzq6mK5QDR2klYoV4UIQafTMbWD8mtUKhUGDx6MkSNHYvXq1Xj++efxgx/8AFlZWbDb7TCZTNi7dy+ioqIwc+ZMZl8huw5JbWq1Gl6vN8i9DYDZcIDuaFefz4fVq1cjNTUVSqUSGo0GaWlpWLFiBeRyOcaMGYOIiAh0dHQwCZI2gd5GIIBIIjctyM1Hod1+vx9Wq5Ut7tAMWIrIpN8bDAYmivPV0WiRBwIBWK1Wpn/Td2SHIEnA7/fDYrEgLCwMBQUFaG9vx29/+1totVoYDAacOXMGEyZMwEMPPYSEhISgwtKkhpABs6CgAD/84Q+xfPlyvPrqq9i4cSMiIyNhNpsBdNttfvjDHzLVwmAwwGKxMAMylUMAgM7OTqjVarbwSKLhw+ftdjtsNhs0Gg2Sk5Nx//3348KFC9iyZQs++eQTFBQUQBAE2Gw2WK1WTJs2DVOnTmWkSsFoQDeh0zwTEZOayYfNFxUVYdCgQfjkk09QV1cHr9eLn/3sZ8jNzUV9fT0+/PBDZGRkIDw8HG1tbXA4HBg7dizmzp3LJEj+ur0BskWLFi260YMQce2g3A8iBaPRiAMHDsDn8yE6OhoKhYKlmTc3N2PQoEGYNGkSy5Ghl7usrAwFBQUsr0b4MuBMr9dj+vTpzJBIxtKmpia2a4eHh0OhUKCpqQkfffQRZsyYgfnz58PhcMDhcCAxMRFlZWV46qmnMHr06KC8HVInpk+fzharRCLBkCFDUFhYiMjISFitVgiCgIiICOTl5eGOO+7AHXfcgejoaLaQurq6UFhYiLFjxwYZa51OJ9ra2tCvXz9Mnz49qEyCxWKB3W7H+PHjMXr0aADdCzw9PR2jR49GVFQUk7J0Oh0SEhIwffp0zJw5E9nZ2cwz09raiqysLIwZMwZJSUnM++N2u9HS0gKZTIZp06YhOzubzW9ubi5TbTQaDRISEnD77bcjNTUVQHdCotFoREREBBISEjBo0CD8+te/xrBhwxjB80l/dL+hJSK+zRKTYrX3mxS0o9PfBoMBf/jDHzBu3DjMnDkTQPfCcLlcLH9Ep9OxlHiLxcKOJfFfIpHA7XbD5XIxO4lKpWLHuN1u2O12uN1uxMfHs51x6dKlePLJJzFv3jz89re/hSAIsFgsUCqV0Gq10Gg0zPVMdhmHw8FUGZ1Ox1zSZGtobm5mdg7yMmk0GqZiud1uRgh+vx8xMTHsc5VKxSJHaWFrNJqgBDebzQaFQsFyU8jVS9+T54YKYet0Oma/IVXGarXC7/dDr9czNzfZqrq6upgRm2xIJDH6fD50dnYyVZLmh+w1JOWFzh//7HlCvtEQ1ZmbFD29PPxn5BWhF5BPIw8EAiyxjVysdCztkKEtJ2QyGXO38vUz6Fq0YDUaDVQqFaKjoy87TplMhoiICCbmk3rDx1GkpKQA6CZC+oz3dJBBNCwsjLmzefAGSz6blxY2JRry5Q2IMMhtS2RBcxQ6t5SgSHYo+p1UKkVERASbP756PdljkpOTg1pm0Dgpn4jOx4+xNxEHD5FEvqOgHZwWDe854D00BJIQqGAPX12MX8RERG63m4nVpFrQLkquVrKjkJ0itOpaaFV6nkx48qLr82RF5+HrfBDh8N/3VAqACJXumciMV3n4/1PGMp2HPFR8rAadixBqAA2dRyIIvlQCfc6nBPDXpDH1tvwZkURuclxJIuFLBhKp0PdEGLyKQYuXXm7+XPxiJKKhF71fv36YO3cuhgwZwsiJPx8RDy/ZkPTA7/b0O/4z/hh+UfNeHX4OaCHyVdD4Ikz0/eUWJX9c6Hzy4+HrldD80nc8KfHzz4+PQGTG/+HHwRMO/5veJI2IJPIdA6+WABdtJz0VyOGPCVUHQo/hQYuR/n3bbbchKysLMTExQZXRegIvwocuOgJPeD2BpKvQeyZ3NP2bJ7LQ+7mcasCTTU9j56/FH8v/n5dKqFBRKBHxXqrQeb4cSRA58i7j3oDeMxIR14TQl+xyL+LlFvOVcLV6FbQTU6UzjUbD6qSGHhu6w/a0OK6k1vS08/J2hJ7OyUtUoePmJQb+9/Q9v+vzpMDfAxBcYaynOQ6VOEJ/w6uPobiSlBEat9MbIJLIdxSXW7RXE4X5l7OnxUOLjBYR38KTbCOhC7yn64WqK5dTH4DLSzWhKgT9m+JhQs9HkglPQqH319OYL3cPPSF03nta7KEkeKVzhRJcb4RIIt9RkEU/dJGEGi95o2UoQVzpxaXF2lNdELJ39HQsn30cCn6svNekJ0kkVO3gieZy4+9J0uhJKuFVjZ7Au9f543si7p5I4HLf85/1NDb+3nsToYgkcpOBf+l4IqDQ7tAFQr8NxdVsA18Fl9tNr6SvX2lxXk4iudrvevr+ap9/3XMD6JG4LnfOq6mT16rO9EaJRKz2fpMiVO0QIeJGQSSRmxRXsiGIEPFtQt6TUUnEzYFQt2Hov0WI+G+B541LSIQgvoi9H6HGUfqstxneRHz3wL9jl6gzPbm8RPQ+8GHUFBHJuzBFiPhvg941OSBKHTcjeAnkcu5AESL+W+AlEfnXiWgUcePBkwaf2BZa01OEiP8WWG4U0B0c1NTUBIfDAZ1OB6fT2SvLsH2buJpKcLmIRD468uvEMnzV61PFc0JnZyeMRiNaW1tRU1Nz1eP/G0RzuWvyuxY/P/z/Q207X3V+Lve70POH4pvO/60g9fUUrEiQyWSIjY1FREREN4lUVVVh8eLFSExMhNvthkajCSpuK+JShL70od9djUSuB6iQD5Xha21txcGDB9He3n7VY69WLfxaw7yvBaGq2Nc5b0/ExB93LYQk4lL0tEny822z2dCvXz/ceeed3STS2dmJ+vp63HHHHaw0m0giXx1XWxChuBIBfVWQ2kItCCIiItC3b9+g4kNfZcw3CpcjAfruWo6/3PehEMnk66GnHKdPP/0U1dXVmDhxIuRUECU8PJzV4KRyeCKujmuNs7lSYta1nIfvLeP1elmJP0ps+6bP71rF/WtZoFfL6r3W811pXNfjnLciLpeUSH+sViuOHTvWbROhKtVUhIayMkXj3NVxpboP33SRfJUXnpLlBKG74hffLOpqz++/QTJX+iw0me56kUhP57+WMYvoGVeT5MLCwtg7J6cv1Go1681xuaIstxK+ikh9pezN673DhoIv0txT2vvV8E3HcTldmf8+dD74hc6/X9djTq507a9znVvdsHq1+/N6vayZmBy4WHOTXsbe1NPiRuHreGdCC9n0dMy12k+uhNBCx1QR7HoYdb+KYRO4NJv4csTKW/qvFFX7TebnaoF21xLJe6uTSChC5466//n9/m51hnqBAmCt/W51fBV146uoM1/1fF8HoTU7yLP2VaTI67lIepJEQo/vaU6ut3H3m0of1+O47xKu9HyoAbxMJrsYsUovXm/qNv5tgJo58/EL/P+pDCB1bueJw+12s4nkWzVSsZ6eCJnOQ14VctPy0h/VBeF7sfREDHa7nTXiBi7WTqXz0b3wY/b5fLhw4QK2bt0Ko9GI1NRUTJ06FRqNpjuE+UtpNPRe6uvrUV5eDpPJhJycHIwfPx5RUVGsqhlfZNnn8wXNGfWCoXGE3iup0GQYlslkQc2w+aLIoXPlcrmYUZnOp1Ao0N7ejnXr1sHpdCI9PR3jxo1jnfNonLwrno6n80skEjZ+vmkU3wuX/5zend5W//Sb4EpESkb9QCBw6xYlopeBrzhODbI7OjoY06rVakRGRkKv17OG1xTkRcebTCZ0dXWx0v/R0dGIiIhgBELtFfgCw9Ta0e12BwX2hTZs5pslSSQS5okBwPqe0GKg39I9EfFQ8CB53c6cOYPnnnsOLS0tGDFiBDIzMzF48GB2TfLQAWASalVVFf7617/ixIkTuOeee1BcXMyaYdGiobHTsTRPSqUSDoeD9aE9f/48a5Atl8vh8/mg1Wrh8XgQFxcHpVJ5SdV4IiqeHAGwOaaeu0QwBw8exIIFCxAIBNC3b1+88847GDp0KNxuN9RqNVsgdB46nic06lFMYxGE7pacDocDKpWKzbfH44FEIrmkNcetgluWRPjdgt9Jjxw5gg8//BDnz58H0O36HjhwIB566CHExsayl4de5La2Nixbtgz79++Hy+WC1+tFdnY25s+fj+LiYgC45OXyer3wer3QarWXSH58mwfqQsfvivR7u90OnU4Hj8fDdmL6He3aVOqPmlsDYF3j6PzU1JvGRT1nSMqhAsx0TQCsGThwqUGTpCi+wZVEImG9aIxGI95++23U1tZCoVCgq6sLKpUKZrMZSUlJGDp0KIYMGYLi4mJG3LSIeSkkEAjA4/Gwfrv0GUlPfr+fjddut7P5CbX3USc9ugb1yaF5lslksFqtOH36NNrb2xEfH4++ffvC6/UyAiPSvlWzp29ZEiHRmP4NdL+ElZWVeOutt4JezMrKShQWFmLKlCls9yFSINI5dOgQO3dCQgLGjBnDSISaKtHC4uNwSCQm0Z1vuUC/6ylDl3+BnU4nO5YkHgK/8EitABAkQTgcDrjd7qC5ISmHb9NJUonBYAhqyUkEx0sPCoWC3TdVhAe6d/x169bhxIkTQfPV2dkJv9+P9evXo2/fvnjqqacwe/ZsqFQqJkl5PJ4gmw9/PaVSycYnk8mQlZWFZ555Bq2trSgsLERcXBy7b2orKpPJggieVFsiIqfTibCwMBw7dgz/+Mc/UFlZiYyMDPzmN7/BkCFDmCpHxEvP6FaTRm5ZEgEQtFsCYCI27X4JCQk4d+4cGhsbsW/fPgwbNgxRUVFscfl8Phw+fBjV1dXMUi0I3Q2xqRk13wSKXi7a7Ww2G9ulpVIpnE4nNBoNfD4f3G53kATBt2okScbpdCI6OjqoKx2pM/wuTYTF78Jut5tJDWFhYVCpVPB4PKwjG6kZdD6NRsMkoejoaCbGU59ckoLIxkAxBGRHEgQBDoeDkYFarYZMJsNdd92FuLg4eDwebNq0CU1NTUx1GjFiBHJycuBwOBAZGQmtVotAIACz2cxUm1DVj+xQhYWFePbZZ+Hz+RAVFQWfz8cIkexXtPidTif8fj/UajU7h1wuZ/amjo4OVFRU4MSJE3C5XLDb7WxueAM7b1u5lXDLkggt7lDIZDJotVp4vV6kpaVBEAScP38eBw4cQGtrK6KiohgZ1NXVYe/evbDb7Rg6dCiam5vR2dnJqp3TNWhXrqmpwd69e1FVVcVsHGlpaRgwYACGDh2KmJgYeDweLF++HAcOHIBMJsOkSZNw++23s8UtkUiwZMkS1NbWQiKR4P/9v/+HjIwM1NTUYM+ePWhoaEBXVxfrwZuWloZx48ahsLCQqWH8wg8EAjh69CgqKiqwb98+eDwe5OTkoKysDIMHDw6Smqipt8fjYbs5kc3x48dRXl6OpqYmdv8DBw7EbbfdhkGDBgHolhw6OzuhUqngcrkQExOD+++/H5MmTYLb7caQIUPw1FNPwWKx4NChQzh27BiysrIQHR0NiUSC2tpabNu2DbW1tbDb7VCr1YiLi0NeXh7GjBmDxMRE9myNRiNef/11uFwuZGVlYdasWYiNjcWOHTvwz3/+E8XFxbjrrrtgNBrx6aeforOzE4IgoG/fvpg1axaio6MhlUqxePFirF+/Hs3NzQAAq9WKt99+GytWrMDUqVNRWloKrVYb1ALjVgvWvGVJJLTHKxnGPB4PM5xlZmYiJSUF69atw/Hjx1FZWYl+/fqx4/fv34+qqirIZDJMnz4d5eXl6OrqYt3eSWQ2Go3YsmUL1q1bh88//xxdXV2s8RMAFBQUYNasWViwYAFUKhV27dqFJUuWwOv1wmAw4Pbbb4fH44FWq0VLSwv+9re/oaqqCunp6Zg3bx4aGxvxwgsvYNeuXWhvb4fL5WI7ZFhYGO666y48+uijGD58OCM2WujNzc1499130dbWhoaGBni9XkRFReE///kPnnzySZSUlDDVT6VSMU+UXC6HQqGA2+3Gpk2bsHz5cpSXl6Ojo4PNcXJyMoYNG4b58+dj6tSpjEz9fj+ztTgcDiaxzJkzB7/97W9hNpuhUChw4cIF+P1+uN1ulJeX44MPPmBeJblczuw/BQUFmDJlCh5++GHk5eVBLpfj2LFj+OMf/wi/34+hQ4eipKQEsbGxaGpqwsqVK1FRUYFTp06htrYWu3btYqSfkJAAg8GAp556CjabDZs2bcKWLVsgCAK0Wi1aW1vx0UcfAeiWDouKipCenh5EHLcSgQC3MInwuitZ7GlxkN0jNTUViYmJ2L59O5NGpkyZgqioKJjNZhw4cAAtLS2Ii4vDiBEjcPz4cbaAqZETAFRWVuL111/H3r17IZVKMWnSJMTFxaG5uRnV1dU4ceIEampqkJKSgh/84Ae444478NFHH8Hv92Pfvn2or69nu2xVVRWqqqogl8uRmZmJvLw81NbWYuPGjZDJZBg/fjxyc3Nx9uxZNDQ0oKqqCsuXL0dGRgbrletyudjO2dbWBovFguzsbNxxxx2orKzE6dOn8cknnyAzMxPZ2dnIyMhAIBBghkpSWwDg5MmTWLJkCTZu3IjIyEhMmTIFiYmJOHfuHPbu3Yv169dDIpGguLgYqampTLIhlSA8PBwul4vZfchgSySnUChw5MgR/PnPf8bOnTuh0WhQXFyMIUOG4OTJk6ipqUFlZSXq6+sRHx+PPn36QKfTISEhAeHh4TCZTPB6vTCbzezZu91u1NbWorq6GmlpaZg8eTL+P3vnHWd1eeX/9+11+jAFBqYPMMzA0ESQXhUBFQuGKBHNRlRcNflpjMZsdBM2a15Gd1fdDSq6CrZILBSlC0gbqiIgZWCAKcAw7ba5Ze69vz8m5+F7R9Cskhj1fl4vXty55Vue7/Oc55TPOScQCLBv3z6ampp4+umn6d+/PxMnTuTaa6+lpaWFrVu34vP5sFqtTJw4EZvNxoABA0hISAD4nFn8fSql8b0TIp1zLKLRaIyHX/waEvUYOXIkb775Jg0NDWzfvp3PPvuMYcOGceTIESorKwGYNGkSpaWlivMgvgZA2fp79uwBYNasWcycOZPevXvj9Xp57LHHWLx4sXI4Tpo0iXHjxpGfn8+JEyc4duwYu3fv5vrrrycYDLJ06VIAbDYbU6ZMwWg0kpqaym9/+1tMJhOXXXaZCkN+9NFH/PKXv8Tj8bBx40ZMJhNerxez2aw0IafTyaxZs7jllltwOp28/vrrPPnkk/h8Pj788ENmz55Nbm6ucvTK+FitVqUhbN68mUgkwo9//GN+9KMfYbPZ8Hg8PPbYY7z11lusXr2a6upqsrKyVNgcIDk5GbfbTUtLC0ajkT/84Q+KG2O1WhkxYgSRSIR169axYcMGTCYTEyZM4J577qG4uJimpiZefPFFXnzxRVwuF2+99RYTJ06kvLxc+S4AFa4V34xsHllZWdxxxx1ce+21tLW18Ytf/IJly5bR2trKwYMHmTZtGjfeeCMmk4mjR49y/PhxCgoKmDNnDhUVFdjt9hiejsyn75MAge+hEPkiaJmXMuEKCwsZNGgQmzdvZufOnWzfvp0hQ4awevVq9u/fj16vZ+jQoXTv3h2dTqcEiMViwePx4PF42LBhg1K9Z82axZgxY4AO/satt97Kzp07qaqq4tNPP6WmpoYePXowduxY/vu//xuAyspKJk6cSCgUYtOmTUAHR+SSSy7BaDSSkZHBLbfcwqZNm1ixYgUtLS14PB4OHz4cQ/wSM0Ib0paaEIMHDwZgwoQJrF69mm3btnHixAm2bdtGRUWFWvh6vV45OMPhMB9//DGNjY3Y7XZ27txJXV0dSUlJ2O12du/erRzFu3fvpqysDJPJhMvlQq/X43a7+eMf/8h7771HIBBg/fr1nDlzBpRzr7IAACAASURBVIvFwowZM8jPz6exsZFVq1Yp5/OMGTMYOXIkRqOR7t27M3fuXN59911cLhf19fWcOXMGt9sdU4NWCIFax2d7eztDhw7luuuuo7CwkJaWFgYMGEBlZaXiCUnIWCJRwlFxOBykp6erUHooFFJj+l0hmv1f8P2747/gr/Giu91unE4nQ4cO5d133+X48ePs27eP/fv3s3//foLBIL169WLw4MHodDp8Ph+AYmmaTCY8Hg8tLS20t7fjdDrp1q2bEig2m41x48Yp4dPU1ITL5aKtrY0f/ehHvPjii7S1tbFu3Truvfdempub2bt3LwBDhgxh2LBhANTU1DB//nxWrFihNB6LxaLKBOh0uhjmrGgTcq1dunRRKnhJSQmFhYVs374di8Wifi+/k5Cy+HNOnjxJJBLB5/OxefNmxTuxWCz4fD6lWUi4tKWlBZvNpqIia9asiWHt5uXlMX78eO6++25sNhvNzc0cOnRImTsTJkxQ0RW/309SUhJ5eXlUV1fj9Xo5ceIE48aNu2AejRwHOgRxZmYm0GGOCOENoKmpCZ/PR2JiosorE5amCBWBmMDa/r7fpyjN91aIXAjaUJ1oJD179qS0tJTjx4+zadMmgsEgGzZsoL29nWHDhpGbmxszYSWHxWKxqDAidDjiRIBImFNCrVarlczMTDIyMtDpdPTt25fi4mJ2797NgQMHOHDgALt27VIkp0svvZRwOIzb7Wbz5s0888wzeDwecnNzKSsrw2AwKL+NhI6FQi7XIb4foZjLApPvCf8COpir8j0JV4tWIqZRRUUFpaWlNDY20traSnp6Ona7nUAgwJAhQzCbzbS1tanFaLfbKSsro1u3buj1egoLCykuLmb48OGUlJTQ3t6uQqkypm1tbbS1teFwOHA6nZ9jEAvLVK5PuEAiVESAyLW43W4VSo9GoyrqEwgEVChdImOBQACv16t8Slra+/c5afV7K0S+bKeIRqM4HA4MBgMlJSVUVFSwcuVKDh8+TH19PS6Xi7S0NMaMGaOIWdoFJg49IS4BtLa2UlVVRVlZmdIMVqxYQSAQUNwEnU6n/p8yZQq7d+8mGo3yzjvvKMds9+7dGT16tFo0K1euVAzT2267jRtvvJHExESWLl1KbW0tR44cUWQy8fW43W4laOrq6rjkkksA+Oyzz9i/fz9GoxGz2UxCQoISPKIBiIYiDmkRNuPHj+eOO+7A7/croeX1emltbaWkpCTGlyIC6Pbbb+fSSy8lGo2SkZGB0WgkOTk5hqHbvXt3ampqcDqdfPjhh8yaNUsJBXGuQoeW0bt3bxUZO19GsWgNcs3yHEQzlDHSEhG13xPNREwkrdYhv/m+CZTvrRC5ELR2cyAQUOrrkCFDKCgooKqqCpfLhcFgoF+/fpSVlcUkh0WjUeW4NJlMJCcnM3r0aGpqamhra2PRokVYLBa6dOmC3+/npZde4vTp00CHiZKTk6Ocs5MnT2bevHnodDree+89Tp8+jdlspri4mNLS0hhquza5zWq1cuDAAbZt20Z9fT3Q4X/R6XTY7XZ8Ph8pKSl4PB6qq6tZvHgxdrudxMRE3n//fY4ePUp7ezu9e/emvLxcqepms5lwOIzf7ychIYGkpCT69evH2rVraW5uZv/+/ezatYuCggKgg9kqmltubi52uz0m87itrY2CggJ69+79uTIC4ltITk5m1KhRbNmyhYaGBhYsWEBGRgZ5eXk0NTXx0ksvUVNTg9VqZcCAAWRnZwMoLQY6Fre2cLMIw1AopM4bCoWUhqGFXq/H4XCQlJQEdGhkH3/8MaFQiKysLLp27RpjKn6fzBjB91aIfNnDFr+G+AR69epF3759OXz4MNAxMQcMGEBaWpraebTMUYvFoibq5Zdfztq1azl69Ch/+tOfOH78uCIlbd++HYD+/fszY8YM0tLSgI5FUFxczIABA9i+fTs+n08Jq6FDh5KQkEB7ezsej4fx48ezZMkSfD4fL7zwAu+++y6hUIjjx4+rCIXQ3bWOQFlca9euZffu3aSkpFBVVUVjYyNms5nRo0eTl5en1Hy5R52uozwewGWXXcaGDRtYs2YNixcvprKykqKiIpV/s2fPHrKysrj66qtJSUmhpaVFJR+Gw2Gam5tjaOhwrsSB2+3G4XAwefJklixZwr59+9i0aRM/+9nPlEawZcsWIpEI+fn53HnnnWRmZir6u6BzlrY2c1eer5g+oo1oGcJdunShqKiIzZs3c+zYMf7zP/8Ti8XCddddxw033ECPHj3UdX8f8b0VIl8Eia4YjUbFrszNzWXgwIGsW7cOl8tFcXEx06ZNU445cchpU95bW1tJS0vjmmuuoba2lqVLl/Lxxx+zY8cOtRtK0tnEiROZNGlSjN2elpbGjBkz2LdvH8FgkKSkJHQ6HZMnTwY6FnRmZibjxo1j0qRJfPjhh5w6dYqjR4+SkpJCZmYmWVlZHDp0CKfTqXZZh8OB2WwmMTGRa665Bp/Px8qVKzl69CjhcJju3bszduxYpk2bpngQ4vwUApuESceOHUtdXR0Oh4Ndu3ZRW1tLbW2timzk5uZSXl5Oenq6GtuEhAR0Oh1JSUnKHwSoiI8sRrvdjl6v55JLLmHu3Lm88cYbHD58mIMHDyq/TXZ2NgMHDmTq1KmMHTsWvV6P1WpVppAkMWqTAUXTEX+OwG63Y7PZaGxsBFACpqCggLFjx/Lxxx9TXV3Nvn37iEQijBs3joSEBDU2Wn/S9ynMa5TQlMTR4VxNje8iOmsgsiNLNKOsrIz7778f6OB/tLa2KlX28ssvR6/Xc/LkSfr06UOPHj1i8mFuvfVWioqKSE5OZuTIkWrH1el03HzzzQwePJhPPvlERRLsdjuFhYUMHDiQkpKSmJ3MarUSCoUUNdvtdmO1WsnNzaW0tBRAEdqys7N59NFH2bBhA4cPHyYUCpGTk8PgwYM5ceIEW7duZfDgwSpXKD8/n5kzZ2KxWBgxYgQJCQmMHj2aqqoqHA4HOTk5jBkzhq5du6rrGTx4MPfeey+1tbX07duXbt26KY3ruuuuo6ysjMrKSqqrq5XfxWg0UlZWRkVFhdKErFYrt912G4MHDyYvL4+ysjKAmCRCESQi9CwWCzfddBPl5eVKUIlvJjc3l/79+1NcXBxT7yUrK4tHHnmEw4cPM3z4cCXsS0tLufPOO7HZbIwfPz4moXHAgAHceeedNDc3c/XVV8doI1OmTCEpKYlt27YRDAZJTExk7NixJCYmqmchDt7vWpi3c7U5rTYHoAuFQtEVK1bwyiuv8L//+7/fm6JE2ozWzkV7mpubCYVCahFpa41I8hd0ONmEFyI1M1wuF0lJSSo6oC2a3N7ejs/nU7a3OBpTUlJizi/XJKSr+vp6nE6nCotKRqqwOsUf09LSokLL4o9xu900NTWRmpqqTCApAeB2u8nJyVGcDTEDjEajugc5nl6v58yZM/h8PrKzs5XDWJs/4/F4lNNUTAS5N+3uXF9fr5yS6enpGAyGmCJN2kJQko4AHQvV5/Op0LUI/6SkpJhyBqJtnDp1CrPZrBIGJRrV0tJCOBwmPT09RjNpa2tTpQksFgsJCQmEw2HlWPZ4PLhcLlXASc7bmcSmnVvfRUSjUZYtW8b27du59dZbMYoWolX5/h6Nl75paAWIVrLq9XrFm9B+Lo7FtLQ0NVlEExChYrPZFPtVJpdk7MpiS0xMVLuXFiI0RPjAudoiWVlZ6nlIWFMbVpTziT9F3oOOeigigETltlqtWK1WHA6HWlh2u12ZLlqIem6xWMjIyPjc5+LUlajK+SC+IRES4vyU8em8COV/bSkE6DCpRCs8H0TYy+9zcnI+J5xNJhNdunSJcajKWNlsNrKzs2Oc61rzyul0fq4QlMwTreYuJu23HRe6B/FXSfqDUevFBlQaurYYzXcdEq6Dc8WAZAJrq5HJghENQDthpW5G5wJE4ogUaH0esmOLVqIVIHCuXoZOp1MhWovFotp6dA5hymsJvco1y3e1YUktB0TLpZDzSUp955KLcK7ymXbctDwMESoitMT/IN/TCsvz+Q7kmJ2LCMlvZfy0xZdEkGqhHVutiSHpCRCb8yLHFRNfKOwiMDpH7rRV3OT38vy+C5tw53vQauxapcOonQhADDPvuwxtPQlt8Z3OC1lwvpocspNFIhG1uM8H7eB3XhhyTG1tCtndpL6nOHi10C4eOYcIJREgQg7TLiCtZiXQfi6LReqjnG8sZH5oBa/8rT1WZ9+AtlqbXJtckwgIOFc6QXt8WcCd56uMhXbCa6uTdf5uZ4EiEK1Snn9n7UjGQsxH7fOQZyC/u9C4fdugHXfteEglOJW0Kip8XV0dW7duVfVAvwuS9IugLbsnxXhkkmjVbGGdas0SWQzCxgyHwzidTgKBAB6PB4vFouxmOKfBdC49IA8HUBNYG6Gw2Wy0trbGfFf8JJ2PIw5iIVSJhikVzOT6ZRHK/Yr9rq2QJufWZuvKsSV/RBum1U4uuX6tUNSGUEVA+f1+dSxZ2J01ChF42mLV2jGTsZXx6yzUJJ1AhLz2b7knreCTY2sLSws5TWt2aU0zrdCQUpbaBMxvM7RjK/cp7o8tW7aoIlNG6Cj/Xltby65du1Qz6O+CTffXQrvDyeKTRa01P7QTQ+p7iEDRLgibzYbb7Y5xrGqluSy6zl5u7ZgLZ0EWld/vjykRqC3Zr/WhaBeisEl9Pp8q46cN1UoIVGjrYsaKzSt+F1Hn5bplnERz0CaeCU3c4XAoLU27u8vv5Nq0KQYyljKecK5spNyfPAcRSufz34kg7SxstNcv72nLU2qfkVYQa7UsGW8xZ+S5a30r3wUBojXhtBur9JupqqrC6XR2jEskEsHpdFJYWMiQIUNUnsV33ZyRQZLXImll0ETqyg6vXYBi53fOy5AJLyq7VmhoJ5g2VKZ9SNpFCSgSltDUk5KSYiIospC05o+cX44t1yUh7GAwqK5HigppHZh2ux2Px6MqomtzaLQ7spgk2vOIwJCWGFqT53xtMORz0aRkoZ7P2S3PQRzcUgpSKzA6t3AIBAIqcqZ9BnJseV/GXc4ntH7RtuQ8IgC12oncc2et69u+CcszkfEVjVDSA6QoeSQS6Whe1d7eTnJyMoMHD45RQ//WF6l1cGkTqTwej8r07LxLd7Z/O0M7Ub7su3HEEcdXw6FDh9i5c2eHWfxNXYTsNrJ7yO4VjUY/V+jlq0Cr5nc+77d9l4gjjn8kfGNCRNRMOEcZ1+s7Km1fjEWuDTdq/8W1kzjiuLi4ID/3b73QxJTRZnVKVOBiCJHO2Zha4REXInHEcfHwjWki4uQTZ5ukYl+olcNXhdb7H0cccVx8fGOZQloSlAgTieVfDE1Em/59Pm7Bd4EMFEcc/wj4xoRIZ8KPXq/n8OHDeDweSktLv3YqtZCpOtOQtezROOKI4+vjG9uOJUYfCAQwGAzU1dXxu9/9jocffpidO3d+7eMHAgFVVEjLeYmbNnHEcXGhh/OHPbXZkxBbIfx80H4uBW7lOJ2hJQrJgvb7/VRXV7Nx40Z8Pp8qtivfEeKVlrp8vmOHw2EaGhpYtGgRzz//fIyDtbOzNY444vhq0MqMC5oznX0GWlaetm+JcDu04Vp5rSWTwTlfhDYN32azEQqFSEpK4te//rUqeiOsWa/XS0JCAna7Ha/Xi8Ph+FwClaTGQwdbUcoE+v1+brzxRpVB2tn3EkcccXx9XFCICOVVm1kJKKqypIobDAZ27txJc3Mz/fr1IzMzU2VEhkIh9u3bR11dHeXl5eTk5AAdFcVdLhcpKSkUFxdjMplIT0+nqKgIh8NBSkqKOq9er2fNmjX069ePtLQ0du/eTUNDA2azGbvdTq9evVR9Dq/Xy969e9mzZw/Hjx/HYDCwefNm7HY7GRkZlJaWqnyR71r1qTji+KbwhTwRbUo0EEPYEkQiETZv3swLL7zAuHHjuP/++8nIyCAajbJr1y7+7d/+DZvNxq9+9Su6du2Kz+fjueeeY8mSJcydO5fs7GycTidnz57l17/+NYcOHWLhwoXk5OQQDAbZvn07v/zlL5k8eTI5OTm8/fbbnDx5UqWqz5o1ix/+8IekpKQQCAR4/vnn2bJlCy0tLdjtdh599FECgQADBw7k3nvvZdCgQfHITBxxXER8oTnTuaaCVrBYrVbF6SgvLwfg+eefp2fPnsyZM4empibmz5/PqlWrmDNnDgUFBTGl+s+ePYvNZlMJWg6Hg4MHD7JhwwaVFWk2mzl+/DifffYZtbW1mEwmiouLGTZsGKdPn2bFihWq8vY//dM/YbPZKCwsVC0VrVYrffr0oUuXLhQUFJCYmBgP78YRx0XGF+r0wWAwps5F5+pRUvhl7Nix/PSnP+Xhhx9m4cKF9OnTh61bt7J06VKuvPJK7rrrLlUpLSkpSRXdveyyy1QlNW15PXGqAmRnZ2M2m2loaODWW29VxZCbmpooKCjgqaeeYv369fzTP/0T0WiUO++8UzVg8nq9PPLII8qMkorn3/UamHHE8ffEFwoRoaV7PB62b99OfX09NptNFenJz89XHcdGjBjB1KlTef311/n1r3/N4cOH6datG3PnzqWkpET1aDWZTFxyySVUVFTEVAJrbGzE5/Oh0+lUnYJAIEAwGKShoYHi4mJ+85vfqKZL+fn5XHXVVfzHf/wHZ86cobm5mWg0SmpqKk6nU6XPZ2Rk4HA4VHnB81XGiiOOOL46LihEtOHTTz/9lKeffpq1a9diMplUo+Wf/OQn/Mu//Atms5nCwkJ++MMfsmHDBj788EMcDgd33nknQ4YMUUVepH6FtCEMBoOEQiEcDgfRaFT18AgEArhcLhITEwmFQmRkZFBYWKhMKNEounfvTjAYpKmpiZqaGmVWSeVxaSCdmpqq6pJKT9c44ojj4uALHatSYapLly4MHz5cmRYS1h00aNB5C+BGIhHV67WtrU2VGIRzfV60RXaho/2CNLfW6ToaHMlnfr9fdZPX1vMULopOp8Pn86njS0Ok1tZW1bxaKnnFBUgccVxcfGl0BqCwsJDZs2erhej1elUqv/gWqqqqePnll2lqamLGjBls3ryZ+fPnU1ZWxhVXXKG6wWurfgtnJBqN0tzcjMFgUCFYbUVvqSrW3t6uyhJKtTHocAJLDRLJBPb7/epau3TpokynuD8kjjguLi4YppByaFIOLzExkZSUFOx2O+np6aSnp+NwOFR5vmXLlvHee+9RVlbGww8/zG233caRI0dYsGABNTU1qlJZOBxm3759vPPOOxw9ehQ417ZSTBl5T8tQlYQ9LclNBIOYS8FgEL/fH1PWz+v1Kh8OnCvKHEcccVwcXFCIiJYgZocsTDE3xAlqMBhYuXIlf/zjH0lJSWHOnDmUl5cze/ZsrrjiCt5++22efPJJVfjX5/OxcOFC7rjjDlasWEFzc7Oq7SnFiRISEpQW1NbWhsvlUlR5ERzSJApQdUdFGCUmJtKvXz+qq6v53e9+x7x583jyySepqqoiISEhTjSLI46LiAsKEWkXoBUc0n4AzjVbbm1t5YMPPqChoYGbb76ZKVOm4Pf76datG/fddx95eXmsXbuWzz77rOOEf/lNY2NjDF3d4/GQlJREly5dlDCRquDFxcXk5OTQ1tYGECM8unTpQkZGhtJUdDodKSkpzJo1i4KCAt555x2efvppVq5cqRo1i/8kjjji+Pq44JYsO/4XVa6W6MqwYcMoLy/n8ssvV45VnU7H8OHDmTdvHnV1dYrKbrVa+cEPfkBpaSkjR45UrRvNZjM/+MEPuPTSS2N8Hf369eOBBx4gLS1NVRgXp2pGRgYPPPAAXbt2JT09XfUDMZlMXHPNNaSlpXHgwAEikQh5eXn079+/46bjmkgccVw06KLRaPT9999n4cKFLFq0SNHatR3I4FyWrrZGh7SX0MLn88U4T7XH0lZgFxNEnKZfBPHLSGsDLemts6NUSv1r82O0LFXJ+Ykjjji+OhYvXszOnTu54447LmzOSC8U7d/Sb0OKIGudnM3NzaornPyura0tJmFPQrrSZV3yX4QKL2aMhG4lSqPlmEgPEgCXy6V6g3i9XnWdcK7FpbBftX0z4ogjjouHL1xRF0qXF2Eg2oW2W7uEZiW/Rt6TIkQQ28/2fP1rVaPgTgteNA6z2axaV8q5tA23tO0iBfF8mTji+NvgK2/L33Q9Dq1QOF+DqzjiiOPvg2+tEDnf+b/pa4ojju8j4jp+HHHE8bUQFyJxxBHH18K3Voh8UdHoeK/dOOL4++FbK0S+yP8R943EEcffD99aIRJHHHH8Y+ArCxFtDxdtnxntZ0Is03JHtJAiQXAuiQ7O0em1x9dm3mo/k+Oe73PJ/ZG/pQ5KHHHEcfHwlYWIEM2Eji7MUSGfSZavyWRS1HcxM8LhsGpGJQxUIZB5PB7MZjNGo1ExXiXxT1L9TSaTShAUyDmE4RqNRgkGg+rampub1bXEE/DiiOPi4SvzRERgaKvBa3NjbDab+o4sbqn7IQWG4By9XooMSUFnOQacyyiWKmWSaKdt2C3sVGlQ1bldplYDkdyeOOKI4+vjKwsR2eW1zFHRToLBoKpYJhXQBFoNob29XSXKBYNBDhw4wKlTp8jOzqa8vFzlzuj1enWMzseSKmtCsRftJxQKxSTmpaam4vf7FQU/nkMTRxwXB1/ZnBEhIT4H+SclFOV1NBrF7/crv4RoHSI8ZEE7HA7efPNNbr31Vp566ilVxEin0ynfifhNvF6v0m6sVquqbaLX65VG4vF4OHjwIMFgUNUhsVqtqtBSHHHEcXHwtaIz4pMQv0Pn9+S11WpVfoxoNKoWPXT4R7xeL6FQiLS0NDIzM2NMEZPJpGq5ioCQ32vNGK/Xi8/nU5rQpk2bePjhh9m3b19MIp5kCscRRxwXB195S5ZCyJ379YrmIX16pTq7mBkSSdHpdKoWiGgQs2fPZtKkSWRlZeF0OnG5XCQkJMRUVpOm3oCqvQodZo4IMpfLxZ49e9i0aRNVVVX0799f+WTOlzUcRxxxfHV8ZSEiPohjx46xc+dOAAYOHEh+fr7qD2M0Gjlx4gRbt27FbrczcuRIkpOTOXHiBOvWraNbt24MGTJEVTc7evQoR48epb29XdVKhY4CKHq9nmuvvZYjR46wfft21Raib9++9O7dG6vVSigU4sCBA6xcuZItW7bQ2NjIG2+8QWNjI3q9nrKyMoYOHfq5gktxxBHH10A0Go0uX748OnPmzGg0Go1GIpFoNBqNtre3q9fydyAQiIbDYfWe3++PHj16NDp8+PBoVlZW9N133416PJ5oNBpV33vttdeiXbt2jd5yyy3RmpqaaFtbW/SNN96IZmVlRYuLi6PV1dXq+//5n/8ZTUlJiT744INRn88XbWtri4ZCoeigQYOiPXr0iL722mvRyy+/POp0OqPJycnR1NTU6LBhw6JLliyJRqPRqNfrjb733ntRg8EQNZlMUbPZHLVYLNHExMRot27dok888UQ0jjji+Pp46623or/4xS+iJ06ciF5QE5EOdVIAOaoJ5Qr5y2azkZ+fz/Dhw9m2bRurV69m8ODBKoTa3t7ORx99xJkzZyguLiY9PR2LxUJCQgKlpaUkJyfHaAR+vx+Px0NzczOBQED15o1EIpw4cYKHH36Y0tJS5s2bRygUYvPmzSxevJj58+dTXl5O165dqaio4Nlnn2Xp0qWsWLGCuXPnUlhYSGJiIhUVFeftKRxHHHF8dXypOSORDBEier1emRvRaJRAIMDQoUNJTU1l06ZNNDY2kp2dTTgc5tChQ6xbt44ePXowZswY5SwdMGAAjz76KABdunQBUAWWpeaqzWZT/XvlX//+/bn77rsZNmwYkUiE0aNHs2XLFjZs2EBNTQ09evSgS5cu3HjjjbS2tvL+++8zcuRIJk+erK5dwstxxBHHxcEFhYiWrl5XV8eHH37I8ePHsVqt6PV6fD4fl112GSNHjuTyyy9n3LhxLF68mDVr1tCtWzeSk5PZtGkT1dXVzJo1i379+qlQbWZmJpmZmUBHtCQQCKiWmxI9if4lfGyz2ZTTdO7cuYwcORKdTkcwGGTAgAGUlpaydu1ampqaYiI64qxtaWlRPBQ5TjxBL444Lh4uKESkODJ0tMh87bXXWLVqFYDqc3vXXXdRUlJCly5dGDVqFO+99x4bN25kxowZtLe3s3HjRoxGI0OHDo3pcCcCSjgbYiaJFiKNqcSxKiSxjIwMmpqaSE1NRa/X4/V6lQYj4V2r1UogEKC1tVWRzqJ/Yc5KJfg44ojj4uGCQkT6u+j1ekpKSpg9ezZjx47FYrFgNpsJBoOUlpaSnp6OwWBg5MiR9O7dm+3bt1NdXU1NTQ1btmyhZ8+eVFRUqIiIlskKHRqP9KORfjJixkh4OPqX/JxAIEBaWlrHhRuNeL1e7HY7DoeDQCCg2K1atmpycrJitGoZsnHEEcfFwRdqImJmZGZmMn369M99R7sgu3fvztChQ3nmmWdYs2YNZ8+e5dSpU/zgBz+gsLAQs9ms+tSIYPB4PCQnJysHrsPhUCaHZPeazWbsdjttbW00NzcDKG1G22JC21tGWkO0tbXR2Nio2K3t7e1xnkgccVxkXFCISF9bQfQvdHUtm1QS6drb23E4HEyfPp3FixezcuVK6urqsNlsjB49Wi1c+d2RI0fYvHkzSUlJXHXVVcrs8Hq9+P1+2tvbFVM1HA4TCARwOBzYbDY8Hg92u11pNPIbh8OhnL4OhwO32004HObgwYOEw2FOnz5NUlISNpstro3EEcdFxF/dd0an031u4UnavThgCwsLGTp0KO+++y6hUIjrr7+enJycz/WR2bVrF/PmzUOv1zN06FBSUlJiBJb0tYGOqE0gEMDj8cRQ5kOhUMz3JD/GaDTS3t5OSUkJ6enpvPTSS9TX12Oz2Rg3bhwzZ86MC5A44vgSyLq6UBBCKBKRnQqX+gAAIABJREFUSCQ2d0bS9qPRLy/coy1KJJpGt27dGD58OOnp6ZhMJsaOHUtJSQnhcFj5OaAjozY5OZmcnBx8Pp+iz9tsNvr27UtWVpYyP/x+P8XFxQwcOBCHw6HeFy2oe/fulJeXK7+IUOEnTpzI7Nmz6dq1Kx9++CG7du2K583EEcdfic6lNM4H4ZAZ5QfaHrvaHf5CMBgMhMNhJUwCgQB2u52srCwCgQC9evViyJAh6vvSjNtkMtG3b19+//vfY7FYyMnJUYWMJk2aRFFRET179lS1RGw2Gw899BAej4fevXtjMBhUiDc5OZk77rgDl8vFoEGDlDYTjUbJzMzkvvvu45prrqGlpYWUlBR69eoFnHMaxxFHHF8Nsu51Ot05c6az0PhruBQSOhXnZ2trK/v378flcnHbbbdRUFDwuTyVSCRCdnY22dnZ6j3RUvLz88nNzY1hxobDYSoqKpS/Q2qViAk1aNAgda1aDcVkMqnziA8kFAp9rgF4HHHE8X9H9C9lPsLhcIcQkTckagLnUvq/6CCdv7Njxw4WL15MJBJh+PDhJCUlqUpkwjoVEpnUCTGZTKoKmkRRpGSiRGlEUEFHHRNJvtM6ejs365ZIkDh+JVwt2lOccBZHHBfGl60PsQii0WiHEBF2p7ZK2V/TAFs0DOF9BAIBunbtyogRI6ioqABQjby1dHMxn8RHIUQwKQsAxAgerXAQn4icV46p1aTC4bAKJUtlNak9IoIsLkTiiOOrQ9awwWA4Z84IsUsck1/mMxCTQWp9GAwGBg4cyC9+8QvKy8txOp3KbjIYDKpIkWgYcM4hGwwGlaDQ6XR4PB6cTmcM90MQjUZVGYLO1y58E/k8FAopAQIdzFe5lr/GeRxHHN9XaLX18/3v8/kIh8MdzlXoEAg+n4/m5mZFH/8yCHErGAwqdqnNZqOgoIBAIEBbWxuhUEj5IiS5Tqq5awWMSDWXy4XT6USv13PmzBkikQhOp1Mdy+l0qqLN2vByNBrF6XQSCoVwuVw4HA5lwuh0OlWr1Wg0KmH119xjHHF8XyFaPJyL1GgjNm63WxFCVXTm2LFjvPXWW5w9exabzRYTwv0q+DJz4cs+/7qL/MuO/3U1EfHDaDObRYMTIQeo8LW2hYa2Itvf6vq+afw1NrU2uiflLr/Mwf/3Gpe/9fz5piEET9H2ZcMVv6Sgsy/RaDRisVjYtGkTTqcTAGP0L+UKrVYrOTk5JCYmKs3g6+Cbfgh/6/NbrValtYkvR+qsSPy8vb1dDbyYc+Ik7tyA62Jf3zeNLxt/4SNJsW7hBOn1emw2G4FA4ILH+Hv4tL7p+fu3hrZWkF6vVxq9rH0JnMg4aGsnWywWTpw4oZJbjTqdDofDQWFhIWPHjo0hc/0t8WUP4R/d8enz+WKKL4k010a6JOdHIkVSkkDrEP6+QsxLnU6nJqNMZm0C5YU0kX/0+fGPDm3fJtEypFiXtjFdZ0igo7a2ltra2o7nKN3oJI1efAhxavgXw+FwqIeg3RnltXTqM5lMqqQBxBtnCbRjpo3KxfH3gWx2Iig6Kw1fJqy7dOnCmTNnOjRtg8GgMmflwcqO+rfEt11dlJC2lIkU3otIc6vVit/vx2w2x+ywIpy/74tG21pVxqKtrQ29Xq+SK+V7Wvyjz4tvC4QE2nkeCqFTu9mJsNFulOIHjEQiGGUhaBtKiU0Ux4UR/Uv7CVG7pWyCVoOTz8QXIn9LG9DvOzrzjCTVQWtOd568cVwcaOepYp7+JXrZ+bP29vYYU0esFfHrGWWn1O4I/wjmzLfB5pX+OhBrY4rfQ2vXy9hKmcbvO7QcINFKxNF6obn3bZgT3xYImVOxTjVjLv2spZSoUCm0Jo82/GuEc8k02qLMX1fqX4wQ6t/y/F/3+HV1daxduxabzcbYsWNJTU09J5k1JR9F0EQiEVatWkVtbS3Dhw+nqKjob3p93zS+bPylTq+UzTx06BCVlZVkZmYyduxY5XS90LH/1uPzbXf8fxm0jn25l9bWVg4cOMDhw4eZMmWKKhKm7TQJ55ziiuMlBBIJ4YjaIvaqNltP+7+YQKLayHG8Xi+A6pvb2NiomkeJySTH1ObJQMfEcrvdtLa2cvbsWQBFgtOeX0Kpck6Jd4s9p+VwaMOu4puQz7Wd+DoXXNLpdLS1tcVMWCk0HYlE2LNnD//2b//GBx98oOj7UiNWdtWWlhalqUQiEd544w1uu+029uzZQzAYVPR9sS/F1gwGg/j9fnU9bW1tMWSf5uZmGhsbCQaD1NXVcfbsWRobG1VYNBwO4/F4Yu5Jxkm+o805kvsLBAJq8cg1aJnMsmtpSyrIMYLBYExeknxf6sFo71PbtVAm5//+7/8yZ84cTp8+rY6rvXd5rnKtLS0tasxk/gojWvsM3W43Xq+XYDCojhGNRs97XHlPzE2ZQ3Jcea2toCf3pp2HcrxAIEBLS4v6TL4n7GpxwGtfd16P2rkqz0OuW65BeEhyHO2z0j5jmbuyzmVMxJeXlJTEhg0buOeee1iwYIHikghkbmjXsWKsng/ycLUSSJwxMpBiS8kBrVarIqCEw2F+85vfcOTIEbxeLz/84Q+ZMGECCQkJ6uQejweHw6H62tTW1jJ//nyqqqrQ6XRcc801TJ8+XbXNFNq6qFoyceSflu4uklZMCsnd0VZ+l0GR33m9XnQ6nXIqaTUK+a5I4ISEBKLRKK2trSrbOBQKqb7DgCr9GAqFsNvt6r5lIYlZ43K5sNvtGAyGGBOpra0No9GorkcKU69cuZLly5cTDAbx+XxqzHNzcxk5ciTDhw8nISFBTRh5RtrsZRkjqWurTRc4ceIE7733HseOHePmm2+moqJCPXcJv8rE1Jog2vkhbGaz2awSIb1eL1arVbVClUVZVVXFihUryMjIYNiwYZjNZlwuF4mJiVgslpjWqeJ7SklJUfcRCARiKtbJ94PBINXV1bz66qvk5+dz2223qbkrY2o2mwkEAhiNRtWmxGazqQWpzfqW9+S+tGOmNVNlE7FarVitVtra2pQ2KucX57H4gbSLVegDWi7H5s2beeGFFxgzZgw33HCDuiY5ttQolnQUqRAojG+Hw6GuVfwccr0SYjebzQwZMoSioiJWrFjBFVdcQWlpqZr7Wua5FhcUIlobSCS72P3yz+/3Y7PZsNls+Hw+NeDyUN5//3127txJJBKhrq6O0tJSiouL1XG1/phoNMqGDRt45plnaGpqAiAvL4+rr75aOXFkIgmEnKQVHnBOVZNdQlijIuFlkkqVNBEUcnxtsqB2Fxa2qfTbEW1LBIB85vF4sFgsapGK4BPIsSRHSBsClgJOMq7a+xDVct26dbzyyiv06tWLgoICmpqaOHLkCEuXLmXx4sX85Cc/4Wc/+5lacNodX6sxiM0rO44IOL/fzxtvvEFVVRUDBgxQ9V0CgYBqVyrjo10gwWAQm80W4+s4e/asaqo+cOBAJchlrkSjUZYtW8Ynn3zCnDlzyMnJAVD3LrV3ZVcVIS7pE+KQFSFuNBrVcwyFQuzdu5cnnniCiooKxo8fT3Z2tuLvRCIR9d3Om6XMS7nPYDDIZ599RmNjI7m5uWRkZKDT6VTHAiEXysZqsViUYBEhJwJWziX9rP1+P3a7PSZBNRwOq42uqamJbdu2sWDBAlpaWrj22muV81la0GrXrWxEHo9HzX+hHLhcLvbt20dbWxv9+/cnISEhJr+svLycAQMGsGjRIiorK5UQER5U52x5gC8NEWhtQzmR3+/nvffe45133lHqp0wOeSBy4uzsbPr06cPWrVv56KOPlNQLBoNYrVallrndbt5//31VfEg0AlEl5WHLwLS3t2O321UVdzHDtNcrlem1k0TOl5CQoDQg7eBrhYYIufNpJFKSQDoFynsyqc1mMx6PJyZzuHPEQfswRAhLLVnxS8m9iVDy+Xxql7vhhht4/PHH+cMf/sDLL7/Mfffdx6lTp3juuedYunSpug4hv7ndbnV9or2EQqEYVdtkMuFwOPjRj37EP//zP1NWVqZ2Pe0mIoJdwtsyB+TZeDweTCYTjY2N/L//9/946qmn1Nhqq+f5/X5Wr15NJBLhpptuUhuKUA6k7KXb7QZQvYmcTmdME3e5FoHU2u3Vqxc//elPufXWW0lLS8NsNiubXuaUNlImYy85X9pWI+vXr+fuu+9mxYoVGAwGpUXLZiYOSOFbCZKTk2Oa3ouGqNVmtOQurXYi6+CSSy7hoYceYtq0aUpwac0LcSOYzeaYshler1fV+zGZTASDQRYtWsS8efPYu3evEm5iRqekpDBkyBB0Oh2VlZW4XK4YLsn56B9fas50RjgcprW1lVdeeYXW1lYKCgrIzMxUi0QG3O12E4lEyMvLo3///lRXV/P2229zzTXXxAyy7Pq7d+9m7dq1jBkzhvz8fI4ePaomlAyqSOdIJILX61V2v7SNkEUjD6yxsZFoNEp6eroSamKG6XQ66urqgA7ijOzY0GE2tLS0KBNNji/XoG2AJa0+W1tblR8hLS2NaDSqTDcxc0SVlYRHu90eM1FaWlo4e/asMj1sNhtJSUnqfmRxORwOQqEQmZmZ9OnTR91Pbm4uGzZsYP369SxevJipU6eqcyUmJioTMhAIqIUoglg7MdLS0pg5cyYNDQ1kZ2erMQsEApw+fZquXbtiMBhoaGhQ5qHRaCQ9PR1AhbMDgQD19fWqSbs0P0tKSiItLQ2fz0d1dTVHjhzB6XTSr18/tSkEAgFcLhc2mw273U5CQoIaF5PJRH19PQaDgYyMDFW8u62tjYaGBjIyMtSCLi0t5d5778XpdKrn4ff7MRqNnD17lqSkJNrb22lra8Pn8ykzLCsrK8bMtVgsHDt2jH379nH48GFqamqwWCxkZmYqf4rNZlMFs+RZ1dXVYbfbSU5OVmtD5rz4TJKSkmI24Pr6erp06aI0RKvVSr9+/cjPzyc9PV35/sRUksXv8/loamrC4XDg8Xjo3r17jPnldrvZv38/e/fuZf/+/dTV1Sn/Y7du3ZRGUlJSQk5ODtu2baO6upqysjJlqoqJ91cJEZm0ndVwES5ut5uzZ8+qhSeDEAgEYlLtvV4vI0aMYNu2bWzZsoWNGzdy9dVXK/U/ISGBYDDI4sWLqa2t5Ve/+hUnTpxQD1ZsbyHANDU18cEHH7Br1y7279+P2WwmLy+PrKwshg8fzmWXXYbRaKSxsZH/+Z//obGxkVmzZjFw4MAYu/Wzzz7jmWeeISEhgR//+Mf06NGDTz/9lDVr1vDpp58SCATw+XwkJCQwcOBApkyZQlFRkbo3r9erNIOtW7dy6NAh9u/fT2NjIz169GDAgAHccsstSnhBh7YhwkrbsMvj8VBZWcmyZcs4fvw4Ol1Hn5w+ffpw0003kZmZqSabtr2o7NKiRSUnJ1NUVMSGDRuor68HUDtdTU0NS5YsYdeuXZw8eRKz2UxaWhr9+vVj8uTJlJSUqF1Xr9ezaNEiqqurufHGG+nZsyd6vZ6qqirmz5/P6NGjVdvUgwcP4vP5KCgoYNq0aVx66aXYbDZOnjzJ/Pnz+eijj/D5fNTU1PDggw9iMpnIy8vjl7/8JSkpKezZs4empiaGDh2q5pDRaKS6uprHH38cs9nM1KlTmThxovLHrFq1iqeffpqRI0dyzz33YLFYOHPmDI8++iiRSIS7776bsrIyvF4v1dXVvPLKKyQlJTFnzhwSExMJBoO8+OKL1NfXM2XKFE6ePMmaNWs4evQoycnJDBs2jHHjxtGrVy8ikQiVlZVK8zYYDKxZs4aamhr8fj+zZ8/mqquuiklaE6G2d+9e/uu//guz2cyTTz6pfEAinCorK3nxxRcZNGgQc+fORafT8e677/KnP/2Jvn378sADDyhtqKqqiueff55x48ZxxRVX4HQ6OX36NAsWLMDj8XDDDTdw9OhR/vznP9PY2Eh6ejpjx45l2rRppKam0tTUxBtvvKGeq16v59VXX2X58uXYbDbuuece+vXrRygUIiMjg+7du/PRRx9RXV1N3759VUhYu9a/VIjIoGj5Ddr8ENkptZ5qsV9lcYjvoU+fPowfP55PP/2UN954g2HDhqldC+DTTz/lgw8+oF+/fowZM4YFCxYoe1N2SavVSl1dHX/84x9ZuHCh0lBMJhM7duzA4/EwZswY/H4/48aNQ6fTceDAAf785z9jsVgYOHBgjDmxd+9ennnmGYYMGcIdd9xBc3Mzr7zyCq+99hpms5mkpCSi0SiNjY189NFHNDU1ceedd5KVlaWcUA6HQ33W1NSEy+XC5XKxbt061q9fj8Fg4Oqrr1ZOQDEDTCaT0kza29t5/fXXeeaZZ2hsbCQjI4P8/Hz27t3LqlWr2L9/P7/+9a8pKCggGAzi9XpjbGpxJtrtdo4fP05dXR2RSISysjL1/GRBLl26VN2b3W5n586dvP322+zevZuf/exn9O3bF5PJRFNTE0uXLmXHjh0MGzaMPn36AFBdXc2f/vQntm7dSnZ2Nh6Ph/r6enw+H2vXrmX37t08+uijjBo1CoCmpiYaGhrw+/1Eo1FqampUxKytrY2UlBSOHj2Kx+PhkksuAc4577p3747b7eb111+npqZGNWw/dOgQ//7v/87WrVsZNmyYmmv19fX8+c9/xmw2M23aNMrKynA4HNTV1TF//nzy8vK47bbb1Pytrq7mj3/8I+vWrVPzu729nd27d7NkyRLuv/9+tbmEQiGOHDlCY2MjNpuNs2fPKk3i9OnTMU7KSCSifFwul4tVq1Zx/PhxtZHJ5tre3s4rr7zCyy+/TGpqqtos5ZnU19dz1113KX9Qc3MzTz/9ND6fj6uvvlqtObne9evX4/f7lX9l48aNLFmyBI/Hw5w5czAajbjdblpaWvD5fLjdbg4dOoTNZqOkpERFKE0mE5mZmXTt2hWfz0dtbS0Qa5l0tlK+sO+MIBwOK9tITBVRaZqbm5UKLtEZ8UL7fD7lNZ46dSovv/wye/bs4ejRo2RkZKjw3/r166muruaBBx6guLhYDagcR0KFq1evZv78+dhsNh577DFKS0txOp0cPnyYV155hTfeeAOXy8XgwYNJTU1lwoQJvPfee6xZs0a135T2E6tXr8Zut3PllVfSvXt3jh07Rvfu3Zk7dy4jRowgLS0Np9PJ22+/ze9//3tWrlzJyJEjycrKUmNjNpv59NNPyc/P56abbmL8+PG4XC6ee+45nnvuOf77v/+bIUOGkJKSgtvtJjExUYVDxfm8Y8cO5s2bRygU4sknn6SiooK0tDQaGhp4+OGHefXVV+nduzf333+/agAmZpDdbsflchEKhXC73SxbtowtW7ZQXFzM5MmTATh16hSvvvoqL7zwAv379+ehhx5i4MCBtLW1sWvXLp566inefvttUlNTeeCBB8jOzsZsNishL5Ne/CpJSUns37+ftLQ0fvKTn9CvXz9aWlp46KGHWL9+Pdu3b6eiooLs7Gx+/vOfM378eObOnUt6ejpPP/00qampWK1WsrOz8fl8eL1e5ewW35M0Jps3bx6ffPIJq1evZvny5YwbN46FCxeyZs0abr/9du644w7lG+jatSu333676g4g6rc4cMURqp3Tbreburo6pkyZwjXXXENWVhZr1qzh8ccf59lnn2Xo0KF0796dwYMH8/TTT/P73/+ehQsXctVVV/HjH/8Yq9VK9+7dYzJgPR6PEiKi0SxYsIC1a9dSWlqqKu7V19fz9ttv06NHDyXcQqEQkyZN4syZM4wePVpt5NrQbGZmZgyzXCIxzc3NTJkyhRkzZqDT6Xj//ffV/Bk1ahTl5eXcdtttVFRUMG/ePA4ePMj999/PpEmT0Ov1pKamKh+f3W5Xz1+oAyIkz1ej+AuFiIRga2pqWLBgAQcPHiQ1NZWGhgZ27NhBeno6Tz31lGrlkJ+fz/XXX0+/fv2Uw0ls/UGDBjFixAhef/11Nm7cSFlZGU6nE7/fz7PPPktGRgbXXnut2uXFmSoaTjgc5oUXXsDlcvHggw9y/fXXKxsuLy+PHj16UFlZye7du/noo4+YPHky48ePp7S0lM8++4zVq1czffp0LBYLn376KUuXLiU3N5dJkyYB0KNHD2bOnElGRobyGXg8Hq6++mo2b97MmjVraG5u/lxkorS0lEceeYSRI0cqrcxgMLBjxw4+/vhj9u7dS0lJCQkJCSqaIxPfYDDw2muvcfz4cR588EEGDhxIUlISHo9HLdK33nqL9evXc/vtt5OYmBjjGJw/fz4nT56kpaWFY8eOUVVVRVZWFjfddBPDhw8HzoVrU1NTeeihh5gwYQJJSUkAalL/5Cc/Yf369dx6661kZ2cTDofx+XwxviiDwYDNZsPlcjFixAgeffRRVWG/vb2dSZMmsWfPHjZv3szMmTNJSkqiR48eeL1eEhISsFgs9OzZk7S0tJhF4XK5CAQCFBUVxUQBjUYjXbt25Te/+Q233nor//qv/0pNTQ2vvvoqgwcP5mc/+1lMC5HMzEx+/vOf43a7lZ9CzJ9QKKSc3LL5yb1deeWVPPTQQ0rIpKWlsW3bNhYtWkRdXZ3SiHNzc+nWrZvywxQXFyv/h/wvCxDOaVRXXHEFf/rTn3j55Ze55ZZblLb+1ltv4ff7mThxIjk5Ocr/N2TIEAoLC5W/SvyAMiZer1fNHxG46enp/PjHP+bmm29Wiz8pKYk333yTEydOcOTIEcrLy0lOTqZbt26KRJaVlUV+fr7aJGTjFqFiMBg4deqU4ktZrdbzsq2/0JyRTNWmpiYOHDjA5s2bSUxMVLZ9TU0Nra2tig9RW1vLFVdcgV6vx+/3k5SUhNfrVWGvqVOnsmLFClasWMGECRPo168fS5Ys4ezZs0yfPl05gkS18ng8RCIR5Xs4cOAATqeTioqKmCQts9lMUVERZWVlLFmyhE2bNjF16lTS0tK4/PLL2bFjB++++y433HADbreb9evXU1dXx+WXX87gwYPVACYkJLB27Vq2b9/OZ599ph7cvn37YlpeCLxeLyNHjlQ+A5HU/fv3p0+fPnz88cecOHGCQCCgdg3x+otWUV1dTSQSYd26dRw7duxzYXWAkydPUlNTQ9++fXG73Sqi0tLSwqpVq5Szc8KECYwePZpx48apxXPixAmqqqooLy/n6quvVhNQ2mj06dOHPn36UFdXx8mTJykrK1OCShymck2yIxUVFdG7d2+1eIxGI126dFEh3dbWVhUJsVgstLS0kJmZqRzEWt6FhDmzsrJUJEobXZg4cSJz5szh8ccf5/HHH8dgMPDss89SUFCgHK1yXJvNpjYebS1dccZqHZ4SqSouLo7pPJCenk5aWho6nY7a2lrlgIYOX4fb7VaLV8Kr4qyVaKLs1pFIhDFjxlBeXk5lZSUrV67kxhtvJBwOs2LFCoLBINdff706vtxLVlaWKg4k/gcxt7RhYFmn4XCYUaNGkZ6erlrMRiIRUlNTqa6uprq6Wgk1oWMIU1g0TG3gAc5FWFtbW1WAQe71r/aJwLlEsYKCAu6//361O50+fZrHHnuMlpYWHnzwQfr06aMIVwUFBUBHCNVkMtHW1qYeojSzWr9+PSdPnqS4uJhXX32VcDjM5MmTlRrY3t5OYmIiVqtVef89Hg8NDQ0UFRWRm5ur7GybzaZClCI9JUQbiUS44ooreOKJJ9i9ezeHDh0iJSWFjRs3kpeXx2WXXaaIWD6fj1dffZWXXnpJ9bSRwWxqalKZuYBiGer1ehW+05LExGcUDodpaWlR/AkJ2QpPQqfT0djYiMFgwOl04vF48Pl8MWSha6+9lpKSEjU2EvPX6/XccMMNTJs2DaPRSGpqKqmpqaSnpyvNTcpUulwuJRCFLyB+GpvNRmpqKrW1tWoRy8KW+xcBIuH5pKSkmGRCi8WiyGPCTZHP/X6/inoIZ0KciyaTSf1G5pqWACgmcmlpqTpWZmYmffv2VVwR8c0J21bC7OJEt1qtanFYrVYV9jQajUqzg3NObwlBm81mvF6vMjsl5K/l1kSj0ZjFKe/LAo9Go6SlpTF9+nQ2b97Mm2++yU033URlZSUff/wxxcXFjBw5MmbNaUmRWs1VxlM0P1n0TqcTi8WC3W6PeU+n06nInrZbpNy7bGwSLBGNDlDzRxtIkfs5Hy4oRIRRKY6iAQMGqAPW19dTUlLCsWPHGDlypMoDEZKMPJSWlhblkQZITEzkyiuvZNeuXbz77rs0NDSwdu1aRowYwZAhQ2J69rrd7pjojIQG3W43DQ0N5OXlxewsEqoym81qZ7FareTn5zNq1Ci2bdvG8uXLGThwINu3byc1NZWJEyeq2Pe6det49NFHcTgczJ49m8mTJ5OQkIBer+exxx5j48aNSuCIWmcymTh9+rRiDLrdbtUvWPgsOTk5OJ1ONeHgnHkgO3U4HGb48OExfYntdrsKVyYkJJCamqoepGgHxcXFjBs3Th1Ty0qVCZWQkKDCo8ICFaFgNBppaWnh1KlTamGLxiRjK7uOTFTxjwmnRexoWcQiEOT9UChEUlISLpcrhiwm5EERvMeOHYuJcMh3xfR0OByUlZWxZcsW/v3f/5158+aRlJSkQqsikGRs5bqlKJQ2rC3XKwQx4RzBOVa0tlWJHFd2bW1ZRwl7yiIV7U38eMFgkMmTJ/M///M/7Ny5kz179rB27VpaWlqYM2eO0kIAVVZCXncmUcpruTe/36+EwpkzZ2KInJFIhLa2NtV+tnOCnZxD1qrdbo8xVcRX1a1bNyXQL5QceUGymdiOQnqSi5NF3dDQQDgc5syZM+qhaycUdOxyUm5Rdu5p06ZRVFTExo0beeaZZwgEAlx77bV06dJFnVvi7TIxJJrRt29fTp8+zfLly9UilYe3bds2KisrycrKYtiwYSrUnJCQwC233ILH4+Gjjz5iyZIleL1eJk2aRE5ODm1tbbS3t1NXV0dDQwOXXXYZ9913H4MGDaJnz544nU7cbjcLLf/kAAAgAElEQVQul0sNvizQaDTKnj172Lp1Ky6XSxHYxBdiNBrp2bOn2rVMJhN2uz2GKCQszjNnzpCWlkZpaSm9evWiuLiYYcOGqbHXErnECSk7lSx4rWov3JOcnBzy8vL45JNPePPNN2NMimg0SmVlJQcPHiQ3N1dpkbJzi+CRRSNFuYXsBKhnJFRuKZ+n7dFsMBhoaWmhpaVFzQ+5H5m8VVVVMYJWmLMLFixg2bJlzJw5k/vuu4++ffvy+uuvs3TpUnVsGYcTJ05w4MABWltb1fWLViuapXbxC2tVmJjafkiyMWgXlpTNEK1bdmoxNU6fPs3x48dVPV3RhvLz8xkxYgTNzc08++yzVFZWotfrue6662JMXFn4hw8fVutKAhSdx1TGXjYzLWlMtAwR/FrTXyKqcj7ocAeIxhgOh2lubqa5uZloNEpWVpbaPC6EC2oisqOdzwbSTg7tTckuICplOBymoaFBLQSDwUDPnj259NJLef311/F4PJSVlTFq1KgY0pKWUi4TymazMWvWLI4cOcJzzz2HxWKhf//+GAwGDhw4wFtvvUVrayszZsxg8ODBiqLudDoZMmQIxcXFrFq1CqvVSnJyMjNnzlT3YDQaldTfsWMHy5cvp6ioiNOnT/PBBx+wdetWpTVoTQLhTjz55JPs2LGDUaNGUVdXx0svvcT+/fuZPHkyxcXFajLJg5LxjUQiTJ06lbVr17Jo0SLcbjfTp08nOTmZQCBAbW0t69atY9q0aVx55ZVqgQJqAUBs1rXslOIgKyws5LrrruOJJ57g8ccfp729nZ49e6rozMKFC3E6ndx8880UFRXFMHflHrVsX3mOUpBGFpnsemJmCpKTk7Hb7Zw+fZo333yT/v374/V6GT9+PDabjZycHGw2G5988okyeUS7eO2111iwYAHFxcXcdddd9O7dm7Nnz3LnnXfyxBNPkJubq0LDp0+f5pFHHsFkMimeiOTzuFwuleMkWpDUyNVqEZKm0NbWht/vJxAI4PV6VXpEbm4uiYmJLF++nLKyMqLRKKWlpZSUlGC1Wlm2bBnLli1j6NChzJkzR2kVVquVG2+8kXfeeYclS5bQ3t6ufGkCMYUWLVrEyy+/zJgxY7j77rsVK9bn88Vwp+Q5hEIhTp06FeOrE6Ehz0OiXaL9FhUVsWXLFt5//30AnE4nvXv3JjMzE4PBQHNzs+IZpaamxtD/JdDxVwkRrcotf8uFOJ1Oxo8fT0tLC3l5eeohCNU7ISFB2fZiq8lENJlMXHXVVSxfvhy/388NN9xAbm6ukujBYBCHw6F2LG00ZMaMGZw+fZqXX36Z3/72t2RkZGAwGHC73VitVubMmcOcOXPU94Wp6XQ6mT59Or/73e+IRCKMGzeOsrIyFT4GuPTSS7n33ntZtmwZP/3pT5UaJ159CafKpBAWY0FBATqdjsWLF/Pyyy8rx+fUqVN58MEHFa8EzlHtdTqdSkYbNWoUP//5z/nDH/7AkiVLWLlypdotmpqayM3NZfr06So0qFWZJYolKrXE+bWe9pSUFK677joaGhpYuHAhv/rVr1Symc/nw+FwMGfOHKZNm6YEttVqjcktkvdl1z59+nSM/0IEVlpaGg6HA7fbrZ55bm4uo0aN4rXXXuORRx6hW7du5OfnM3ToULURJCQksHfvXlpaWpSPadOmTTz//PPo9Xpuv/12CgsLMRgMXH/99Xz44YcsXryYN998k4KCAux2O1VVVSxZsgSbzcY111xD37591eIUk1qbntDU1KTMN/leNBrF5/OpXVw0RtE8R40axYQJE/jggw/46U9/itVq5a677iIvLw+73c4nn3zC22+/TWZmJsFgUK0Du93OqFGjGDZsGKtWrSIcDjN79mxlJmnn+PHjx1m3bh1ms5lZs2bhcDhwOBxqviUmJqq1JBpRQkJCDANcUh1EUxItVYTC6NGjWbVqFa+//jp//vOf6d+/Pz//+c9V3tKxY8c4cuQIvXv3Jjc3FzjHF/s/094lqiJ2rNTC1Ov1zJo1S3mAZZKJx1ock5MmTcLhcJCVlQWgsisvueQS5syZQ319PTfddJO6qFAoRGJiIkOGDOGuu+6ioqJCSXMRTvfccw+lpaV8/PHHHDp0CIvFQrdu3SguLubyyy8nMzMTt9utBvz/s3fd4VFWWf83M5lMepv03kgRSAApoYReRKqKIMiCHcWoqGvb4u7aFlexu+iuChYWlCZFEektCAGSSA+BJJT0MimTyUxm5n5/ZM/NmZdJQCzr7pfzPHmSTLnvreee+jsU9n7rrbeirKwMvr6+mD59OrRarRRJySA8b948pKSk4NSpUzAYDIiLi8OAAQNQXV2Nixcvonfv3nJThIWFYcaMGejWrRu6d++OnTt3Yv/+/fDw8EBiYiJGjBiBfv36obGxUWbUDhgwAG5ubkhMTJTuSQCYOnUqoqKicODAAeTn50srf2RkJAYNGoRu3boBgEzkGjp0KDQajTQM03pR30wmk0MuU7du3WR8yIkTJ1BWVgaVSoXExET06dMHo0aNkrYcqu1z880349SpU1I60Wg06N27N2699VZcf/310pBKTKxXr164/fbb4evri7i4OAdx/7e//S369euHQ4cOobGxESNGjICfnx80Gg1SUlIQHh6O3NxcFBYWom/fvvDw8ICXlxeSk5MxbNgwzJ49W47L398fWVlZ8PLyQlBQEIQQ8PDwQGpqKh5++GHU19ejd+/eck8lJCRg7ty5iIuLQ0REhGTA48ePh4+PDwYOHCgZnt3eBq59ww03QK1W4/rrr5ceGJI6Hn74YSQkJKC4uBiBgYEYPXo0vLy8UFdXJ9MoevfuLYMuaS21Wi3GjBmDPXv2ICEhAQMGDJAeHWrfZrNh8ODBuPPOOzFw4ECEh4dLiM3rrrsOM2fOxJAhQ6QqotfrMWrUKKSmpjrYzIA2F+8tt9yCnj174vrrrwfQJgiQAKDRaHDw4EE0NjYiKSkJqampANokypqaGpSUlGDixIlSxSXDK0/WI1IJIcSmTZvw2WefYdmyZZeFundEXI2hjvPvEVcn9xDH1QAgOT4Za+gmoAAz4rzkiuLPJT2RbmaSmEj8pgnjuTIkopKXhUMXkkhL0hYFg9HzucGYUqHJ8EbzRYZNGh/p4DQX1G/64flDtIHIdUveJdLJ6TYlPZ90c9KJlRGEFCPBM6QppJ3a57EHygRDsuKTcZNXKiTPANfB6ZaX+BIMsIaPjb5Lm5zUiz/84Q94+eWX8eijj+Lll1+W9hAaNz2HJwDW1dU5eF8IEgBo82ZQ0CPZRYB21ZVsNGRv4wyX1pHn7XBpjMZJhllKbNu2bRuysrIQFRWFpUuXIjw8XO4LupAfe+wx/P3vf8dDDz2El156STJZrh6Q9E17mpgbhT3QepDRluaJqgkA7V5VXgebgj7J7kRGcLpwvL295WefffZZ/O1vf8N7770nA+HIsEp7dvXq1Th8+HBbwN8VucU1Ek0C9/vTBiffPW0Seo1+1Gq13KQkltN7tNFpk5CoqXRF8f/pQNIkkMhPPzzIiRgRiYhK5kYbg+OREKMiCz61x3/TYePP5e/Rs7mKQOPnRAebJDQ+L3z8SmQw0qGp3zwugI+TfijcmscOkOGUzxf95oyDi7zUPnn7iOiwarVa3HzzzVi8eDHWrVuHp556CkFBQQ794nNJ5O/vL9sFHN2gyqA1rrLQ3+QG5a/x75CkxJkruXlpD9HFWFVVhQ8++AAAsGDBAhlVStKuRqPB0aNHsXnzZri6umLkyJGXMX56Br3O43O4p5T6TNIN7RmyhdE+IicHX2M+DheXtlpIfB60Wi2+++47bN++Hb1790bPnj0lE+N7U0k/Gi2YN6x8CBkCuXTA33N2A9KicnAffujof1psMobx9+g5dBPR53nqOJciiPjNy/vMPSQ8GEy5yak/XJfmn6WbsKPbH2j3jNCtopT4SF+nz3EJiG8m+jwxP+Wc8flXzgH1VcnE+OuXGdfYuIjR0rNpXHz8dFEAbR6qSZMmobCwEOvWrZNuTGcSCBFtbpIMaP5ozERc2qK1425yGoeyr1yq5RcEl4xIwqFguqysLAwbNkzuFX6B7tixAyUlJbjhhhuQkZEh55H2GF8j5Z6m8dLr/KxwaU15ToixEuNXBpXxuaWg0D179uDMmTOYPHky0tPTpdeV+qnck8AVgs1+LCmlB+XNz19Xfo//7ez2pglx9hxl22T4469xJsA3HldtaHGJQfCYAOWmA+CwSPzWcCYt8HEqxwJAipBcquDjANoZnHIelHPm7H0+V86YiPK7ztZGOWfKdpytB71HKhXZyR599FGEhYXJy4NUOuX6Ut9o3p2tJfXNmYSm7Idy/WmNSSXg0hbfTyQZAG2Icn/4wx8cwhSEEFIaaW1thb+/P+6++25MmjTJae0h5TjoNT5W/lliorQniFmS2uqM0fNnAI7eNhp3UlISHnnkEYmxyteS9qCSrpmJ0OR3dDiUB5NPhLPNyQdKnJ8ODz+0SvGTi+ZcNSB1gH+uo8PsrB2u0/M+8TE6I2e35pUOIxe3OfEcCWqH5oU2j/IGUorf9HdHfeHrqGQQHc1XR23z9nlYgDPmT68RFGFaWhqSk5MdJMSOGLBS+uuIeSmZhpKUz+DjciZp8jYJupLgKamYE+F9kMRH9Jvf/Aa33Xabg5TZ2Tzys6OUrvjlo4TaJOlUuXeV46H9Q/+TajZq1CjpfqfPcGAv5UUG/EgmcqX3+ECUB9rZwOg9oN0wym9/Z4vekYTDmZDy0JCkoeyzkkHxA+lsEfn3lN9VPldJHY2fyJm6pXSvKTc8/w5nKs5u5M7Wz9k4O/p+ZxKWs77Sjc5VC5o3uqHJo9XRs4HLpSDO5JVqSkeM0tnfXPKk5zmT5kgVI6nJxcVFeqxcXV0lAh0PbSDJiy6Bzpg0fxZfW1pPOh88BIP2IFfZO4qs5VIWj2PilR35OhDzcLanf5Q6c6WNyB+q3Lgd3b70v1In5YdUuahEzl7jn1e2p7xpOCmlKGdSTWfzwNt2NvHKsSglBB7UwzcIPxBKhnElqaGz/nZGSrWto3aUc9yRuqQcJ/f+kKfA2Tj4XnLmkXIakq3os7N2lcSlWGcMhD5DKpnJZIK3t7eM5/D09JRRntQO5UpxVcbZ3uvob666ORubMzVDpWrPfVEyLDK88te5J5Ib4Ts7J8DPbBPhD1XeHJyc3VjONonyO53d5FyUVEoJfLM7o87e5yqFM53TWV+VorIzUvZR6dbmB4iygLldRjlfHfWNntXZTejs+8r3lGKtM3Wts7apDY4B6+rq6hB4daX2aC34rXo11BljdbZfnbWtUqlksB/FRqnV7aBcJJ1Qcia9zu0YnVFHEjRRZ+vtjOkp36NQezKy0+fpNSVuCJcklfSz1nKkjEh6OPmtleSMGXB1w5kHgXQ/HvrNfwPtiUu0IFyHVEoAygVzZomm3IqODseV3lMSZwJcaiFrOPWfewL4M+h1aoP3lRuGld+jTUzvK70bynl0JsZSWxSbwdUGpQ2mI+LSKBf7r5boez9UslLuJWffV7pGOyLqN+UzEdHfGo3GoUoBV9GVferotWsZ39XsUWdzTa8pgYc6o2tmIvx27IiUtzW5m+hAdEYaTXtSFBGF+QLtbjra4DwzkQ4OdxET46HbQUnKSefuNxontefMx38t5GxD0SLTjWC322XKuxBCBgdxFHjuQeD9V1rolYZpmj9lH6iIE9DOBLh4z4tc8VgG6j/giMb1S9CV9mIX/Xx0zUykI25HNxHPJuU3Lv/7SkS+cWJYyjgNIsK0ANptKZxR0e3ekdTRGacnfz/P4Pw5iVQpbhgld69K1W7QA9pTujuaT1J9SCLkcTMcloCiPak4Ez1DKaUAbfPFbymlNETzTsyNSz/Ktn4sdTGOXwf9KCZC5Ew1IE8C92MrXUadkTJgyJkBVWnwE0I4ALnw7xN2BBngrkZM5H2ghKwfIm7/EOIeINK3CZ6AkuWAtgSt+vp6h/ERQ+AMmlQvCirjgV7cCEmMmtcr4eA03IXKa9Rw6Yfr7yT1Ueaokhn+kEvkSvN1Na910c9P18xEiFkoA6WURi5l1OhVd0ytvkxlUro9SdqhA8F1a+XNyD/Hg7Q62nj8e2Q/UB6Mn5qUjO2jjz7CW2+9JbFum5qa8Prrr+Pzzz+HzWa7TG/lEiBndlRuk/rODzrgGJhFQVbKXBeg3XWqtJuQ6kTh0fR8ChGnqFreRhf971CH3pkrHRRuzeYHkouvdPuR+EzhtxydqSPieJK89qkQQmK7EnYFIWTFxcVJ9YeD9yjbpMI/zsZK/XdxcUFFRQUMBgPCwsLg4+MjPQhXMz9Xoo68A0S5ubl4//33kZiYiIceekiWijx9+jTWrVuHfv36oXfv3gDgEGhE/aIkKwrjpxiF8+fPo66uTjL70NBQCalITEiZyEhrqTz8fI241Hnp0iXU1dUhMDBQouOTt0Lplv6xpFy7K3nBuuinp2t28ZJqoFQz6JYnbBGC7OO3ZmfJPES0mYkoTyI7OxubN2/Gt99+K6HlPD09ERYWhieffBKpqaky9sBsNqO2tlaCBhNRNB4npSGxtrYWS5YswdatWzFz5kzccccdsj8NDQ0OsHbXQpz50jzSQbTZbFi9ejUqKyvx4IMPIjAwUMIMTps2Dffddx8+//xzJCYmSowSZQQrnzsh2pDfvvzyS+Tk5KCxsVFCAsbGxuKOO+7AiBEjoFarJViP2WyGl5eXA6IatU0MwW63S/Bmzhz279+PDz/8EOPHj8ecOXPg5+fngLl6NSrt1VxiXerLr4OuWa6sq6tDQ0ODRFoC4KB3m0wmHDhwABs3bsSpU6ckc1EiX3VEBAhEhZvVajW+++47LF68GIsWLYKfnx+SkpIQFhaGyspK7N69G0VFRdIeY7FYcODAAaxfvx4nTpwA4Oi+dOaK5D9msxmnT5/G7t27UVxcLIGTAUigpR/zQ88kpkG/SWVasWKFLKNBUoLdbsfo0aPRo0cPfP3116iqqpLMkIysZMimNi0WC44cOYIlS5bgH//4B86ePYvu3bujf//+0Gq12LlzJ06cOOHgov3++++xYsUKWYuVp6Xz9AKSLHisitVqxdGjR7F//34UFxfLftFvtVp9Ve7Dq5m/Lvp1kAvQcVCKMkqObiOj0YgVK1agsbERd911lwQdAtrVGHd3dyxevBj5+fn417/+BcDRCEc2D1JveGo9PZ+wHAgu79tvv8WqVaswZ84cZGVloVu3brBarTh37hxKSkoQFxcnRWyj0Yg9e/bgnXfewUsvvYRevXo5FODht6EysMb67/Ke8+fPxw033IC0tDQHWw+5iZW5BCaTCW5ubpdhmSjzeDimB6lbvMzA9u3bUVxcjOHDh0tAIkIc8/DwQGZmJpYsWYKcnBxZOoE+w0GCSf3atWsXli1bhoSEBLz55pvo2bMnXFxcUFpaioKCAnh6ejrAIxw7dgzPP/88srKyZJU5oB0RXafTSQAjZ4bVKVOmoHv37oiPj3fAkRFCyFIW9HlaA6qPSxKORqORz+CBcXyt+L7h+7SjgLUu+nmoU7R3oD38miz6Qgg0NDRg//79uHDhAoYMGSILYhOy1rlz51BaWioL53z99ddobGyEVqtFamqqrI9BcQrl5eWorKyUEP2xsbEICQmBr6+vtIcYjUbk5+cDAPr164devXrJeIn+/fsjOTlZAsTU1dVh7969yM3NRV1dHXJychAZGQmNRoPExERER0fDYrFg165diIiIQGJiIo4ePYrKykp4enriuuuug7e3tywlGBQUJOvOWCwWFBUVQa1WIyUlBTU1NThz5owsqtytWzeJxQG0b/Tm5mYcP35cwvLR4WpqaoJWq8X1118Pm62tOPlXX30FV1dX9OvXT46f3K6+vr7o2bMnTCYT8vLyMGPGDAcU7mPHjsFgMCA6OhrR0dGorKxEdXU1jEYj0tLSMGTIEGmjSk1NRUpKivRoGQwGHDt2DPn5+SgvL0deXh42bNgAFxcXpKSkID4+HkIIHD9+HFptW03dM2fOyLIX3bt3h5+fH8LCwmQfCF3ezc0NeXl5cHd3R3JyMoxGIw4dOgSTyQS9Xo/k5GRZWpQYr5eXF2w2G86dO4eioiL5Pu1Pk8mEsLAwpKWlQaVSSbDsLgbyy9IVMVa5rk63nNVqRVVVFcrLy2WtF6DN1tHS0oJVq1Zh0aJF0oD6/vvvY/HixQgJCcGrr76KoUOHQqfTobq6Gtu3b8fy5cuRl5cnw4b9/f2RmZmJuXPnypvYw8MDUVFRANoKIU+ePBmRkZHy8BADaWlpwf79+5GVlSVLAK5evRrbtm2Dh4cHHnzwQdxzzz24dOkSFi9eDF9fXwwaNAiff/45jh49ipSUFCxatAhpaWn4/PPP8cknn+Dhhx/GXXfdBY1Gg7y8PCxcuBDJycmIjY3F4cOHsXfvXjQ1NSE2NhaTJ0/G9OnTER4eLqWHsrIyLFmyBDt27EBTUxPq6+tRW1uL5ORkXLx4EVarFatWrZIFlU+dOgUhhITpo5uVGFJ0dLSUMAwGg8w1qaurwxtvvIEjR45g7ty5ePjhhx1KaJw8eRKnTp2SIMYAZFxIS0sLDh06hIULF2LXrl1wcXHBli1bcOjQIQghkJWVhaysLFRVVeHNN9+ERqNBjx49kJ2djYMHD8LPzw9vv/02MjIykJeXhxdeeAHz58/HtGnTYLPZUF1djVdffRUqlQo33ngjjhw5guzsbJSUlMDX1xeTJ0/Grbfeij59+sBut8vs2C+//BJr167F2bNn0djYKGsfEZJ5ZmYmIiIioNfrJRwmz1npop+fOsVY5b+5y9PNzQ0BAQGyjgnhVlIcfnR0NG644Qbs3r0bLS0tSElJQUhICDw9PREUFASdTgez2Yzly5dj4cKFcHd3l59RqVTYunUrcnJyZKV3KnE4c+ZM7Nu3D59++inMZjPGjRuHzMxMWTkPaBObIyIikJ6ejpKSEhQUFCAuLg4JCQnw9fWVmJGVlZW4cOECVq1ahR07diAgIABDhgxBaGiodIVeunQJ+fn5qKmpkYzUZDKhqKgI3333Hby9veHn54cBAwbAZDLhm2++QU5ODvz9/XHbbbfJcOf3338fb731FlJTUzFw4EBotVocPXoUO3fulMDC5CEpKSlBWVkZWlpa5GGn6E8aI5WCOH/+vFQxAUjk7wsXLqC6uhoqlQp+fn6yKt62bdvwwAMPYMaMGcjMzERcXJxkIm5ubggODkZycjLMZjMOHz6M6OhopKenAwCioqKg1bZVIjx9+jTy8/MRHBwMvV6PtLQ0mf0phEBBQQEOHTqEc+fOwW5vwy2lguy5ubk4fvw4LBYLUlJSEBERge+//x5vv/026urq8NZbb0nwqN27d+O5555DVVUVJkyYgJiYGJSWlspC54MHD0Z6erpDUhvZxLroFyQhhNi0aZO4/fbbhRBC2O12IYQQNptN2Gw2IYQQZrNZFBQUiCNHjojTp0+LnJwckZGRIdLT08UXX3whjh49Kk6dOiVOnToljEajaGxsFEajUYwcOVLo9Xrx6aefipqaGlFXVyeI9u3bJ1JTU4Wrq6t4++23RVlZmTAYDKKqqkqsWLFC9OzZU+h0OvHBBx8IIYRobm4Wra2tYvny5SIzM1N4eXmJ0NBQMWHCBPH3v/9dlJSUyP7bbDZRVFQkHnroIaHT6cSiRYtEfX29MBgMwmw2C5vNJo4cOSKGDx8uAIhJkyaJHTt2iLq6OlFRUSEaGhqE1WoVzzzzjAAgXnjhBWGxWIQQQhw5ckQkJycLAGLKlCli1apVoqamRlRUVIiXXnpJqNVqMX36dNmf06dPi+TkZJGcnCwOHDggmpqahNlsFt9//73o2bOniI2NFYcOHRImk0nYbDaxc+dOERsbK3Q6nTAajcJmswmr1SqfL4QQJ06cEL179xZ+fn7iwoUL8nWz2SxWr14tPvroI3H48GEhhBCtra3CbDaLrVu3ismTJwsPDw+h1+tFZmameO2110ReXp4wGo1y7kpLS8W7774rXF1dxSOPPCLKyspEfX29/ExhYaGYOnWqACAyMzPF8uXLRW1trSgtLZXru3jxYhEQECBeeeUVUVVVJWw2m6ioqBDjxo2T3/voo4/EpUuXRHV1tVi+fLnQ6XQiOjpaXLhwQZjNZiGEEHfeeacAIJ588klRVlYmamtrRWVlpXjxxReFn5+fePbZZ+UebW5uFjabTbS2toou+vlp1apV4plnnhHnz58XV7SJAG169j//+U9kZ2dL3Mjz589DCIE///nP8PPzg8lkQkhICJ5++mkMGzZMFtzx9fWVBaRJP7ZYLNizZw9OnjyJOXPm4KabbkJISIh0Y86YMQMlJSX405/+hM2bN2PGjBnSpTp58mTEx8dj3bp1yM7Oxu7du7Fr1y4cOHAA999/PzIyMmA2m+Hn5ydvcQ8PD/j4+DgUJ9JqtaitrUVISAjuuusuDB8+XH4PaMNSIBWOSliQF4qKVRNSFeX0TJs2DStWrMDp06dRUVGBsLAwGTHq7u4ubStCtBUFCgoKQmFhoQPcodlsRmNjI6KioqThlmxRQJukFRISAg8PD5jNZlkljyJPb7jhBodyEmTLIilr8ODB2LNnD7777jvk5uZi06ZNeOSRRzB06FC4u7sjLCwM9fX1UmVwc3OTMTJCtFe4U6vVmDVrFqZNm+bQP6BNFW5sbJTxOySh2Gw2uLu7Y8GCBbL8p83WVkI1Pj4eJ0+exJkzZ6DX62XZCa1Wi5iYGGm8t1gsCA0NhcFgkNIZlSmlZ4uuWJFflDpkIqR7qlRtIMd6vV7W+GhpaUFZWZlUHUJCQmAwGBAZGSnVG6r0VlNTg9bWVllKEmizyJ86dQoAMGjQIFkXltLb1Wo10tLS4OHhgZKSElRWVspSBgDQv39/dO/eHRcvXsRXX7pJCLoAACAASURBVH2FJUuW4OOPP5YV0zw8PGSFPG9vb2mwJRc00O7u9fHxQUhIiIO6YLVaZWFoyguhLOS6ujo0NjYiICAAISEhANoR4CmOoqGhAUajERpNW92VxMREbNiwAQsXLsSwYcMQGxuLdevWYd++fejZsyciIyMlcyGPB+HT8hB0CqJTqVQyPoQYo0ajkeU3CeGcolpprN27d0dSUhKmTJmCffv24f3338eWLVtkQW0qLUDqprPEQDKG+/n5ITY2VvaB7GekXrm4tFWwp7kmT5XVakVMTIzM6FapVPDx8ZElD86ePSsZ2tSpU/HJJ5/gvffegxACSUlJOHr0KP75z3/Cz89PljlQBrx1MZBfljpkIlzPTE1NRVZWlvQSFBYW4o9//CPOnz+PJ554AkOHDpX5HD4+PlCr1TAYDPIQUPAXwdtbLBbpraFNTq8TI0lMTJSeDE9PT4eoVaAtYKxbt26YM2cOoqOjsWDBAnzzzTcoLCxE9+7d4e7uLmMcxL9di0IIWVyaQGyFELIuDB0CtVqNpqYmWTKADrKrqys8PT3h6uoq+091Qeim9fT0RHV1tfRqNTQ0ICQkBEFBQdi+fTu2bNkCjUaDhoYGDBkyBAsXLpSGUbPZjJqaGvj7+6OiogIALjMUqlRtoLotLS0S14QOERlg6UCTJMazp4UQSE5ORkxMDFJTUzF//nzs2LEDN954I66//nrJqCgojNf2JYmCDMa0FhQFTPOq1Wrh6emJ+vp66cKlmrBkO+G1b00mEwwGgwT4oTgfX19fWcZ00aJFkkEFBQVhzpw5mDFjBqzWtmLsVDeZ76cu+mWoQybC4dgASHHSarUiLCwMJpMJHh4eCA4Ohk6nQ1BQkENOC6kFdLOazWa4ubnJmI/Y2Fi0traipKQEnp6eMBgMDlGgOTk5cHNzQ2RkpMzDAOBQMNlkMsHPzw+DBw9GQEAAjEYj6urqoNFoJBAMzwVRq9WymBDV4K2vr0ddXZ2UUAiZiuImqHZOS0uL7D9Fe/JymkAb421tbZUxDwBw4sQJZGdnY/jw4Zg+fTrKy8vlTT5mzBj4+vpCo9HI2BUfHx9ZbrO6uhqBgYEOqgKF41dVVcHDwwPR0dEAIBklAFnrluJGAMckRcrWjYqKQnR0NE6ePCljNyjqlfJeDAaDZBgE7GuxWFBfXy8ZG7VHRAW0ielTQiHl8PCAQzc3N4eiZ7y+8FtvvQU3Nze89tprsFgsKCsrg6enJ/r164fu3btLpuLr6yuD60hi6zKu/nLUYcSqkpMrwX+8vLwcPDYmk8nh1jSbzWhubkZFRQXq6upkgBLFR3Tr1g3+/v7S9Uk2DADIy8vDsmXLoFKpMGjQIOnl2Lx5s0PBZyo3+fnnn+PcuXMICgqSVdHoVqSKXnRDEzMhfVuv10sXJwAHBCrqD69eTxKMSqWSTI/wNIE2VUCv10vVq7i4WOb6uLu7IzMzE7169UKfPn1QXV0tbUs6nQ6urq6IiYmBr6+vrKFKEpLZbJY/AFBTUyNLKpIYb7PZcPLkSRw5cgS1tbXQ6XSwWCw4ePCg9IiQjUan0+Hw4cM4c+YMIiMjZbU1+ozFYkFFRYVkJiRpUD/9/PzkniBvCsElBAQEyGA6Ulu8vb0REBAg14zq/QKQ3/X19YVer5cFz44fP46amhqUlZUhKioK48aNQ3x8PNRqNUpLSx2YNS/j0JXg98tSp7kzHYmEarVa5leQsZEMaBREptPpkJaWJuumGgwGNDQ0YPbs2YiLi8ONN96I/Px8LF68GL///e8xefJkeQtTbsz06dNxyy23QKfTobS0FE8++SSSk5ORnJyMhIQEmM1mFBcXY82aNdBoNLj77rsRHR0t7TgxMTHQarX44osvZE3e1NRUDB48GD4+PjAYDDJHh6D56OakSnNAe6o9D0un/BMOt9/S0oKGhgYZfAUAffv2xYABA5CXl4esrCwZiRkYGAgvLy8MGjQI06ZNQ79+/SBEW8lPkuL27NmDKVOmyEhWd3d3Wei7vr4e6enpsr8ajQY1NTVYtGgRcnNzMXPmTGRlZaGiogKLFy/GhQsXkJGRgfj4eOh0OuTk5GDTpk0oKSnB3LlzMWjQIJlTFBERgfDwcOzcuRNvvvkmvLy8kJiYiJtvvlmud1VVFUwmE4B2CAKaQ6pfTAZXUv+qq6thMpng4+MDd3d3BwnLYDCgvr5e2q6MRiPmzJmDP/3pT/j9738vLwcqEB4ZGYnRo0fjtttukxIiqUhdqswvSx0yEfJicDEYaC/sc8cdd6CyslIWASZPAGFYAMCECROQl5eHffv2Ye/evQgODkZGRgbCwsIQFRWF+++/Hy4uLti4cSOee+45qNVqubnuvfde3H333dJ46eHhgfDwcHz33XfYt28fmpub5eFOTk7GY489hgceeEBKB2azGUOHDsW0adOwevVqWQD8sccew8iRI2XhcI55SUZUstXodDoZNQm0I2Z7eXnBx8dHGjB5uHVQUBBMJpOURKiam9VqRZ8+fWTx8urqauzfvx+vvfYaioqK8OGHH8LPzw9eXl4YPnw49u7di23btuHWW28F0A7pb7VaUVBQAKvViszMzMuqypWUlODkyZPS/hQYGAgfHx+cOnUKR44ckbCJ5Il5+OGHcccddyA8PFzaTwYOHIjf/OY3WLJkCV555RUEBATgvvvuw4QJE2A0GtHa2oqYmBgHuwYxDVp/Nzc3GRkLtKmJJMFUV1c7SE9CCERGRl5mF0lJSYFWq0VKSgqGDx8uDbUHDhzAqlWrkJ2djYCAAMlou+g/Q1cNBUAHhfRlMmpxsB8ShemzQ4YMwfPPP49Dhw6hpqYGYWFhskiyzWZDYmIinnzySYwdOxbnzp1DS0sLvL29kZycjB49ekCv18vK9X5+fnjzzTdx6tQpFBYWSttIcHAw4uPjMWTIEADtiV5eXl7o1asXnn32WQwdOlQWBB8+fDiAtsP9xBNPQAiB8PBwB9RxGufIkSOh1+sxaNAgaayLi4vDI488Iv8m7wS1M2/ePJhMJvTo0QNmsxlr165Ffn4+Jk+ejOeeew4RERGylmt2djbuvvtubN68GcXFxUhLS4PNZkNKSgpcXFxQUFAgvSQkjbS0tODAgQNwc3OTXgygjYHp9XrMmzcPs2bNQr9+/STDe/zxxzFp0iSUlJSgtrZW2qxSU1PlPAPt+Czh4eF47LHHkJaWhuLiYvj4+GD48OHQ6XRITExEVlYW6uvrkZSUBACyXjIZkwcOHIjf//73GDt2LPz8/CCEQHBwMJ544glUVFQgNTUVLS0tUrWxWCwywnjMmDFyfl599VUEBQXh3XffRc+ePeXlVFFRgddffx0vv/wytm7divHjxzus3dUAIXfRT0hCOA82s9vtwmq1yuASel2ItkC05uZmIURbMBP/nBBtQU8mk8lpkIrdbncInOLfpcAqq9Uqg4jodf58IYRsg3+fAo7odWqHP08IIQwGg9N+EdGYlONX9tUZWSwW2VZra6uYNWuW0Gq14p133hEtLS0OfS8sLBRpaWkCgNi6datsw2g0iuuuu07o9Xr5usViEc3NzeLs2bPC3d1dDBgwQJSXl8vv0HzzsVosFtlPu93uMEa+zsq1am1tvWy+qV+8bZoHHpTI26DXmpqahBBta0KfcdY+7SkhhFizZo0AIDIyMhye09raKqqrq8XLL78sPD09xcMPPyyam5svW68u+nnpqoLNnGX10us8A1Y4CTPmAM3k1SBIfXIBtrS0OIAMC+FY5IqDKZvNZnnjUkEdMqhRoBHdbMp2qM/ctevr63sZHgoH9OGxJLzfPLycjI/KZC8S6ekzMTExAIB169bBZrMhOTkZQBvM4c6dO3HmzBnceuutGDBggByrm5sbZs2ahT//+c9Ys2YNhg8fLj0OGzZsgMlkwtSpUyXOCNl0lCjuvG+UdwM4gmxrNBoHgCaOG6KULgnwiVRamjfuRubzQETGap6LRd41ghgAHF3Ffn5+6NOnD/Lz8/HUU0+hb9++CAkJgdFolHa2hIQEDB8+XAI2cTDpLrvIL0dXDUqkPJzk6uOp3OQBoU3s4uIiNyhPpW9tbZUp81wMJq8OicfkbiUm4ebmJmMqaBMSc3Fzc3NQr2jD0qYn/d1oNMLd3d0ByIeIuwapb5wh0ng56jvfrBwjlQ7XHXfcAbPZjO3bt+Odd95xsBV4e3tj7ty5uP/+++Hl5SVjM9RqNW677TYsX74c+fn5EuagpaUFf//73zFw4ECMGzdOepvIzSxYUBd3v3Kmz2EKjEYj3NzcJA4Izwbmnhdaexo3z+wGHOEpiTkRM+Tf4YyN2uPFncibZLfbMWDAANx7771YunQp1qxZg6+++goWiwV+fn4wGo1IT0/HxIkTMWHCBPls3k4X/XLkAjivFQs4lkZw5nfneii/zZylYvObSVl6gbfNNwCv18HbJ+LI5/wZSpBmTsoaIJycjZd/hmOecDxX3p4QwuG2jo2NxSOPPIIbbrgBFy9elIZJLy8vxMbGIjU1FeHh4bJ98gAlJCTg+eefl5KWyWSC3W7H448/jsTERGk/oTQEZXSpss90O/M+87lQwlUqJbmO3uvos7Re3Jam/Bx/JkfrB9oM6XfddRf69++P3Nxc1NfXS08PJUsGBgZeBldJAY5Xgt/sop+Oumb6ZyCuIlHqPhlUSd3hUg8ZTIH2UoYAMGXKFAfoRJVKhRkzZsjgqv9lIomiT58+SE9Pv0xCNBqNUrpUQl12MZBflrpm+2ciSsrjthSl94eIsE1JYrDb7TAajTLxzWazobm5WSbD/X8gsitxLFpSeQHHoEBSr7roP0NdTOQaias1yteAy1UfbszkOUIUkcqNjkIIySzoRiaGQoFw/+uGQyWQM80VZyi8RCsZg2mOu5jKL0ddM32NRJvVmS0JgIRS5DVugHajKzEOMoryXCUXFxcZ7+Lu7n5Zwaj/D0T5SspCWty2QnOotLX8f5qnXwN1SSI/gshO4YyRkFeHNjTf2OSFogPA3+M3KbVPty73xvzabSIdMVeiK0lSNDeUfkBzSQxYySyUCaNd9MtR14xfI11JEuHiN+BYGJxS1snIKv6duMhRzQmwhx8gKgHx/4GobCi5nbk7GHCcd2VlxCsxsC76aamLifxMxI2ApM7wzc2LYJNYTtIHuXkploW3Sfk+/+vEJQpKhATaPTFcEqO5Jinl/8P8/JpIDTivOwM4us6uxN1pUbnx0Fk7ztrjG4LDC9B3yf1J/9NnlN9TFsbi9U3IrqB8Br1Pz6ANS4eeQJKJyGvAJQxqj3A1uD5PyOU8p0gIIXNueF95FC0dIsqZoX6cP38eJ06cQFNTk/xcfn4+Tp8+7WBs5GPkhan463xeiXEpiYK/lGvCiRffoufzsZpMJgc3Ncedob6azWZUVFTg8OHDqKmpcTA881ISxJg7c+N2YYn8stSpJKLU1TsT4XnMA2FJtLS0SHEcgEN6PcEGULwEoW7R4aLNS+5PABJfQ3lDA5DRsZSSTxGRHFOVf1aJoM4ja4kxUOIbj1gFIMPnqVCWMsiN2iQRnNyRnLEAjoF1vB2u4lDQGiWq/fnPf8Ybb7whD311dTVWrlyJ1157DWVlZTIaluaIM3ce4EWYHfQe2SDo8/Sb10Dm3hBiGGSrIWmA7DbcIErxHDSPpJYRWBTNxYYNG/Dss89iz549l+2vLvr1UqdMpCPpgxsT+e0DtIPDUK4GR9vikIQAHA4oD6OmXBCeV0M4nmQroPf4IaGNSyHw9D79TfgX/Nl0sM1ms0MoNjEdAtrhOSX19fX4+uuvsX79elmagVQSGpubmxt27NiBf/zjHzh37px8JnkYuERAf9vtdhkbwcGP6ZAfOHAAn332GcrLy+Hn5ydRvXQ6HZYuXYq1a9fK/BZaJ6X3grfH15PWwFkUMbflEGOidnl4PWf8TU1N2LJlCw4ePCjHxteEXNpcjdu3bx82bdqE8vJydNF/D3XIREiU5KQMrVZuRvo811GJiHmQWKpUReh24/ovR/biMIS8f9zdx0VckhRIKuL9F0JIUZ4MdzxSFIBkKnTw6fBTIaY33ngDS5cuxcWLFx1sHjwf6JVXXsHTTz+NrVu3oqKiQrbPEbk4tCA/xEB7fhIdwA8++AAqlQpz5851SIScMGECfHx8sGTJEokwxw2NJP0oY1u4yslVG2LIJCUQk6RncmZCxJm+3W7H5s2b8fDDD+OZZ57B2bNnpYsWgIORlOfhBAUFyRrMXfTfQx0ykY7yaYC2w33+/HkUFBRI3E2gnYlQIhnQlvDGoROJWXBGwiHuKJOTnsP709zcLMVgnklKmKREpIoo9Wba/ED7QeIJZ/Rcu90umYrNZpMQf9RHk8mE8vJyXLp0Sban9BBoNG1lRRsbG9HQ0OCQyEc5MsRMNBqNtP1wdYIOrUajQVFREb766ivExMRg/PjxUk1sbm5Gt27dcMstt6CgoAB79+6Val1raytMJpNsg16j/vL5oT7Qe1zKcIbyxpMpSRql/hLDDwwMlBiqRLSGQLt0Sq8T6FBXAt1/F3Vad8YZE6EQ7I8//hgWiwWzZ89GYmKiQ0wE3fQ6nU7aA7jHgVybFCsBtKX4k/5Mm9nDw0MaNzUajdStecYnT2UnlUej0UjIAJ1OB5PJJLFBOVYoJWpRZi8Z81pbW+VGpvYoS5mkLyqNoRT/+UFU9heArBpI3yE0fLLp8DnnTGnbtm1oaGjAiBEjHACtaY6uu+46AG2QimPGjJFzrpTgqBwnt4lQNjRHeSOGQwyPAz7TGLlHBICUXrRaLUaNGoXY2FhoNBokJCTI51ASHQCpsqlUKgeQa2ViZRf9uqlTPBEuFnOLektLC3bu3Amj0Yjx48cjISHBYaPpdDo0NDTg888/R/fu3dGjRw/k5OQgPz9fomP17dsX3t7eqKqqwvHjx1FWVgar1YrY2Fj069fPIROT2jabzSgoKMDx48dRV1cHALJkJuGpNjc3o7a2FuvXr0d8fLws5kT9d3V1RUFBAXbu3InY2FiMHTtWFuC+ePEi8vPzYTAYUFVVhdDQUPTu3VsWmya1gBgYV2OofY4lQiHqWq1WHgxPT0/k5+fj1KlTGD16NHQ6HQ4ePIjCwkK0trYiOTkZI0eOlG0S892xYwdcXV0xfvx4BzwOd3d3CTitVquxZ88eyUBJUjt48CBycnIk3mtVVRV2794NnU6HwYMHy7o/JJ2cO3cOu3btQmRkJDIyMiT8Qn19vSwreuHCBQQFBSEgIADx8fHo1q2bg8HaYDCgoKAAUVFRUo3VaDRwd3dHY2MjDh8+jIsXL6KpqQlRUVEYNGgQQkNDoVKpUFNT89Pu8i76WanTkhFkj+C3Db3n7u6OpqYmidKu9NsfPXoUf/vb39CjRw8kJSVh06ZNOHPmDFpaWhAeHo4FCxZgwIAB2L59O5YsWYKqqirU19eje/fuePHFFzFhwgQJgejh4YHKykosX74cn376KU6cOCExSfR6Pfr27Yu5c+di0qRJsjDW008/jZ49e2LgwIHw9fVFU1OTRBVftmwZ3n33XcyePRtjxoyBSqXCvn37sHLlSqxbtw5GoxG+vr4wmUxIS0vDnXfeidGjR8sCS1RGguNlAO1gRfQa3dharRYGg0EaQ//xj38gOztbVspbs2YN6urq4OHhgeTkZOTk5OChhx5ykDguXLgAi8WCzMxMyZzc3d2lZNW7d2/4+/vj+PHjDsbqmpoafPTRR3j//ffxxBNPID09HVVVVXjhhReg0Wjw+uuvY+TIkbL/Li4uyM7OxmOPPYaZM2eiR48e8Pb2xrlz57B+/Xp8/PHHOH36tPR4ubu7Y+zYsXjkkUfQt29fKZ1cunQJv/vd79C3b19069ZNFhU3GAz4+OOP8fHHH6O4uBiNjY3w9/fHlClTcP78eVl5r4v+e6hTSYRuVV7AiKItyc3Z1NR0GZgPbXKNRoNvvvkG27dvx6hRo3DbbbehsLAQy5cvx6JFixAaGorKykqMHj0a6enp2LlzJ9avX4+nnnoKqampSEpKkgfxww8/xF/+8heEhIRg/vz5iImJQXNzM7766its2rQJ1dXVCAsLQ58+fZCQkIC0tDScPHkS+/btw4033iir+ZWWlmL16tUAgKFDh0KlUuHs2bN48803sXbtWtxyyy2YOHEiXF1dcfjwYXz22Wf4wx/+gICAAIwePVoyNhcXFzQ3N0sbD9kCCDwJaEdks1gslx2MyspKvP/++wgMDMR9992H4OBg5ObmYtmyZSgqKkJoaCjuvPNOAG0lNKqrq+Hp6elQh4Zc4gAkPsmxY8dQWFiI9PR0KQF4enpCr9fL+jF6vR4pKSlYvXo1tm3bhpEjR8pLoKKiQkqZycnJCAoKQlNTEz799FO8/vrrCA4Oxvz58xEWFga73Y61a9di5cqVuHTpEt555x10794dQghUVFTIMp9ENpsNa9aswYsvvgiTyYQFCxbA398fZ86cwTfffIOamho0NzdLNYcHj3FpmEt+XfSfp05zZ2z/LsNoNBpx7Ngx1NXVyUJTRUVFsNlsOHr0KCwWi/SwxMfHIzIyEh4eHhKRPSsrC/feey+io6NRVVWFuro6rF+/Hi0tLfjjH/+I8ePHIzExEXfccQeGDRuG3NxcHDlyBElJSbBarTh58iT++c9/QqfTYeHChZg8ebJ0A48ZMwYvvvgi1qxZg08++QR9+/ZFYGAgRo4ciezsbCxfvhw33nij9CZkZ2fL8gn0+vbt27F582ZMnToVf/vb3xATEwO73Y5x48bB09MTb775Jr788kv06tULAQEBshIgjZtsJSqVSgZGAW06P9VXIfcvzVN5eTkyMjLw+OOPY8yYMfD29pYFt9566y188cUXmD17tjQoV1ZWwt3dXYIqk6GUmLaXlxcCAwNhNptRVFSEtLQ0yTDuuecejBgxAnFxcdBqtQgKCsLkyZOxYcMG5Obm4uzZs4iJiYG7uzv27NmDb775Bv3790dGRgZcXFywbds2fPbZZ9Dr9Xj22Wdx6623QqvVwmQyYdCgQXjsscewc+dO7N27F0lJSbISIs0HMdeKigosW7YMVVVVeP/99zFr1ix4eXmhqqoKw4YNw1NPPeUA49hF/x3UafEqki4KCgrwzjvv4NFHH8Wjjz6Khx56CKWlpThx4gTeeOMNZGVlISsrCwsXLsSxY8cAQKoPQ4cOxX333YfY2FgYjUaEhIRg7Nix8PHxwdChQ3HbbbchMTERFotFIr1rtVoUFRVJDM7Dhw/j0qVLGDBgACZPngw3Nze50UjdcHNzw1dffSULZI0fPx6hoaHIzs5GWVmZVCn27t0LAMjMzISbmxtKSkqQk5ODxsZGBAcHo7CwEN988w02bNiAw4cPw2KxSP2+qqpK1tupra11cGNbLBaHOiwA4Ofn55DmT5+lIuHjxo3DTTfdBG9vb9nvKVOmIDw8HN9++y1qa2sdPCjBwcEAHKNRSVp0c3NDQECArBRH0qDNZkNqaiomTpyIlJQUAJBgP3FxccjJyUFeXp5sLy8vT851jx49YLfbkZubi/LycowYMQJjx46VMTYuLi4YPHgwZs+eDQ8PD+zZswelpaXy2RTZSwbekpIS5ObmIiwsDBMnToSXlxfMZjOCgoJw2223YdCgQXB1dZX2ri7676BOJRG6XUNCQtC3b18EBATAz88PtbW12LFjBzQaDfr06YOwsDBZ+Yzq0AQGBqKurg6pqanSE0K3tJubG+rr69GnTx/pvSEvgK+vr7QtkKV+9+7dstYJlcakWAyz2Qy9Xo/g4GA0NjbKmJLY2FgMGDAAW7duxbp163D//fejqKgIBw4cQHh4OGbOnCnHWVJSAqCtwt6WLVtklizPmg0MDJTRp1SThirsWa1WB3WFUvkJ0pA8UaROuLi4oLGxEVFRUQ5MoLW1FfHx8QgJCUFpaSkaGxsRFBQkC6STB4NLOuSadabikCQJQAaxqVRt4MsRERGYOnUqXn31VRw6dAgTJ05EUVERdu/ejYCAALk2tbW1KCgogNFoRFJSEnx9fQHAQUXT6/Xw9vZGcXGxQzlLUiHJu1ZYWAibzYbevXtLzxUVvNJqtQgNDYXJZJKG3C7676ArVsATQiAiIgIPPfSQ1FFra2sxZ84cBAUF4ZFHHkGfPn2kqE4HsKmpSTIOigvhNgMeDNbQ0AAvLy95IHx9fR1yTbgnBICDq5VcllS9jiggIADDhw/Hxo0bsWrVKsyePRsFBQUoKCjA9OnTkZCQIL9jt9vh7++PMWPGID09XRZPam1thYeHB1QqFeLj46X3oK6uDl5eXjh//rysSUtBY6SSuLq6or6+HkAbQ+UqDwV2Ue1ZCtSicH9iBDqdDjabDY2NjWhtbUVlZaWM2uWBgFqtFk1NTWhsbIRGo4G/v78DMwHagZGBNobi6+uLUaNG4YMPPsDWrVtx33334dy5c9i/fz969+6NjIwMAO2xO+SaVdoiKL6FDK0UD8PD4nnsCxnsOWAzdxk7C3Lsol83dcpE6CDxwC2q4q5Wq2EwGOSmUpYxFKKtJKTJZHI44C4uLmhoaJCMhm51CkiiUpRWq1ViiQ4aNAgrV67EuXPnUFtbi4CAAAeXc3FxMerr69GjRw8AkJJBRkYGoqOjUVBQgF27duHgwYNQq9WYNm0aAEiGFxISAoPBgICAADzwwANSClGmlxMT0+v18PT0xLlz55CbmysNtNwzc/DgQVy4cAEhISHSRsSRyfz8/FBcXAyTyeSQYJaTk4Pz58/L2rVarRZ+fn7Q6XSoqKhwWBvOuJubm1FTUwOdTifnh+JQyA7DYzJUKhUSEhIwePBgbNmyBZs3b0Z1dTVqa2sxatQoWabU29tbxnmcOXMGlZWVCAsLg6urq8x3orq4JHUSUQ4TucTJXpKfn4/q6moZ0Edes6KiIgcm20X/HdShTYQWkieG0Q3i4eEh4sHClAAAIABJREFUPRJ0sHjaO8+dAdpVFQDSZevl5QVXV1cZE0BW+MDAQAeDoUqlQr9+/RAREYHDhw9j9erVKC8vl7Vb9+/fj88++wwqlQrTp0+XMR9WqxWJiYkYN24camtr8fbbb2Pv3r3o1asXMjIyZH9CQ0MxevRo+Pn5YcOGDdi5cycaGxthNBpRXV2No0ePYuvWrbhw4YK0RcTGxmLMmDEICAjAqlWrsHLlSly8eBEtLS1oamrCvn378OKLL6Kurg6jR4+WsRI0V+7u7jAYDNi5cyfWrVuHCxcuyCjgtWvXora2FlOmTJHzRy5Sq9WK48ePO2TKcq/KpUuX4OXlhfDwcBkub7fbcfz4caxevRqHDh2S0gAAREVFYerUqfDy8sKyZcuwcuVKJCcnY/DgwXKt1Go1kpKSEBISgs2bN2Pjxo2yFrDBYMC3336LNWvWwMXFBaNHj0ZQUBCANrsLSZwEFRkfH4/+/fujrKwMa9euRWlpKYQQOHfuHJYuXYqDBw/CarVK43EX/XdQh5IIuSn5rUzSREtLi6wKT8yD697k/q2trUVERITDd0k8NxgMEELIWAiel0KeFIqt6N+/P+bPn49XXnkFf/nLX3DgwAGZaHbixAmcPHkSEyZMwKRJk2QAlhACer0eY8eOxeLFi7F582aEhobipptukvEeFEk6ePBgzJw5E59++ikefPBBZGZmwtPTExqNBqdPn0ZxcTGeeOIJzJ49W97qo0aNwpEjR7By5Uo8//zzGDx4MLy9vWGxWHD8+HEcO3YMaWlpmDdvnjRoEpGad/78ebz00kvYu3cvQkJCkJubiy1btmD48OGYP3++lDLIFqXRaLB//3706NHDIYnNbrejoqICFRUV0Ov1DpJCbW0tli1bhvfeew/33HMPevXqJUP33d3d0a1bN0RERODQoUNoaWnBo48+ij59+jgE+40ZMwYLFizAG2+8gVdffRX79u1DWFgYhBD48ssvUV1djd/85jcYMWKEZJR1dXUyutlsNiMwMBBBQUGYOXMmjh49ildeeQVHjx6Fh4cHioqKUFhYiODgYJSXl6O6uvqn2d1d9ItQh3VnSPTlCW5EoaGhmDlzJvR6PUJCQqQhDXCUOuLj4xEXFycNikAbE9Hr9UhLS3MIbyaDH0U/BgQEOBjY7rrrLmi1Wnz77bfYunWrjCWIjIzEggULMGnSJBl+TwdACIG+fftiypQp+P7775GQkICpU6c6pMVrNBrEx8dj3rx5CAsLw9atW7F582aplgQEBGDs2LHo1q2bjOi0Wq1ITU3FE088gcTERGzduhX79u2TuSBBQUGYN28exowZg/79+zvMJQV0AcDEiRPh7u6OXbt2obS0FN7e3pg1axamT5+O3r17y3XQ6XQYMmQIdu/ejQMHDuC+++6TcTg6nQ41NTWoqamBwWDAhAkT4Ovr62ATEUJIOw1Jk7QeKSkpmDZtGt577z3ExsZi5MiR8PT0dIi81ev1mDlzJtzd3bFx40bs2rVLuvBjYmLw4IMP4uabb5aRrzabDYGBgYiOjkZSUpK8kFxcXDBx4kTY7XZ8+OGH+Oabb+Dj44OIiAjcdddd0Ov1WLx4MYKDgx0ipmkMtE+6YkR+XaQSQohNmzbhs88+w7Jly+SG7yygx1nyHOnHZBxrbm5Gbm4uPD090b17d4dyiTU1NSgsLIS/vz+6desmk8ko2rSyshIhISFITk6G0WiUMSE1NTWoqqrCxYsXpS0hKCgIERER8Pf3d8DDANrUL1dXV3z//fcwGAzQ6XSyhgl5UHgiX2VlJc6fP4/a2lrpEfH29kZgYCBCQkJkuUagvaJfTU0NSkpKYDAY0NTUBBcXF4SEhCA6Otohmpcf6KeffhqLFi3Ce++9hxtuuAFFRUUySjYoKEjaIOQiqVQyYK9///74+uuv4e/vL9fHaDTiwQcfxOrVq7FkyRLcfPPNMq+H3OWFhYWIj49HYmKiQ+VAu92Os2fP4uTJkwgICEDPnj2lB4a8YGR8rqioQGlpqbRZAW1MNiYmBv7+/tKuQ0bl3Nxc+Pn5IT093WFP1dfX49y5c6ioqIBarYavry8SEhLg6uqKXbt2YdCgQZIhKeehi4H8Omj16tU4fPgwHnjggbaC3l9//bWYNWuWEMKx0HNHRO9ZLBZhsVhEa2urMJvNDsWjbazgtclkcijkzL8vhHAo4E2FoIn4M4hs/y7ubHNSVJv3u6WlxaFd/h4v/qwsIK58nxN9jhef5t/hRa2FaCuCzftht9vFb3/7WwFAvPfee8JsNovW1lb5vslkkoXNqbC47d8F1AcOHCj0er3Yvn27sNvtspD12bNnRUxMjOjbt68oLi4WRqNRFjKncdCa0O/W1lZZYFxJVAjc/u8i5rwwuPJ9Ti0tLU4LdtMaOptTZ+vN15d+7IqC5F30nyVe0PuaMVbp1qG4B44nQcY7DhLEUbsotZy7PYH2GAdKdKMgJbJ/UIQoqU9CtEHvmc1mByBk8W8xmLskeTq6EgsDaLOPcFcySU1ms1nGe3Cim5zeB9qzWm02m0xrd3NzcwBfMplM0itF6e88A5rmkWcHNzU1Qa1W45577kFNTQ2WLl0Km80mJaMvvvgC58+fx9SpUxEWFia9L4TbQWOiZD4yyCpdwAQsxNHkOUYInzuaf3Kv01qR+5nUU1It+ZhaWlocsErIg0QwkuQu75I8/jvomktGkPpBxPEk6MdkMjmI8bShlOhbQjjWZeEbnzMEoD3JjQ46t6twTA9l6QD+OQIq4vEJ/H1iSBSrQUQHUQm2xInGS0F0NC4iSo1PT09HZGQkvLy8JNwBj42h8VBbVqsVU6ZMwZo1a6RbOz4+HmazGSUlJRg6dCgmTpzoFL6B2uRxIpzBkpGWrydPLOR/c7hKJfyDswNPxl8yANP3iUnxgD76Prl++Z7ool8vXTMToZBmWny+ieiWcnd3l5IDbVBiJPRZbpTl4dy0QemmoxgUXneFZxg7Yx504MnLQRmv/LDwQ0dgRhqNxgEwhxOXUMi2Qu1wxkh9pwNKXh2dToepU6ciPT0daWlplxU35+PiTI6MqM8//7x0havVanh7e+Pee++Fq6urjJOhuSCbBkWNcuhH7nVTMh6+Jso1ByClDZ7drTzoNptNzjM9i6RTvv407xxHliPROWOKXfTromtmIhxQhv4nIs8BcDm4ER0O/roScoB7BjiUnhDCwdJPz1IicVG71B6PjqRNTIeVo3eR9AG0SxiUf0I3N7XNM5upz5wRAO3RnvQ3xW0kJiYiMTFRGqBJHeR9BtpUITL+UhAWeW0ASDWOjMUEeET95BIE4aHQgVbCSvJMWVojUle5JEPjdQZvSGvJUeDoNY6lSuPke4n6omRGXYzk10/XbBPhm4YOJxEvykTeD9K3ScIglYEzDi6R8AA32tT0N6GJ06Hnnh/eP9L9qW+U70KqEPWDXLdc3KfvUPvKzU2qDVcJaLMrUc5IaqP4DCpvQUhuHI+F+kxwhKR2Ud4O2W1IsiAJDWiP7SGGQHNJbXHwZ+oX9ZEfaloXninMpSz+OfoMXyuKQqZnabVaB2ZPxCUt5dwp17KLfr3UKZ7Ild5zdpsQcSMnAAdpALh8s/AbnbfFAXaI+A2rbEOpR19pUzrrh3IszlQvfkPSc+k1up05pCB9jyJqeRg6tUESnPLWJgmAj51eI+ZDjJDaJEbCVS7AUYJUziNXTbi0SHYLUg35RUBzSIZUCuFXAlk5Uw2dra0zNYr3jRNdNhzDhfdJSaRy8ve4qkVj5Yy2i4FdmX62Wrz/icn/Ka35ztpRHnzAeVCe8sbndhTK6+GSFmegP0R0vxKj7+j9q5kjHrQHQBrDO0rq4wf5lyC+DqQKcq8aT5vg5OzSABwLgRNj6aKro2tWZ7jn5McQ//4PaeunePaV+tLRM3igHbfrkC2AXJTkNuUFmjw9PS8zxpJkwo3EVyKuBv4cRAhuQHtVQFLxaF6Uxl/AEemff/anXi/OuEmKI1c7SXR8jriLnv7mnjZS25Su7y66Ml3zbCldtEor/ZU2zJU2/5W+/2M3pFKaUBJXXZT2APJ2cBg/pRjO3aZUw4bHrHCxmfflh0gknc0hV7Guhfih4zEsgGNJDl4VsLO+KPv7U60flxq4+khjcKYy8VpESlWKZ6N30dXRTyKJOPu52jau5jVn5OwWpmf/EDyKzp7HD7TSfUs/ytotQNvm5dX2uKuTbAvceEn/c3ChH0tKm9QPJTc3N5nKbzabkZeXJyvTabVaXLhwQQJmcymMqzQ/Zn2vRLywWUfP4JUN+TqSaqZWq9HQ0IDs7GxUVlY6tRN10ZXpmpkIkdK4eLVMxJnq4Oy9jogOuPKH3rua53e0yZU3OHc/A+2QCORpIRQzUl3c3NxkEBkVpOJGTqWozQ2y3BNytWNwNu8dzc8PkUyIua1fvx7PPvusLIkJtOGlPP3009i2bZs0BnNDr7O+8H7/WKI5JAMvecAI3Q6A9NqRJ4971Gj+c3Jy8Ne//hVr166VUbc/tZr8v07XrM78kAPbGSmZx9W250xE/rH96ezm5O7n5uZm7NmzB2fOnIGbm5v0ThB0YnJyMmJiYuDh4SGzmrmrmrdHz+CGvauZh58b/YtiY86cOYPFixejpKTEIcrX1dUVBw4cgN1uR8+ePREXF+fgyuZxJ1zF5faUH0NKNZrcyIcOHYIQAj169EBwcLCshUNMnNc9VqvVOHv2LDZu3IiwsDAJHN0Vm/LD6EeFvXNSTvqPtYlciZTWd2cekx9CzvpPh58fcIvFgsbGRrzxxhvYvXu3ww1M8RGZmZkYN24cRo8eLeEJKOtYmcsC4DKbyrWogx2pdvyw/RDXJUE+fvfddzh8+DBmzZqFkSNHyhIiY8eOxejRo7FlyxYcOXIEcXFxUj3jlQF/LuJubDKKnjx5Eq+//jpOnTqFpUuXymLnyjwpu90uy3lQXpOXl5dkOL+kl+l/gdTA1btGiYtbrVaUl5dLNC8uHlIwGI9M5cYt/hyyjtPniDFwPZZuPjLm0YYhoybdanTb8ANjs9lkkBu1S9/nwMV0g/Jx0CHgEbPknqVyjyqVCvPmzcOiRYuwaNEiPPfccxg5ciS+/fZbLFiwAH/9619RUVEhb3VCQKdxUbKhMuyf+ksRprRGJpNJjoMntNHckihP808if3NzsxwrPY/PFRlH6btEBoMBW7ZsgcViwbBhw2T50ebmZnh6eiIjIwMWiwV79+5FVVWVQ4oBjysh745KpUJTU5NMK6A+8fFyZkdMQsks6DXaM/SbGDyv9cNTJqhOkFqtlmhrZCehPcGD5Lro6qjTCnh0EMkwSJvWaDRi6dKlqK6uxqOPPorQ0FC0trbC3d1dooU1NzdLfA9+EMgYyUV7coXSZ3ltXTJ0EeOgTUSYGPSbh9kT46BND7S5KbmBk8pRAI6ehdbWVhiNRpmrwo2lZEStq6uDWq1GXFwcJk2aJBG9rFYrxo0bh6lTp+K5557DRx99hPDwcDz++OPw8/OT9hKaC3oeZbH6+PjI2Aw6jBTdSrem0WiEp6enDHGniFw3NzcJRkTSDuGbuLu7yxpAVNlPp9OhqqoKPj4+MiGOh9/b7XYUFRXh2LFj6NGjB+Li4iTToUNJSYTHjx9HeXk5goKCZN/d3NzQ1NQkkeuampqgUqlknwndnkfrarVaGI1GmYVMDJMwWmmeCGKTxk579Prrr8cLL7wAk8mEvn37yvmlPaZEn1epVJfFmFytd7GL2qnTgt6Ao8eBDr3RaMSWLVtQU1OD2bNnIzIyUkY1kvjY0NCArVu3onfv3khKSkJ2djaOHz8OrVaLqKgo9OzZExEREbh48SLy8vJkLd6YmBiMGjUKOp1O3hB2e1uZCZPJhP379+PSpUuora2Fq6srvL29kZmZKcs0AkBpaSnWrl2LlJQUjB07VjInKl1RUlKCQ4cOISwsDIMGDZLjvXTpEo4dO4aysjK0tLRIgKCUlBR4e3tLpubl5YXm5maHkhBCtGUaX3fddUhOTkZtbS1++9vf4pNPPsGtt94KHx8feTPa7XZUVVXh1KlTKC4uhhBtUbLx8fGIjY1FTEwMrFYrjEYj9u/fj6KiItx4442IiIiQY9RqtVi7di2sVisyMzMls7Tb7WhqasKuXbtgMBgwbNgwxMTEoLq6Grt27cLQoUPh4eGBQ4cO4fTp07DZbEhOTkb37t0RFBTkkDBZXFyMgoIC3H777UhKSgLQHiVKtpDIyEgJLt2zZ085l6dPn8b27duRmJiI4cOHw9PTExs2bIDBYMDIkSMRGhoqmSQxpRUrVsBisaB///5ITEyUVQaLi4tx5MgRWQXQ29sb0dHRSExMlHisBBXR0tKC2tpayRgpf6mpqQnff/+9rCWs1+sxZMgQCXjFoSsIDqGLro46ZCIc74E2DXdnBgQEwGAwSNWDvBAk/l+4cAGLFi1CdHQ04uLicOjQIVn9ztfXF/PmzcOAAQOwatUq5OXloaGhAeXl5YiMjMSlS5cwc+ZMeHl5yUjI8vJyrFixAp988olEOyNbQ+/evTFr1iyMGzcOGo0GZWVlePnll3H99dejV69e0Ov1cqNWVlZixYoV+OijjzB16lSMGDECAHDkyBG88847OHDggIwjUKlUCAsLw5w5czBjxgypNpFEQRuX5oknt91yyy344osvsHfvXmRnZyMlJUV6C3JycrBkyRLs2rULQgippri6uuLmm2/G/PnzERcXB6PRiJ07d+KTTz6BWq3G3Llz4enpCaPRiDNnzuBPf/oTrFYrfve73+H222+XIn5FRQWeeOIJBAcHIz09HXq9Xn5+5MiRiIqKwrJly+RcBQYGYu7cubj77rsRHh4OABJ93Wg0IioqSiKp8RgZHx8fBAUFoba2FuXl5VIt0Wq12LhxI15//XWMGDECvXr1QlBQEPbs2YN//etfeOaZZ2SJULqkqqqq8Oqrr8LNzQ3x8fFITk6GzWbDxo0bsXLlShw/fhxAW7nQ8vJypKamYvLkybj99tsREhICtVqNkpISfPTRRzh//jwGDBiA6Oho6HQ61NfX48svv8Rnn32G06dPS9S0HTt2OBiD6eLsCjb7YdThbNEt4Sz2gg6PEG1gyHa7XeJxkAGxubkZVqsV69evR3x8PIYNG4bZs2fjyJEjWLt2Ld566y0EBgbCarUiIyMDCQkJOHr0KD7//HO8/fbbGDRokIRVBIC3334b7777LgIDAzF58mSEh4fLqncrV65EdXU1QkJC0KdPH3h7eyMyMhK7du1CTk4OJk+eLEXxsrIybNiwATabDf369QPQVvXtL3/5C7Zt24ZbbrkF48aNg06nQ15eHj755BM8//zz0Ol0uOmmmySKOc0BZ7ZkAxDi/9g78/Aqq2v/fzKfnMwzmUMSIIEQCEHmeZJZHHAEtHVopa3W1la9tr1oW3tb52q5VamCisSKLSoEJYoos2ASwhSGQAiQec6ZkpOc9/dHXDv7RFBstfZ3m/U8PCQn73mH/e699hq+a30N1VLRy8uLwsJCbrrpJjw8PKipqeEPf/gDb731FhMmTOD666/HbDZTWVnJa6+9xsqVK6mtreWPf/wjISEhxMbGcvbsWV5//XWuvvpqQkNDMZlM7NmzRxGkv/nmm+r8NpuNPXv2cPz4cYYOHUpmZqZSuKdPn+att94iPT2dmTNnkpuby8GDB1m3bp3qsXrdddfh5eVFU1MTpaWlAG5NlfS4kcvlol+/fgDU19djt9tVHxUvLy+Cg4PVe3I6nQwcOJCamhpeffVVli1bpoKbLpeLzZs3U1JSwsiRIxk4cCCGYZCfn8/TTz/NiRMnmDdvHpMmTcJkMrF9+3beeustTp48SUdHB/fee69iFTx37hwVFRVKMXd0dLB161Yef/xxysvLmT9/PhMnTqS8vJy9e/dSVFSkLEypdO5dttAnXywXVSKyq0ow7ODBg7S1tREUFERzczMVFRU4nU527NhBWVkZ3t7eBAUFkZiYSFxcnNrNAwIC+M53vsOSJUtISUmhqakJp9PJ6tWraW5uZsWKFdxwww3ExsZSV1fH8ePHKSws5MCBA6SmpuLv78/hw4dZs2YNhmHwyCOPcNVVV7l1In/ooYfIy8vjlVdeYezYsSQmJrJkyRLuueceNmzYwMKFCxWt55EjRygtLWXChAnceOON2Gw2du/ezc6dO5kxYwZPPPGEMpGlqfCzzz7L9u3bmTlzJiEhIdTX16u+JL13Lf33/v37q8Bie3s7ZrOZF198kbfeeoupU6fy6KOPkpubC3Tv/AMHDuT73/8++fn5LF26lBkzZjBx4kQGDRrE3r17qaysVDGFkpIS5XYcOHCAkydPMmDAANra2li/fj1BQUFMmjTpc0hSoRi95ZZbSEpKoqmpCS8vLx5//HF27tzJNddco+JVtbW1qlJYDy7raM+kpCT8/f2pr69XbpnL5WLhwoUMGDCA1NRU9f158+aRnZ3NwYMH2bNnD7NmzVLkXevWrcPpdLJ06VKio6Npb2/n5Zdf5tNPP+WOO+7gvvvuIykpia6uLqZMmcLAgQP55S9/yZtvvsmNN95IQkKCwudIxTN0B4d3797NkSNHuP7663niiSeIjo6mo6ODTZs2sWrVKj744ANaW1vd+t70yaXLFybrJWJ++PBhVq9ezf33388999zDAw88wPnz56moqOB//ud/eOihh/j5z3/Ob37zG8rKynA6nYSFhdHS0sLgwYNZsmQJiYmJ6vPc3FxiY2OZN28eN998M7GxsTidTqKioujfvz9dXV0cP35c7QYffvghDQ0NTJ48mfnz56t8f1tbG4MGDWLZsmUYhsHGjRtxOp0EBweTlZVFv3792L59O2fPniUoKIi2tjbef/992tvbufzyy/Hw8ODs2bPs2bOHhoYGQkNDOXjwIKtWreLFF1/kww8/VECy0tJSKioq6OrqIjAwEKvVqhYN9KSEnU6nipWI9RYSEqIyPhs2bMDPz48lS5YwfPhwOjo6sNls+Pn5cc011zB37lxsNhs7d+6kq6uLhIQEZsyYgcVi4a233gLg9OnTbNu2jcDAQLKysqiqqmLTpk1Adzxo165dpKenM378eLfMiKenJ7m5udx9991qQYaFhTF69Gg8PbubTsszSSzB39+f0NBQoKdmSJewsDDlMujWampqKvPmzSMzM1O5DHFxcYwdO5bOzk5efvlloNtiOXz4MJ9++impqaksXLgQm83GkSNHKCgoIDAwkHvuuYfU1FQV9ExJSWHZsmUMGTKEkydPcuLECWWFiYUk8aempiaOHDlCREQEixcvJjo6Wimu+fPnM3fuXLq6ulTLxn8WevCfKBe1RPR6hLi4OIYOHaoCme3t7fztb3/DZDJx2WWXkZ6eTnNzMxEREYSFhalAVkdHBykpKcr8l9RfREQETU1NZGRkuGV0AKKiovD398dkMmE2m1UKESA2NhaTyaTiNEFBQbS0tGAymUhPT8disWCz2QgJCSEjI4PJkyfzt7/9jbfeeovly5dTUVHBgQMHyMjIYOHChW7pQICPP/6YsrIy1RvEw8NDceykpqYSFBTk1ktUEJ2i7HqX/hcVFWEymVRWoLa2lurqakwmE1lZWdhsNoKCglT619PTk0GDBmGz2Th9+rTKEA0ePBg/Pz/Wrl3LAw88wOnTpzl37hyLFy8mPT2dX/3qV+zbtw/DMDhy5AgNDQ2MHz9eWTkOh0NZCFFRUWqsJaWrl+5LNzZ5J9IfRFLpvUFe8qwOh4OOjg71PUm5yruULNqcOXP461//yq5duzh+/DgDBw5k48aNWK1WFi9erKzAiooKrFYrAwYMID09nba2NgICAlRvGj8/P4YOHcrJkyc5c+aMUiKSWrZarYSFhWGz2aioqFBzGFDulY+Pj8qIxcTEqLTvxTq79cmF5aK8M/K5h4cHCQkJLFmyRAX/ampqOHLkCPX19SxfvpysrCyVnZDJFRQU5BY7AXe4uAQpHQ4H4eHhavLJJJXd3mQyqYBkc3Ozwj1IDEZ8b9mFRPkFBwczadIk3nzzTfLz87nzzjvZv38/hw4d4vbbbyc1NRWXy0VVVZWK48yYMYOZM2fS1tam0qkeHh5ERkYSGxtLSEiISklK+hp60rUSD/Hx8aGkpISqqiqcTifjx49XLQl1K0ZEnl3PEOjI1vHjxxMfH8/hw4epqqpi586d2Gw2rrjiCoYNG8aDDz5IaWkpR44cYfPmzQQHB3PVVVepQj9ZxNBTvyNcQNJ+0mQy0dra6gYUE+IpoT3VEagyNxobGwEUf7KkY+W68iyyWcyePZusrCw++ugjdu/eTUJCAh9++CGGYbBkyRIABREQwnS9VEDeucPhULgPUYqBgYGqp4k0bRJ6C19fXzcOZDmXjJGkkHUIf59cmnwpTkTMYGGE8/T0VLtLV1cXISEhBAcHq4Ugk7W1tRWz2awWvSy6jo4O1XhYx6DI/5Kma2pqUpNn7Nix5OXlUVVVRUtLCyEhIW7p1mPHjlFZWcmYMWMULiE4OJhx48YRHx9PSUkJ69ato7i4mIiICK6++mqge0GFh4cTEhKCw+EgJiaGK6+8UqEWdTCXjmkQLIooD0khyzNYLBby8vI4ceIE48ePp3///gQFBeHj40NYWBgnTpxg9+7djB49GuhRQlarlQMHDuDt7c3s2bPV4ktKSiIjI4PTp0/z8MMPU1hYSGJiIikpKYSHhzNnzhx27NjB6tWrKSkpITw8XCkuvS0B9LQfEGCXpNG9vLwUatNms9HV1UVUVBQOh4OGhgYVbJSxESvt7NmztLa2EhERQXBw8Oe66gsEXsBvQmC1Y8cO8vPzSUtLY//+/YwYMYKRI0eq+x08eDARERG0trayd+9eRo8e7XaelpYWCgsLFVewPJf09RWXNyYmhtTUVPbs2UNhYSGDBw92m+f19fUKRiDp5j4F8tXkojZb795X7POJAAAgAElEQVQWOmuamLs2m025AiK6G6Q35vX09FRNnT08PAgKCnJzCcRiESUlO4zT6WTSpEnExcVRXFzMn//8Z06dOoWPjw+NjY1s2rSJZ599lsDAQEXULfc4ZMgQFixYQF1dHX/5y1/YuXMnQ4cOVUCkzs94X0eOHIm/vz9bt25l+/btinS8ra2N4uJi3n77bYqLi5UbJTgC6aolz1lfX8+OHTt44oknFJPb7bffTnJyMtBtRs+dO5fAwECef/553n33Xaqrq/H19eX8+fO88MILFBQUMGjQICZPnqx2zrCwMGbPno3ZbGbt2rWcOnWKcePGkZaWhtls5rrrrqO1tZW1a9dy9uxZcnNz1TXF+hNWO29vb2VReXl5KdoJQeD6+vpiMpkICwsjISEBwzCoq6sDUH8XF0jeQWdnJwEBAaqa19fXl2PHjrF27Vp27NihYiIi8+fPp3///hQWFvKnP/2J5uZmbrjhBnWfnZ2dDBgwgAkTJtDa2srvfvc7ioqKsNlstLW1cejQIZ566inKy8uZOXMmI0aMUHNVgsKi9KKiohg4cCANDQ28+eablJaW4uvrS2NjI48++iirV68GUG66zJ0+uXT5woS43gIPenYxDw8PkpKSFLJQD6jpcYGWlha3knh5yVarVXGuyI4ofTfsdrv6jpx3yJAhfPe732XNmjU88sgjbN++nYyMDKqqqjh69CinT59m2bJlLFu2DMANFj5nzhxWrVrFtm3bCA4OZunSpQQGBrqV9s+fP5+jR4+Sl5fHTTfdxJQpU0hLS6OtrU2RYN90001kZ2crl8vlcnHmzBlWrVrFvn37cDgc1NfXU15eTllZGSkpKVxzzTXMmTOHgIAAtdvfcsstVFRU8Prrr/PTn/6UESNGEB0dzenTp3n//fdJTk7mvvvuU6lT+d6ECRMwmUzU1dXR2dnJyJEjlZIdMmQIkZGRVFVVER0dzaRJk/Dx8VHjIGMiVa7iDkrgXDh3bDabgrSHhISQnJxMSEgItbW11NbWEhUVpdxQscbOnDmDv78/KSkpKhbicrnYuHEjjz76KAsXLlTAMbmXAQMGMHr0aDZs2EBeXh6pqanMmTNHoXC9vLwwm80sXbqUsrIy8vPzqa2tZcyYMVgsFg4fPszhw4eZMmUKS5YsUbEMmTvimojlN2nSJHbu3ElBQQEtLS1kZ2dTXV3NoUOH1D2dP39euUV98ZCvJhdVIhcqYpOYQ2hoKNdeey0ul4uEhITPBd8Mo5v7ddy4cWRmZqrJJdZIXFwcEydOJD093S3I5+PjQ2ZmJtOmTSM5OVnhCABuu+02UlNTycvLo7Gxkd27d9PV1UV6ejpXXnklc+fOVYz0gIpBXHbZZSxevJjjx4+TmprK7NmzlbUk95ycnMzPfvYzkpKSyM/P58yZMxw7dkylcSdPnsy0adMU4lWyIna7nbq6OgVacrlcREREsHDhQhYvXkxGRoYb3aVc60c/+hExMTFs376dyspKTp06hbe3N1OnTmXZsmXMmjVL7fQigwcP5qqrrlKVw5dddhment0cLrGxsdxwww188sknDBgwgFmzZqkxlaCt2Wxm/PjxDB8+XO3Sgk5NTk5m1qxZ5OTkuDX0SU9PJzY2ltLSUsrKylTQ3M/Pj/b2dk6cOMG5c+cYNmyYwnbI2IaEhBAXF6cClqLUxTK99dZbqauro66ujjlz5pCYmIiPj4+CEXR2djJjxgwcDgcffPABBw8epLCwUKVhr7/+em6++WZGjhzp5toOHz6csLAwNW88PT2ZMmUKnp6evPrqq1RUVLB3715MJhNLliwhLi6O1157jYEDBxIcHHzBVhB98sVyUS5ePXjYOyqv+8b633VIdEtLC8ePHycsLIykpCS3ysja2lrKysqIj48nKSlJBeK8vLwoKyujtraWtLQ0AgMDMZvNKvDpdDqpqqqiqqpK1WWEhoYSFRWlQG8SWNP7gx47doy6ujoiIiIUrkGUnd5Kz2q1cu7cOWpra/Hz81NAKAmsqkHz8ODEiRMqECl1OhJXEHxL78koaV9vb28aGhooLy9XcSIfHx8SEhIU9FzqWPTGw2fPnqWsrIygoCAGDx6sForD4aCyspLTp08r8m+JdUh/DKvVys6dO8nMzCQpKQnoKYBsbm6mpKSEuLg40tPT1WZw9uxZvve977Fjxw6ee+45brjhBrfMxZ/+9CcefPBBlixZwq9+9SuCgoJUvEQgAElJSURHR6sxtlgsyrXavXs3AElJScTExODt7a2UiMy/jo4OGhoaqKyspL6+nqCgIIKDgwkJCSExMRHogeK3t7dz7NgxWltbVdpaxq69vZ1Tp07R3t5Oc3Mz4eHh9O/fn46ODioqKoiKiiImJsaNHkTedZ98Xr4SF2+nxlMrXKo6p6pwp3Z2drp9rnOsCudre3u7Oq6rF7eriEvjW+19Dp07VjhfOz/jrO19LblOR0eH4XK51PHyv9PpdLtuR0eH29/q6+uN3iL35nA4FLdvR0eH230Jr67VanU7v1yvN1evnNNut39uLOR3u92unlH/fkdHh2Gz2dyeX74v/Mi6WK1WwzAMxeHr0jiT9Xcs53A4HMZjjz1mBAUFGT/4wQ+MlpYWN07chQsXGoGBgcaqVavc5obNZnO7ttVqVeMlYyXPK+JwOC44D9rb29Xnco/t7e2KJ9jhcKh3fTFuYeE0lufv1PiJXRovtMVicbu+q4/796JySVy8hhbNF9ErZQG3GhZDM2Whpw9p73iJWBxi0QiGAXA7Xj6XYJeY0fI3X19fWltbVcS/qalJFdlJlaa4BIYG25diK+GZEZCRFGIByi0BFG5CqmkNw1BukGQfxM3Rm/yazWZ8fHyw2Wzq2SXVKBXLVqvV7flk3KCHz1jg2F5e3eRUkqrUodre3t5YLBZ1HUmL6oA3iREAKp2sQ/XlusKHK9eeN28eSUlJfPDBBxQVFanA+JYtWygqKmL06NFMmTJFzZXOzk78/f3Vc0pFr7e3txt7oclkUsdLVbHO+yPjJi6wjIdYfTqoTKd8ANzKEeTZZc5JhbZ0pHO5XKq5tMSuJM3eJ5cmX1rFe6FiJFEAejqsd25dlAVwwYCVHKv3dZBJJH6vTGSdW0X/TlBQkDqPoCqNz/AqxmfIS+Mzl0LvE6EHg3XFoQZFq524UA9V/V717+hjJ98XtwZQC0cUm7gjet8Mvb+KPk6Ael6dfU/+Fz4buY64MnJ+PdbR+xn155K2juIWpqWlsWzZMt555x3OnTsHdC/yQ4cOkZGRwXe/+11iYmKUkhKciLAX6u+7t6KUbFHvOSaZL9mY5B2K0hOFof9NJxPXydOgJ/YlLrV8R47T54COhemTS5NvrVzxUl+SvPCv+r2v6/rflujK40LyZfd/oaD4V/m+juq88cYbGTVqFP379we6F/nVV19NVlYWubm5CpvzTYquFL6O4y6Wgfl3nxf/jvJP91j9Jr/fW4F8Xdf+V8i3fY8Xu/6l3pcemE1ISCAhIQHo6b6WnJxMUlKSqpQVDJDeOe3rli9TEPrfv+3x/0+Sf+vGCXpqVP/9/4J808+iL7Z/5FoeHh7K/NczXTqRusR55HjDuDAHzz8ivd99788v5bt98q+Rf2slItI3Kb66fNmYXYq7JDECURwS1AT3OIp89k3EEi5mffyzllaffH3y/wU0TwKv/0kiz3yxf5f6/X9G9EbR4N4XVkTvgi8imZWvS74J5fSfOKe+Kfm3t0T0F32xGMn/RflnA6u9z/NVA6t6hkyyO72zLXrVtH6/3xQN5YViHqIMvuq8+E+ZR/8K+bdWIhdaSP9XFMnXpSS+yvW+yjnl/nTGOOnVcSFlIhaJ9A3pk/8c+UJ35otMPh3I1Ft0mgjdHNbNYDm/NADSj9OpJHvn7S92T73vxzCMz11Pjun9+cXOIT/rz6ODt3o/n35t/efe96vjQvRn6/2csvP25mWRjIguAmADLsipo/9NF/13OVbnwhFMi6R7Bdglx8s4CEBNFIic50LvSr93qVQWudi4ynmEr0ZEB4f1uSffjnyhJfJFO5cgHXVzF3pQqfJCZeLrO5jOpSLmsG4W68jX3n1NeteiyH3qYCpBhuqcNXLeCx0rwLTerG29wVjymQCaZBz0qmFJi/auOdLvQSerkmM8PDxUZ/uWlhaqqqo4e/YsXl5epKWlER8f73ZecTXknBLclCZCxcXFJCcnK6qHs2fPcuLECXJycggICFCZF1n8esGfDv7SQWL6M+gIWBnL3opfP49OqCWoW5PJpOqcJKsjGR89mCtNwwWhW1BQgJ+fH2PHjr2gVfR/xVr9/0UuObB6oR1VEILSsFiniNQRmKJw9N1QGurK79DTdQt6gnrid+u9TGTX1RWLXFcWmL7D6RNa2OsAdaxepm4YhmpFoMPl5fyiiOrq6jh37pxSQAL/1wvm5H4FHq8jKYWjR7c85B43bdrEXXfdxQMPPMBdd93F6tWr1T3ri1Xg3VIuIEplw4YN/PjHP+bjjz9W93PgwAHuvfdeVq9e7WZN9Q7WCrGXw+Fw67Imx8p46+MpndXl+YRkSmDlMtb6GAuq1m6309LSot6r3Jf80zNEHR0dNDU18eCDD/Lyyy/T0tKi3rEOVe9TIP9a+cqtAERkUl0oeq//XT6TBSaNcPQWdfr/vc1p3dIRKL3shPrOo/dF1Vvm6ZaJKCS914Z8Xyar3B98fkeWe2psbGTdunU0NTVx4403kpaWpu5RXAkx+3UrTV9EomQNw8Bms2EymfDx8eHTTz/lt7/9LSdPnuT2229Xu7PUzejwfb0yWsBhra2t/OUvf6GxsZEBAwao8U9ISKCtrY2XXnqJadOmkZOTo1oD6iUK0hRKf275XMZKtxR05SjPo9fAXAhaL1ao1Wrlgw8+oKKigrlz5ypAm6BlewduxbWT/i2dn9GSymamd1Hrk3+dXJIS6a1QpNBMqDOhh6ZSjpNiOOgpmJOCOunTodNkiuLQqTJ7X1MmpNyPxCqkbkJEJrn8vbebAj21Pr0VhUxGodnU4xfiMtTV1fHOO+9w+vRpRo8ezYABA5TZrTeS1kV2Zr1NoDy/9KMF+PTTTzl+/DizZ8/m/vvvJzQ0FIvFQnh4OC6Xi927dxMbG6t6p+hNox0OBwUFBRw8eJD58+czefJkNXZDhgxh6dKlPPnkk3z44YcMHz7c7d3JmECP8rTb7RhGD/2knMvDo4eKUqeelL/r5fT69+RYuW5XVxd//vOfKSgoIDw8nKVLl6rArMwLUbJSlxMQEKAoKARur1uketyoT/418qUqu7cbI7tBUVERe/bsUWakPpnEOpHv6gFE3eQXRQDu5m7vgJyHh4dSQrLriQshcQJp+iy7q5xT+nzo7o4oQYlDSKWuuB5dXV0qXtNbQUGPCV9XV+f2LBJXENNb+GbkelKpKvcgbp48c2dnp2pFGBcXR79+/VTTIXF9li9fzjPPPENAQAABAQH4+vrS1NQEdCuD9evX4+3tzYQJEwDcCNfHjh2LyWRi586dNDQ0uL0jPz8/Nb52ux2LxYK/v7/qXidjJO9Zjpd3LgpSxlt3ZaHbUhL2QFFafn5+jBo1ilmzZrkpRYfDgcViUdaIVERDN4+MdF+Te7+YNdwn/xr50ire3iJB0ZUrV6odUu9QJju5UDSGh4cr6gcBIQUHB6vAmsvloq2tTZ1bOlRBj8KSkm9ZfNJWURr3+Pn5qevLPZw9exZ/f381OWXiQbeSq6mpITg4WF1Lz8RIJ3FZKIGBgW6kRhJYlQWm36uU2fc+XigVJNYjO6rEgHx9famrq1Ol6tKwWhRYXV0ddrudQ4cO4eHhQWVlJUFBQXR0dCgi7+rqao4ePUpUVBTXXXedurYs5vT0dAYNGkRRURFHjhxh0qRJSoEA1NTUKGJw6G44bbfbFYGVKH15vurqary9vQkNDVXjJm0LhBhdXEmTyeT2jhoaGggPD+fHP/4x586dIz09XX1fOrYBtLS0KItR6DdkjEXRiSK5UEVwn3zz8qUj3ht2LAEw6QAmZi30pBn9/f0pLS1l69atqiv5rl272LdvH35+fqSlpXHFFVeQkJDA8ePH2bp1K+fPn8fhcDBkyBCuvfZagoKCVK8O6N79y8vLFe1DVVWVKg4bPXo0o0aNUjw0FRUVvPLKK2RnZzN79mwiIyNVewCr1UpJSQlvvPEGM2bMYPr06YrB/tChQ+zdu5dDhw4B3XGEYcOGMXnyZMXfKhaVtG6UGIGcX47RuXRKS0vZvn07Bw8exGq14ufnx+TJk5kyZQoxMTEAirLzww8/xMPDg8LCQpYvX05KSgqzZs3io48+oqKiApfLRU1NDQ888AABAQFERUWxYsUKHA4HJSUl2Gw2oqOjCQ8PB7qBX0KfEBISwtChQzl+/Djnz58HUN34i4uLyc/PZ8iQIVx11VV0dXWRl5fHqVOnmDlzpuIsdjgcmM1mHA4HGzdupKmpicsvv5zs7GygOwt09OhRCgsLOX/+PBaLhdjYWHJychRpGUBERAROp5OdO3eyf/9+fvSjHymF7+HhQWtrKwcOHGDz5s00NzdjMpkYOXIk2dnZyvLQYzN6YPViLmyffDPiDReGFcsOJi9E4hBiEegxBel6rvObnDx5kry8PBUEtVqteHt7U1tbS1tbG6dOnSI7O5stW7Zw7Ngx/Pz8qKmpYd26dVRVVXHvvfeqhsqyyz744IN88MEHxMfHq6Y3lZWVREdHc9ttt3Hbbbcp/pTnn3+e/v37M3r0aCIjI9X9Cj3jq6++SnR0NNOnTwfg3Xff5cknn6SyspKMjAw8PT0pLCzkzTffZOHChdx1113069cPh8OhxkDMbX33k3EUS2TXrl088sgjlJSUMGDAAHx8fGhpaWHLli1MmTKFhx9+mIiICGpqajh8+DAWi4X29nbOnj1LYmIi1dXVZGdn09zczP79+1Wg+MCBA0RGRtLU1KSyGuXl5Zw9e5aZM2eqfhxiabhcLoKCgoiPj6empoaDBw9yxRVXqIDuzp07efzxx5kwYQKTJk0iPj6eU6dO8eyzz2K32xkxYgTBwcGYzWa6urooKipi1apVOBwOpkyZgtPppLW1lb/+9a+sXLkSm83GoEGDcDgcfPzxx6q94j333ENaWppqibllyxZeeuklrrnmGiIjI5Xbk5eXx/PPP091dbUi7H733XfJyspSLpPEvQA3K6cvsPqvlUt2Z0SpiEkbFBSkGtjouAnxXUNCQjh37hynT59mzJgx3HLLLYwfP56ioiIeeugh1q1bR15eHomJidxxxx1MnjyZbdu28bOf/Yxnn32WBQsWkJubqybbf/3Xf7F+/XoWLVqk6BntdruahI8//jhhYWEsW7aMhIQEcnJylGURGxtLYGCgai5cUFBAUlIS06ZNw2QyceDAAZ5++mlOnz7Ngw8+yLRp0/D09OTEiRM89thjrFq1ivT0dL773e+6Bfx6x4v0TJRhGDQ2NvL444+zd+9eli1bxnXXXUdiYiJnz57lySef5KWXXiI7O5vvf//7DB8+nGeeeYZf//rXnDx5krFjxypro1+/fgwePJhp06ZxzTXXEB0dzfPPP6/MeCHaqqysxN/fX9FF6DEp+T0wMFD1T9XjMv3792f+/PlkZ2cr5Z2Tk0N4eDjbt2/n+PHjigDdy8uLjz76iMOHDzN9+nSSkpLw8fEhLy+Pp556ipCQEG6//XZmzZqlrI1Vq1axbt06goODuf/++1UzZukwL5aE0+mksLCQlStXcuDAAe677z5mzpyJr68v69ev55VXXvkcQK1Pvl25qBKRmICXlxfnz59XncnNZjNtbW18+umntLa2kpeXx44dO7Db7YSFhTFu3DhSU1MVqCghIYFbbrmFhQsXEhsbq/hTH3vsMcaOHctPfvITJk+erBrn5ufnU1BQwMcff0xubi4+Pj6UlpbyzjvvEB4ezp133smoUaMwm824XC6GDBmC0+nkscceIy8vj2XLlhEREcGiRYvYsWMHr7/+uooPdHV18cknn3DmzBmuvfZacnNzqa+vZ8OGDRw9epTFixfzwx/+UCmDzMxMKioqWLFiBe+99x7Tp09XXegFu3KhQJ5Ydhs3bmTTpk3Mnj2bn/70p6pbemxsLLfeeivbt29n7dq1XHvttcTExBATE0NCQgLe3t6kpKQwbtw4pZBiY2NJSUlR4zxs2DA3C6ijo0PhJnTXC3oAfIZhEBERoeIvYvL7+voya9YscnNzCQoKUjGW8ePHk5WVxaZNm9i3b5/qBt/c3MzevXtxOp3Mnj2bmJgY6uvreeuttzh37hx33303N910E7GxsbhcLkaOHEliYiJ33nkna9as4eqrryY3N9dt7PT0/K5duzhw4ADXXHMN99xzj3L5UlNTGTx4MN///vf/8RnfJ1+7XFSJCMQZuv3cN998k507d6oepp2dnbS0tLBu3Tq8vb1paWmhf//+ZGRkkJmZqSbI4MGDmTt3LrGxsdhsNsxmM9nZ2fj6+pKVlcWUKVMIDQ3FarUSEBBAfHy84jSRtO+6detob29XaUsJPHp6ehIVFcWcOXN46aWXKCwsVPyvU6dOJSkpif3793P69GnS0tKoq6vjk08+ITQ0VJn8drudgwcP0tbWRk1NDQ8//LCijTSbzZw+fZrW1lbq6+uV23CxbIBkoQSKvW3bNjo7O2lubuaFF15QmR8vLy8aGhro7Oxk//79WCwW4uLi3AKLEouScYEeiLgEqvU2iUIL4efnR3R09OfuTX4Xukt5hxIoDQ4OVpQJ0pE9Li6OSZMmkZ+fz7Zt21iwYAEJCQns37+fkpIShgwZwsSJE4FuHuNjx46Rnp7OvHnzlAKRGMr48eNJTk5WtA8dHR0qWCr3JlbdoUOH8Pb2Zt68ecTExCgXOT4+ngULFvD973/fLf7UJ9+ufGFgVXaH9PR0brzxRqZPn05wcDDNzc08//zzxMbGsmjRIgYNGqTwGv3791eLyGq1qtiALEroafAcHBysFowsFKFJCAgIUKjOo0ePAj3gKskYiPLq6OggLCyM5uZmxcAWFxfH9OnTef311/nLX/7C73//e44cOcKePXsUY72Y07KYjhw5QnV19ecqUwcMGMCoUaMURFtM8QvVD8lnJpOJtrY2PDy66SWqq6vVArZYLJhMJqKiosjKylI4EcGYSCZLh7PrvLoul0sRUIk1ojcvvlA9T2/RU7YS+xIFHBgYqDAsEydOJDMzk23btnH06FESEhLYtm0bp0+f5he/+AXJycl0dnZSXV1NW1ubIqqS+zWbzSpuEx8fT1FRkbq2xG3E2urq6sJms3Hu3Dl8fX0ZNmwYDodDjUNTU5M6Z58S+feRL7REpN4hMjKSuXPnKoxDVVUVGzdupLm5mYULFzJs2DCVRpSFI5NDsiw6fkP4UgMDA9Uk0NGNwk8iCiY5OVnx8wqiVI4NCQnBbDbT2tqqUrJyjVmzZvHaa6+xZcsWHnjgAU6cOEFZWRnLli0jOjpaKTsBVC1atIjbbruNqqoqxYEifChms5mQkBA3ZCy4T+ILxZE6Ozu58sorueWWW9Qz+vv709LSQnR0NB4eHoSHhyvlJyTVopwEByNYGR3+ruNyfHx8sFqtih8XPh+3MQyDlpYWnE4nISEhKpUrQDnh2WlsbFR/Gzx4MFOmTGHlypV8+umnDBo0iOLiYkJCQpg3bx6BgYF0dnYSGRkJdKdkpU5KGO3CwsLUu/fw8KClpUURWsmY6Fkv6ZIvSF6xACWuZbPZ+ort/o3kkmg0BUkqk1ta8AuOQXYeydpInt/Do7tFv+AKdHJpoXmwWq0EBwe7dQIXM10UwogRI/Dy8qK8vJzTp0/Tv39/PDw8VM1GcXExdXV1XH755UB3us/Pz48RI0YwaNAgKisrefHFFzl48CD9+vVj0aJFKj2YlJRESkqKmpgDBw5UcHGbzeaG95D70RWcZI/0QkGpjRk9ejRbtmyhvr6e+Ph4+vXr51ZQJm6bKGdZUL0L0/R3IdeXeJXEZwzDICQkRMWwwL3XhiidhoYGOjo6lLUhyl/vMh8ZGakWaVBQELNmzeJvf/sbO3bswM/Pj7KyMqZPn86AAQPUsw4YMICUlBROnDhBYWGh6r8K3Qpv586d7Nu3j5SUFNXwGXoQsIBK6Q8bNozdu3ezcuVKxo8f74Yg/vvf/+7WqV6P+/TJtyMXzYWJopAGvHotiLDNy24N3QtMMBCywwu/rt6HondpueAZdN4Um82mQGgeHh6MGzeO9PR0SkpKWLlyJfv376eiooLGxkY2b97MU089RVhYGLfddpsbnWe/fv2YM2cO1dXVPPPMM+zdu5dJkyap4KXdbsdsNiu8xubNm/n9739PeXk5jY2N2O12Nm/ezJ/+9CcKCwsVn60oOXEB7HY7VqtVcQwLTHv69OkMHDiQt99+m1WrVnHs2DEaGhpoaGjg+PHjPPLIIwr1qysTm82mLB4JikqxXWhoKCdOnOCDDz7g+PHjHDhwQCnypKQk2tvbKS0tBXoCvKKIPDw8sFgsuFwuhg4dqlLV3t7e7Nmzh1/+8pe8+OKLKnUtG0ZOTg6ZmZkUFRXxxhtvUFlZycKFC5Ul6e/vz/Dhwxk7diwWi4WXXnqJzZs309XVhcViYfPmzbz44os0NjayYMEC0tLS3KwJXUH6+/uTk5ODr68vW7ZsUVQVNTU1/OUvf+HJJ5+8aAq3T5F8O+INF6/QFdFLtcXsTklJIS0tzc21CAgIULUPUqEpCEYRWRRCFiXxEYl3NDc3KxNfcB39+/fnN7/5DU899RTPPPMMW7duJTU1FYvFwr59+/Dw8OAnP/kJM2bMAHrg9GazmSuvvJIXXniB8vJywsLCuP/++5XikuDxuHHjuPvuu1m5ciW//e1vyc/Pp1+/fthsNk6ePKnG4rLLLlMWkLe3N42NjfzhD3/g1VdfVXwrjY2NXHHFFSxevJhhwzamjloAACAASURBVIZx991389vf/pZnn32W9957j7CwMEJCQigsLKSiooLAwEBGjx6tsBwC5xcRBLAo30WLFrF69WoefPBBhTvZsGEDvr6+DBgwgODgYMUPIwhgiZM0NjZy6tQpIiIiyMjIUIFci8XCu+++yyOPPMLChQu5/PLLiYmJwTAMFV+aM2cOu3fvpqqqiqlTpzJixAg1F+S93nrrrVitVtasWcOZM2dISkoiICCAgwcPUllZybXXXsstt9yiNiG5Px3673K5mDp1KjNnzmTLli3ceeedTJ48mcrKSkpLS8nIyCAgIMCtpknPksnm1hcr+deJ14oVK1acPHmSkpISrr76asDdz9exD/K/YRgMGTKE7OxssrOz3WIeoiQsFgvNzc0MGzZMcZNIcZTNZqOuro7p06eTkZGhdkSAqqoqfH19ycnJITs7W7lFSUlJpKenExERgWEY1NTU4Ovry4gRI7j99tu56aabCAsLcyvkk3vq6uoiOjqaCRMmcPXVVyt2O/G1g4ODSU1NJT09ndDQUAV7d7lcpKWlKcJwiV2YTCYqKirw9PQkPDwcu91Oc3Ozshaio6MZM2YMISEhpKenk5aWRmhoKG1tbTQ3Nytk7sKFC1m0aJHKXIm70draypw5c8jNzVVj6unpqeIyMTExWK1W/P39GThwIBMnTlQK8b333qOtrY2JEycSGxuL3W5X7mRpaSmPPvooERER3HnnnQo9KoFab29vRo4cyfDhw5VrJFaJYIIkQzJ27FgVN5E4RmxsLMnJyWRlZakxbG1tJTExkRtuuIE77rhDEaGLO1ZTU4OPjw+LFi0iJCRElTBkZ2eTmJio0NERERHcdttt3HzzzXh5eTFkyBAmTJjgVm4h7nSfAvnm5ejRo1RVVXVvrIZxYUJvvaS6dxWvvnNI2bbT6VTZF3Fnjh8/TmBgIAkJCWpHlKDpyZMnGThwoNrJpBlNY2Mj9fX1JCUlqUCaWBWymzY0NGA2m1XBV2hoqKq41SHoslM2NzcrSyQ5OVmVj8Pn2xfU1dXR2Nio0p1+fn5ERER8ruN5bW0tDQ0NBAUFuRXZ2e12YmNjlXIRJWiz2WhsbHTrwpWcnOxWoObp6UlraytnzpwhJiZGxSbEkhN3sra2Fl9fX9ra2vD396dfv35Ad9bqnnvu4cUXX+S+++7j17/+NdDTDexvf/sbN9xwA7feeitPPvmkYtQTN+f8+fMEBwcTGxurYkaSSvf29ub8+fM0NTWRmJhISEiIcu/0mhVRSDU1NQrNK9W3QuStP++ZM2c4d+4cY8aMUbEsKRkQl1I2hoiICMxmM2VlZXR1dZGWlubWt0V33frkm5VLIvTu1Mi5u7q63Ai4DaOHWLqrq8uNUNrlchk2m+1zxNy9ianl/87OTkXubLPZ3M7f+7o6CbTdbnf7m5A2uz4j2Zbz6z/3Frm2EERf6Pn0c3R9Rlze1dVldHR0uI3RhaS9vV1dW74rP4s0Nzer5+59r+3t7W5j0tbWpn6Wz51Op2GxWBQB9ebNmw0/Pz9j+vTpRlNTk2EY3e+kqqrK+MlPfmJEREQYL7/8shthtX4/Lo3QXf+5Nzm53IN+vzabTRGoy7vrTVBut9uNjo4ORQSvi9VqNVwulyLe1t+JkJdfiPS7SyMl7/0e++SbkUsi9L6QS2NocRPdF9Z3A+iuYxDya/kngVrduhFIu5xfmsuIBSFxGIfD4dZ3VTAVEpAEd/5bPaYggU+5pgRw9XvX2dscDocieDY+y7roPTukZF8qleV+BfsAqHJ3aV/QexyMz2I90J2i1lsVivsiFo+fn5/K2kjFsd4xTL9/l8tFbm4u48aN4/DhwxQUFKj3V1xczBtvvEF2djZTpkxxA3cJ+EvuS9oHyHXkWAn4ynMLUTegrC693aJYMHIesVwkgKxjWvQ2A2azWcVH9J4xEmszPsOUyLvXyb8vBSPTJ1+vXFLtzIUK9CTjojfwlUkp3bHkhcqk0c1ywaEAbsfp1zY+M7VlkYm7JLEVMX/lOzKJJEApoDUR47P0qe726M9zoVJyWfjyuVxPAniyKHqPnXwmC0eeQffdxWx3OByq3YGMo64w9bGQBRkQEKDOrSunqKgofvzjH/PCCy9gt9vdCigzMjK46aabSExMdLtfKWaDHkCfAP30TJsAAaW/iA5UE0Ujc6V3ZbcoRHkWUUR6dzK9iE7GVtxEmSfiQss5e4+RvtH1yb9G/uHmC5It0Fv0ScWuXuUrk1jwJrKritUBPaztOsZCcCX6Ti5M9TJ5ZKFKEFQaCV2olZ/FYlELAdwtKTlGFKWgRfVqXeOz4KbgQXQkruziMgY6/kNfOLJz6sFA4HMUCzKushvL4u2t/GQcRWHKgp4yZQpJSUkKWWsYBuPGjSMtLY2UlBQ3q1CsBnlH8pz681itVqUYpG+Irpz1exDFKGMqiki3IAQ4J+Ool+6LNSRNmPSGSCaTCbPZ/DlaCpmDF1LoffLNy5fC3sHdtdE/k11Cn+z6opdJJ8dL4EvvlK5PYEBBnOXcenpYTGVZ+PK7WEL65NdbJAIqEKuX7+vuj17XIhaPLLDei17uT+5Xb5Wgj4Xcqywe/Tyi9KAnWCv/y33p3xGrSxoZyUISxSRgLE9PT4KDgxk+fLjbuzSbzQwcOFC1qpTv6yA5QClTUR5ms1mVIMji9/T0dOuXolujct9iLepun4ydno4ViIBsGJ6enirdLc8lTb3FtRLFJBabjLVIXz+Rf618ZcoI/TNRBr37aejHyES7EB2Bfmzvl36xSSCuju769Ha99OvorRL17/V+lt7nkYWl369+jExq3ZcXa0BXZqI4RcHId3X3T6w6+V935wAVO5LFKu6hWCKSveqd6dFFnlusPr3PqX4u6FEK+vvRKSJ05dZ7TGW8e7+/C2VNLtQQWx8zQLVB1MsM9LHW4fQyZhK7EmtXziVuk36+3tftk68ufb3k/kERhaAvjgspPpmwOmpUD2p+0fnFpdE5ZaAnHiPn632uS1kM4laIQtKfSUSqhXXcjX78tyl6/EV+160qUSDiukGPlaVbUX3yz8u3Pxv+jeVii1FcFL1+Rq+hEdNfjv2y811I9MCkiFgMYvn0XkRf5ToSv9JFbyylK0lB0cozfptxBz14eqHgv/yTjJO4WfpY9fVh/XqlbzQvIl+kQMDdhJfFdTG4tR407r2DftH1xU2R88vCv5D5r5/7UkWUoKS0pe0g4BbTuFA8418lF4rHyee93Tb9Z4mpyTjK+AjiuC+L8/VJnyXyD4rT6VQWiExSkS+yCi5FgUBPHQn0LHZxPy7FHbqU8+v0G7q7JRgQvRBP58DtbcF8U3IxhaxjkwSjo6d59c7vTqdTuX96HKpPvj7ps0S+gsgE7G116BkV3a2BzyuNS42JAG7V0nrcQhZ273N/FUtEAox6hzS73a6yXDrYTgcJCgbn2xTdndF/1rEqIr2zYIIT6guifn3SZ4n8gyILWRCsktaEz2egoIcBT981v0jkHJLOhu5d9/nnn6egoMANwfvPLAg597Fjx3j11Vf55JNPVCq8qqqK119/nV27drkd++8gYqlJpksUiGRsBOQmDY42b97Mhg0baGlp6VMgX7P0WSJfUWTnE54cQW4KkZYUmumWivji0pRJb33wRSKpVHGb7HY7Dz74IJMnT2bSpElqEcHnSxO+bKEITkTK6t9++22efPJJli1bxvjx4/Hx8eH48eM8/PDDjBs3jkGDBhEWFqZ2/29rIYo709LSopo36SBAsaLE7QM4ceIETz75JG1tbaSlpZGbm9vn1nyNclHeGZEL8eXqASw9MyFQdul6JpW3OsZBB4pJ+zzxY4XbV0BXerVte3v7BQNispDkPgQ3oeM45Lq9UaeyANva2tzQnXr9h7e3txuCsr29nbq6Ov73f/+Xw4cPU19fr2prvL29GTBgAPPmzWPcuHHq2Tw8PDh58qSiO1ixYoX6jgQHdddBnrGtrY3Q0FA8PT2xWq10dXXR1tZGdXU17e3tqsZEDyDK+OvQcxk/eQYZZ8PoJtc+f/4877//PmazmSuuuEJ9Jzc3lzFjxvDGG28wc+ZMrr32WrfYgyBzAbdF2zvgKf1XdLoNmXd6b1cdqKefS9wPLy8vWlpa2L59Ox9++CFDhgzh9ttvV/PHx8dHNZrS4fKenp40Njaq8dGlzyr55+Wi7kxvkmdJXeopNrvdrlKAAqYShSHNdKU4ClAvUHz94OBgoLurmbe3N/7+/qolocPhcCssk0CfFIfpkGjJLsg15J6loTP0sNLJ5xIsbG9vJygoCOjBEchzSbGen58fra2tyqe22Wzs2rWLTZs2Ad28uSEhIbS0tLBmzRruuOMO8vPzFR8vdJN5rVmzhpUrV1JfX+/m8kgLSYGtNzU1YRjd7Q47Oztpb29XFo70RpH3IIpI2hFIn1mpzamvryc/P59NmzZhsVhU2lOg7P7+/uzatYvi4mKGDx+uWkNCN0udMNtt376dhoYGdY+ijOV9SnDZ4XAohafD+qXDvJ4CF2WvI1QFfdrc3Nw9QbW0tryLDz74gKeffpo9e/ao7nfyjoWdT0odoBsWHxwcrHqw9MnXKxd1Z3r325CiOuiuLXn//fdpbW1l1qxZREZGunHM6ohBvfJSLBVfX186Ozux2+2EhISoRSzITB1MJcpE7kGCgEI/oUOgZXeUySkBT9mFdRSkiMPhUHENSXPKcdJvQ6/Lke+4XC6ioqL44Q9/yIIFC3A4HBw9epQXX3yR119/nbVr15Kbm6v6iSYnJ/OjH/0Iq9VKeHi4iqHoi14WS3h4OBaLhcDAQBUAFQUA0NjY6GY96uMCqBoWs9lMY2OjMuXHjBlDXFycUkrQrcD379+PzWZj2rRpquGyjOHYsWOJi4tj69atLF26lKioKDeYug6Ek/cUFBTkBn3X09N+fn7q/Uv2RI4TF6+9vZ3Q0FB1HQG8SeHh1KlTiYqKYsKECapkQkoRxIoFVNWzbk2De5PrPvnn5UurePUgoOwezc3NrFq1CovFwogRI4iOjlbmuRzn6enJkSNHSE9PVw10pMw8NDRUdcUSE72xsRFvb2/i4+PdfH29BkXup6qqCk9PT+rq6jCbzYrDVbIILS0t1NbWEh0drWgapObCbrdjGAb19fVEREQQEBCgMhRiOTU2NuJwOAgPD8ff318pECnvl7aOgYGBhIWFERgYSGBgIOPGjaOjo4OPPvqI999/n4qKCgYMGEBnZyfZ2dmkpqaqknapP4HunbypqYm2tjYMw1AEYS0tLbhcLsXg19bWhp+fn4pltLe309DQgGEYBAUFqeJE6YhvtVoVXYXD4aC8vFwtxri4ODo7Ozl37hynTp0iLi6OESNGALgFcjMzMxkxYgQbNmzg+PHjjBw5UmWLOjo6qKmpwd/fn9DQULy9u2lSm5qaMJlMhIWFKVfGy8uLgIAA6uvraWpqIioqitDQUAC10VgsFmpra/H396e1tRUvLy8iIyNVoyJpKzB37lxGjx5NaGiocl1E6UlT5+bmZlUbFBgYqBSw7j72ydcjF1UiUqgFPZkIWaSi9aV7le7Liol98uRJHn/8ccaPH09SUhIbN27k1KlTqj/r4sWLueyyyygoKFD0Ey0tLQwbNoybb75ZLT5xlxwOB0VFRbz33nscOnRI0SsEBwczZcoUxU5nt9spKyvj17/+Nbm5uSxfvpzw8HA3d6GgoIB169Yxe/Zsli5dqgrSNmzYQEFBAfX19bhcLsxmM2PGjGHhwoWkpKR8DigmSlXnwREKC338nE4ndXV1rFy5EpfLxc9//nMiIyMxm83U1dWxbds2RVwtC8Lf318p4xtvvJGFCxficDgUXmPbtm3s2bOHkpISOjo6iIqK4vLLL2f+/PlKCb3wwgu8+eabnD9/HsMwuPfeewkLCyM9PZ0f/vCHpKWlUVlZybFjx4iOjlYd0iT+YLVaCQkJISMjQ42rxWJRi3/37t28+uqrxMfHc+utt5KYmMjWrVtZv349Cxcu5JprrlHPIfLqq6+yfft2fvGLXzBo0CBlLW3cuJEdO3Zw5swZgoODaW9vJysriyuvvJKRI0cqS6uhoYEjR47w8ssvM3PmTG644QZlbfr6+rJt2zZefvllWltbVd/Zyy67TDXPlnhXnyXy9clFlYi4LmJq6tF/6eou5mfvps4ul4tjx46xa9cutmzZQnBwsNqtjhw5wptvvklpaSnp6ekUFRWpPpz79u1j48aN1NTU8Oijjyq0pq+vL3v37uV3v/sdu3btYuDAgaohzt69e9m8eTM333wz9957L9HR0dhsNrZs2cLu3buZPXs24eHhyiRub29n3bp1vPHGG2RlZeHj40NjYyNr1qzhz3/+Mzabjcsuuwx/f3+OHTvG3r17OXz4MD//+c8ZNGgQgEI9NjQ0KPMcoKamhjfeeINz584xc+ZMEhMTVTzn1KlTrFmzBovFwl133QV0K+q8vDxWrVqF3W4nMzMTb29vzp07x+HDh/Hx8WHevHlqAUlPjtLSUlasWIHVaiUiIgKbzUZ+fj7FxcVKqXZ2dhIWFqaCrxKvEstLAuSnTp3izJkzDBs2TMWxehcrirupKxGn08nJkyfZvHkzycnJzJ07l6ioKNra2ti4cSNNTU3k5OQwdOhQNS/Kysp46aWXKCkp4f7778fHx4f6+nr++Mc/8txzz+Hr60t6ejrNzc00NDSo+fOzn/2M6667DpfLRUhICEVFRbz66qskJSWp+enn58fatWt59NFHOXnyJLm5uZhMJrZs2UJ+fj7nz58nOTlZZcr0XjJ98k+KYRjG5s2bjZtuuskwjJ6Wc06nU7X36+rqMtra2gyLxWJ0dnYa1dXVxvTp041JkyYZ27dvN2w2m2G3243W1lZDZNeuXcaYMWMMwJg4caLx9ttvG42Njca7775r5ObmGv7+/oavr68xf/5847XXXjPOnz9v5OfnG/Hx8YbJZDIKCgpU27u6ujpjzpw5BmB85zvfMYqKioyKigrj1KlTxnPPPWcMGjTIiIiIMF544QXDMAyjurra+M53vmOYzWbjmWeeUc/V1tZmFBQUGNHR0caECROMkpISwzAM4+9//7uRlpZmDB061MjLyzMsFothGIZRXFxszJ492wgICDD++Mc/Gk6n07Db7cahQ4eMadOmGQEBAcb3vvc94/HHHzdWrFhhLF261IiOjjaGDh1qvPPOO4bFYlHP8NFHHxnDhg0zMjMzjcrKSsMwDOPAgQNGbm6u4ePjY+Tl5RlWq9Ww2WxGYWGhkZGRYaSmphrbtm0zHA6H4XK5jObmZsPHx8cAjClTphgrV640KisrjWPHjhk33XSTARhLly41HA6H0d7ebnR0dBgfffSRkZ2dbQwcONDYuXOn0dTUZJw7d061NfzDH/5gAMZdd91lNDc3q/aP0srR5XIZq1atMgIDA42pU6caR44cUc904MABY8WKFcbTTz9tVFdXG4ZhGOXl5cbll19uREZGGnl5eW4tDFevXm34+/sbc+fONRobGw3DMIyXX37ZiIyMNNLS0oznnnvOqKysNBoaGoytW7cat9xyiwEYM2bMMEpLS9U9P/fccwZgPPLII2q+lZWVGZmZmYbJZDJ+//vfGxUVFUZ5ebmxcuVKY9SoUQZgDB061CguLlZtFF19rRT/YdHbI17UEtH7NJSWlrJp0yYOHz6sgmHHjx/HZrPxxBNPEBMTQ3t7O+Hh4SxbtoyhQ4ditVqpqqoiIyOD3/3ud4waNQrDMLj88sspLi7mN7/5DYMHD+bhhx8mJycHgOjoaIYPH86WLVs4ePAgkyZNAqCkpITNmzczZMgQHnnkEaKiolSg7o477sDhcHD33Xezfv16Fi9eTGRkJLNmzeKVV17htddeY9myZSoTtGvXLurr61mwYAFDhw6lvr6eTz75hLKyMu69916uu+46amtrsVqtDBs2jEWLFvHxxx+zdetWFixYQEpKitqprVYrq1atUpH/jo4O0tLS+O///m9mzpzp1qBIsj3e3t40NzcTHh5Oc3MzFouFmJgY5s6di7+/P06nk5ycHEwmE3V1dQQHB7uhXJ1OJxkZGfzqV79SbQ7Dw8O57rrryM/PZ9euXXR0dKjgZnJysuL/iY2NxWw2ExoaqmJd0qvD19dXFatJtkf6qkRGRhIfH4/dbqe9vV09U3Z2NhkZGSpG4nA4SE5OJjMzk4KCAg4fPkxtbS1hYWF4eHiwe/du7HY7t956K8HBwTQ1NfHee+/R0NDAr371K2699VaVhp06dSoDBgygpKSEjz76iI8//phBgwYpnmQ/Pz8sFosKfO/du5ejR49y+eWXc/311xMXF0dXVxd33nknOTk5LFiwQAVgjW8R5/J/US6qRMTck8m/a9cuPvzwQwIDA3G5XIqoafv27Wri9e/fn7lz56rydS8vLzIzM0lMTHQjrUpISMDDw4M5c+aQlpbm1tAnKSkJ6GmyY7fb2bJlCwDDhw9XLHKG0dORbMiQIURGRlJcXKxaDI4YMYKRI0dy7Ngx9uzZw6xZs6iurmbHjh3ExsZy1VVXKVLrgwcP4uXlRWFhIbfeeqsKBvr6+nLy5EmVJWhsbCQlJUUBx8xmMz/5yU8YMmQIp06d4rXXXqO5uZmamhpsNhthYWG0tLQQEBBASEiISj8HBATg5+fH0KFDiYuLY+/evbz++uuMHTuW0NBQ3n77bcrLy4mPj1ed5p1OJxaLhaCgIEJDQxkxYoSKVfn5+REeHq6yPpJKlwBpe3u7QsvqmRE9NZyQkKAaHknsAFCEWZLmlgCziI4bklTvggULePvtt/n73//O4sWLiYmJobS0lIKCArKyshTNSFVVFTt27CAwMJBJkyapeSBB4+joaDIzMzly5AgVFRVufVAkBiJxqVOnTgGQk5NDUlKSUhgdHR3ExMSQlZVFeXm5yhRdCDXcp1guXfQU/xciVmUHzcjI4IEHHmD58uUqEPbLX/4SX19fli9fTkZGBtA94bKystxKrwUaDj1ZG7kBQRZKAFUUgPi+EhwTLhq9taEgLnVycAmeSaAxNzeXoqIi3n33XWbNmkVpaSkHDx5kyJAhjB49Gl9fXxoaGlR6+vz58wq3IORKfn5+TJ06lcmTJyu+GgFOxcTEMH78eGbNmoXVaiU+Pp6HHnqI3//+94wYMYLRo0cTFBSkUt5BQUGKAtP4LAuTlpZGSUkJDz30kGKGczqdDB48mOXLl9OvXz+FcpUMTVBQkBsuB3BLUxufpbv19LEscLl/GX+pORFidL2rnBzrcDiwWCxuJOsyPwQopvc8HTp0KJmZmbz77rscPXqUzMxM3n//faqqqvjZz36mOI1FiXl5eSmSM/lc+pbIfevAQaluNplMKthcVlaGt7c30dHRgHtzJGHbCw4OVoDCPvn65AuViESyg4ODGTVqlPq8oaGB1NRU6uvrGTVqFIMHDwbcEa0yCS5WgNa7MlSOlZoHOc5kMin+FQEPCU5DdhVvb2/q6+sVebiY5/Pnz2fdunVs3ryZH/zgBxQVFVFdXc3Pf/5zpRD8/f0JDAwkJiaGW265hRtvvFFNOuGsNT5LoUoq2WQyYbVa1W7o6dlNXH7llVfy0Ucf8corr7BhwwYGDhyoCK9aW1vVMwrQ69ixYxQVFZGTk8PMmTNpaGigq6uLmJgYhg0bxrRp05TVJcpVX/iirGXsZcz0HiStra0qY2axWBRJtl4E6OnpSW1tLS0tLQoHImIYBs3NzTQ2NhIXF+dWhOjl5eWGxZDxiIqKYsaMGezYsYN33nmHCRMmsHHjRgIDAxk7dqy6hihBAfhJRbHgPXx8fLBYLIowXDYfp9OJzWbDYrHg4eFBUFAQsbGxdHV1UVtbq1wuu92ueJ4dDsfn+u/2ydcjF0Ws6lWishPIwrLZbHR0dFBfX4/dbldFZfrLEWCZh4eHMqF18JH+mUwkaSQjuX5xnaZOnYqHhwf79u3jyJEjmEwmBZaqq6tj48aNtLa2MnHiRDc6hcsuu4zc3FxOnDjBmjVr2Lt3L2lpacyZM0c9U79+/UhMTKSmpoby8nKio6PJyMggMzOTYcOGkZKSoiwPiQVYrVY3k9hut+NwOAgODmbBggUkJSXxzjvvKGJtHeIuuzBAYWEhxcXFREZGsnjxYq699lqWL1/OzTffTE5OjjLfxXIRV8Nut6s6HOhR3vKuerd51Bs9SxtFgZMLCK++vh6HwwH0ZNvk/TU1NakMmihVOd/Zs2c5e/asSsWL1Tlr1iwGDRrEe++9x+bNm5WyTElJAbo3k8TERCZNmoTdbmf9+vWcPn1a/c3f35/i4mKKiooICQlh6NChKjMYGhqq6CnEKhozZgyGYfDhhx9SVVWlrNOamhq2bdtGRUUFgBuStk++HrmoJSJxDVn44iOLaex0OhWiU/4mO6U0EpZgo4hubcjvOpBMVzLNzc0qhiDcrJs2beLee+9l8eLFZGRk4HQ6yc/P5/nnnycnJ4f77rvPjR8mMDCQefPmUVBQwMqVK/Hy8uLaa68lJSVF4TtCQkK46qqr+OCDD1i7di1eXl7Mnz+fiIgI7HY7hYWFlJeXM3/+fGbMmOFmBQjuROcjHjNmDOnp6WzZsoW33nqLtLQ0zGYzvr6+tLS0KA5igJSUFLKysti1axfXX389kZGRym0xDIMxY8Ywb948+vfvr74n5n9vug2JVUjcQ+ILQUFBREREUFhYSF5eHg0NDTidTsaNG0d4eDj9+vUjICBAgdb0nrHyjLW1tbhcLlJSUhTkHmDfvn0888wzxMfHc/fdd5OYmKiU6+DBg0lLS+OTTz7hmWeeobm5mYkTJzJw4EB1nxERESxZsoRdu3axevVq/P39mTJlCn5+fhw4cID169dTUVHB0qVLGTdunJu7o1cUt7e3k56ezrBhw9i7dy//r72ri2mi6cIPsAW0sPxoKZVGZKtVkArIBT+CwqzOHwAACMJJREFUBt8qCRhjiKKI8S8mGuIdRuK9NxrvjDdeGOOVaDT+JSaYaIIEbQAJCUKoMQhFKdtaW6XtVqjzXeCZdxfw4/vRvIn2udl2ujvdnZmdOXPOc865cOEC9u7dy/MUd3R0YHJyEkajkU+MMUnk5+GHkwitcmqXdConPQGJiwB44ifKFB+JRGA0GjmngPQhtFcnfwZ6Kanu9PR0iKLIc/eSZ+y5c+cgiiLu37+P8fFxCIIAvV4Pt9sNSZJw4sQJbNy4kUsypBv566+/UFhYCKfTCZPJhPr6ei4d0ctcUlKCs2fP4vLly7h58yZ6enq4P4fb7UZ6ejoqKir49ou2A5S3l6QpRVFgMplQW1uLV69e4enTpzh48CBXFpMVh/63qKgIJpMJTqcTmZmZkGWZt4PX68Xz588xMjKCM2fOwGw2821iRkYGvz/2nddB5aRAJWtJWloa6urqMDQ0hOvXr6OrqwtmsxkFBQUwGAyQJAmSJEGWZZ6+lBSv5LjmdDqRkJDA01BQn719+xYdHR2w2Wzw+XzIzs7W6Lvq6+vR09MDp9MJq9WKnTt3ara6AFBZWYnm5ma0t7fj2rVrPDl6JBLBly9f0NzcjNbWVm4p0uv1mJ6e5ttYktays7PR1taGixcv4tatWxgYGAAwN7kWFxcjPj5e410dm0R+Hn44iaj3y8DfJLLExESIooj9+/cjEokgNzeXn0cdLQgCzGYzDhw4wLX+tEIxxrBu3TrOWFV7bOp0OpSXlyMajaKqqorXNz09jS1btsBkMmHz5s2YnJzEp0+foNPp0NDQgO3bt2P9+vUaqwLdR15eHlpaWuB0OrmyNS5uLiQgKeYEQUBjYyMsFguePHmCsbExrgg1m82wWq2oqanhgZOXL1+Ouro6MMZgtVoXBE222+0Ih8NciSoIAoxGIw4fPswn2kgkgr6+PgwNDWHPnj04f/48QqEQkpKSEAwG8fr1a5w6dQp37tzBoUOHkJWVBUEQ0NLSgrVr1/LtHPWPwWBAU1OTxvMZmJu4mpqakJaWhs7OTq4op+tNJhPKyspw7949OBwObvUhDA4OYmBgABaLhZPhSMrJz8/HyZMnYTabYTAYeCwP6uva2lp4PB6MjIygsLAQxcXF3HObpMW0tDS0traiuroaDocDExMTEAQBqamp2LBhA+x2O1avXs19qHQ6HWw2G06fPo3y8nLOpE5NTcW+ffsgiiKePXvGWcfbtm1DbW0tOjs78e7dO2RmZv7PL0sMPwBji5PNGNPm2Z2dnV2QR5eO3759Y4qi8GuIqDQxMcE+fvzI66Q8qpFIhI2Pj/NrZmZmeF0+n495PB4WCAT4ueojY4y5XC4myzJzu908rytdT3XS+YqiMEVRmMvl0uSynU80omcIBoPM7XYzWZaZy+Xi9TGmzX8bCASY1+tliqJonpnyBfv9fjY6Oqp5Rq/Xy8LhMD/n+PHjDABrb29nfr+f30c0GmV+v59JksQEQWAPHjzg9cuyzEls31R5kyORCPP7/czj8Wjug/pwdnaW+f1+Njk5yduWsbn8vleuXGEpKSns2LFjmly30WiUXb16lYmiyHbv3s0JZZSHOBwOs0AgwAKBgKadiIwWCATYzMwMGxsbY5FIhD+D+jMR+xhjzOv1Mo/Hw2RZZrIs83LqS+qjmZkZ9uHDBxYMBjk5ju6L2n5qaoqFw2EWCoVYNBpliqIwr9erySGtJp3FiGf/He7evcva2trmyGZkCUlOTuaeo2plJ3mX0orHvmvl1UcAmn04rcirVq1ST1aatJNms1lTH30mvwz6Pj8nCwDk5OT8aELk90Hn09aBrmFMa3lQg85dLCMdAB7PhFY+NeiZSQkqiiLf6tE16lWQJJ2EhATcvn0b6enpSElJ4YrTx48fw+VyoaamBjabjVuzDAbDgmjyaosYlamzClL7iqLI75u2HHq9HpWVlSgqKkJXVxd6e3tRUVEBYM4K53A4kJiYiB07dsBoNAIAHxtJSUka72FqJ2oL+i912k7qG/pMVHsAC6QEKlf3PfUR+fmoz6XxRe0+v2+pfmqX+Zg/Hv5kUB+qdZZUrrawRqNRCCR+0gTCmDb/aQy/BoIgoL6+HqOjo+jt7UV/fz/XB/l8PoRCITQ0NODIkSPIycnRZJibbzZfDOoXWl1GgyM+Pp6HU7BYLKiqqsKNGzfgcDhQXFyMZcuWYXBwEA6HA6Wlpdi6davGpT5GzPr9odZjqssojg8JFgIAHtgHgCYSWAy/DnFxcbDb7VizZg1evnyJN2/e8Lb/+vUrcnNzYbfbYbFYAPwdFpCUnkv1z2K/Ux0EtYPd0aNHkZycDEmSuE4jJycHjY2NKCsrw6ZNmzhTNeZK//uDFpvFJhBgbgyQbkugADaBQAAOhwOhUAh6vR7hcPifuv8/AiTxpaSkIC8vDwaDgRPtMjIykJqaiqmpKbx//14jPhLH4T+RROafQwNCLaUQg5MsUIwxvHjxgrN1q6urER8fj+7ubh6ZTE1yi+HPgXoS6e7u5oQ+ISEhAQaDAVlZWXj48CHC4bAmClgMvwZE3ScLEfFDiLpPBDbaxpDVhQLzLJayU435K8j8CYRMsRSTlIhboVBowSRB+hj6PZaC8vfHYpKmmooRDAZhtVqxcuVKxDHGWDgcxvDwMABoiGMx/DoEg0HOdQkGg5w6//nzZyiKAr1ez4MXE41bzd1Zqn9+pBOhI4WVVBQFK1asgCzLGB8f5+NgMeTn56OgoIAr3GL4fbGUxEtKfkmSINBqV1JSognAG5NEfi2InUsTAik7abtAbgQUy5QU3RRFban+WWo7Q5wfUq7KsswnkKqqKpSUlCAzMxM+nw/9/f3o6urC8PAwJEmCzWb7R/PxxvDr8e90XmQJA767RjDGGFGdaXAtJSrH8HNAehG12Uz94lO/ANDkrPl//5OO5KKg0+lw6dIlBINB7Nq1C6WlpQuu6+vrw6NHj6DX69Ha2hrTifyBUI8dMgIAwL8AbIO1G5hD/H8AAAAASUVORK5CYII=;" vertex="1" parent="1">
          <mxGeometry x="283.5" y="170" width="273" height="525" as="geometry" />
        </mxCell>
      </root>
    </mxGraphModel>
  </diagram>
</mxfile>
